<!-- svg-sprite -->
<svg id="mysprite" xmlns="http://www.w3.org/2000/svg" fill="none" aria-hidden="true" focusable="false">
	<svg id="fakelMin" viewBox="0 0 31 86">
	<g clip-path="url(#clip0_2232_147)">
	<path d="M30.6273 25.7054C30.3276 24.1173 29.9039 22.7137 29.3356 21.4536L29.346 21.4433L29.1703 21.1052C29.0566 20.8798 28.943 20.6544 28.8293 20.4393V20.429C28.602 19.8758 28.2196 19.5275 27.6823 19.384L27.0313 19.2201C27.0313 19.2099 27.0313 19.1996 27.0313 19.1894C26.9487 18.1546 26.804 16.9661 26.1634 15.8699C24.9441 13.8004 22.3608 12.7451 20.0152 13.3393C19.9325 13.3598 19.9118 13.3598 19.8498 13.3291C19.7362 13.2779 19.6122 13.2266 19.4779 13.1652C19.0439 12.9705 18.5582 12.7451 17.9486 12.6734C17.3492 12.5914 16.8842 12.7451 16.5536 13.1139C16.3366 13.3598 16.1196 13.7799 16.2643 14.4253C16.2539 14.4253 16.2539 14.4253 16.2436 14.4356L16.2126 14.4458C16.1093 14.4765 15.9439 14.5175 15.7579 14.62C15.4686 14.7737 15.1276 14.8864 14.5903 14.7429C15.1483 11.8435 14.7556 8.9646 13.4227 6.14715V6.13691C13.123 5.42999 12.565 5.20459 12.1517 5.14312L12.007 5.12263C11.9037 4.30301 11.759 3.47314 11.5317 2.64328C11.5007 2.34616 11.4077 1.64949 10.6741 1.1782L8.79344 0L8.76244 2.20273C8.76244 2.23347 8.76244 2.2642 8.75211 2.28469C8.73144 2.46911 8.70044 2.82769 8.85544 3.20677C8.85544 3.36044 8.86577 3.52437 8.89677 3.69854C9.37209 7.00776 9.14476 9.64079 8.17346 11.946C7.83246 12.4173 7.7498 12.909 7.92546 13.4315L7.95646 13.5237C7.92546 13.534 7.90479 13.534 7.8738 13.534C5.45585 13.9028 3.81289 15.3269 3.11024 17.6526C3.06891 17.7858 3.03791 17.9087 3.01724 18.0112C2.99658 18.1034 2.96558 18.2263 2.95525 18.257C1.47761 20.5725 0.702633 23.2567 0.599302 26.4533C0.537303 28.2564 0.774964 30.162 1.32262 32.4467C1.58095 33.5122 1.95294 34.5163 2.42826 35.4691C2.37659 35.4486 2.32493 35.4281 2.26293 35.4179C1.89094 35.3256 1.48795 35.3769 1.14696 35.5818C0.599302 35.9096 0.320309 36.4936 0.42364 37.1288C0.475305 37.4259 0.599302 37.6718 0.6923 37.846C0.712966 37.8767 0.723299 37.9075 0.743965 37.9382C1.47761 39.895 2.66592 41.6982 4.48454 43.6141C4.64987 43.7882 4.82553 43.9726 4.99086 44.1571C4.8462 44.3005 4.71187 44.4747 4.60854 44.6488C4.08155 45.4992 3.99889 46.5442 4.39155 47.3946C4.50521 47.6404 4.8462 48.3679 5.67285 48.4806C6.21017 48.5523 6.71649 48.3371 7.16081 47.8249C7.19181 47.8249 7.22281 47.8146 7.27448 47.8146C7.60514 48.7469 7.8738 49.792 8.11146 51.0009C8.9381 55.2937 9.54776 59.2791 9.98175 63.1723C10.3951 66.9425 10.7154 70.3234 10.9634 73.52C11.0977 75.3129 11.2424 77.1468 11.3767 78.909C11.5007 80.5175 11.6247 82.1157 11.7487 83.7242C11.883 85.5274 13.0817 85.845 13.9083 85.845C13.9807 85.845 14.0427 85.845 14.115 85.8348C15.293 85.7631 16.5536 85.7016 17.8142 85.7426C18.8682 85.7733 20.1495 85.4147 20.2218 83.4784L20.2425 82.9456C20.2735 82.0543 20.3045 81.1219 20.3562 80.2204L20.4492 78.284C20.6042 75.0977 20.7695 71.809 20.9555 68.5715C21.0898 66.2151 21.2241 64.248 21.3895 62.3834C21.6891 58.9512 22.0508 55.8776 22.4951 52.968C22.5468 52.6299 22.5984 52.302 22.6398 51.9639C22.8671 50.3657 23.0944 48.8699 23.5801 47.4253C23.5904 47.3946 23.6008 47.3843 23.6111 47.3843C23.6421 47.3741 23.6731 47.3946 23.7041 47.4253C24.2001 47.9171 24.7374 48.1117 25.2747 47.9888C26.1014 47.8044 26.3804 47.0257 26.4734 46.7798C26.7627 45.9705 26.7007 45.1304 26.2874 44.4029C26.1427 44.1468 25.9567 43.9112 25.7294 43.7063C26.8247 42.4154 27.641 41.2781 28.323 40.1102C28.385 39.9975 28.447 39.895 28.5193 39.7823C28.943 39.0754 29.4183 38.266 29.6559 37.3235L29.6663 37.303C29.9453 36.3502 29.4286 35.7252 28.912 35.4896C28.788 35.4281 28.261 35.2334 27.703 35.5203C27.889 35.1515 28.0647 34.7622 28.23 34.3728C28.3746 34.4446 28.4986 34.4855 28.5296 34.4855C28.5916 34.506 28.7363 34.5265 28.912 34.5265C29.346 34.5265 30.0073 34.3523 30.3689 33.3995C30.3793 33.3893 30.3793 33.3688 30.3896 33.3586C30.7616 32.4467 30.9682 31.4939 31.0096 30.5206C31.0509 28.9633 30.9269 27.3343 30.6273 25.7054Z" fill="white"/>
	<path d="M23.8931 44.8551C25.1641 45.101 25.8151 46.0948 25.4327 47.1398C25.2467 47.6521 25.0711 47.7033 24.6991 47.3345C23.9861 46.6276 22.8391 46.8837 22.5188 47.8058C21.8782 49.6704 21.6715 51.6272 21.3718 53.5533C20.8862 56.7089 20.5349 59.8747 20.2559 63.0507C20.0802 65.1202 19.9355 67.2 19.8219 69.2798C19.6049 73.1628 19.4189 77.0457 19.2226 80.9287C19.1709 82.0147 19.1296 83.1109 19.0882 84.2072C19.0572 85.0575 18.8196 85.3137 17.9619 85.2829C16.691 85.2419 15.42 85.3034 14.149 85.3751C13.3844 85.4263 13.157 85.16 13.095 84.3916C12.8367 80.9902 12.5577 77.5887 12.3097 74.1873C12.0514 70.7142 11.7104 67.2513 11.3281 63.7986C10.8734 59.6903 10.2328 55.6024 9.44746 51.535C9.22013 50.3671 8.94114 49.2094 8.53815 48.0824C8.40382 47.7135 8.24882 47.3959 7.79416 47.3652C7.26718 47.3242 6.75052 47.3242 6.3682 47.7648C6.03754 48.1541 5.86188 48.1131 5.64488 47.6418C5.23156 46.7607 5.81021 45.3264 7.15351 45.2854C6.58519 44.681 6.05821 44.1072 5.52088 43.5335C4.04325 41.9762 2.79295 40.2857 2.03863 38.2674C1.9353 37.9806 1.60464 37.5912 1.91464 37.3966C2.2143 37.2224 2.36929 37.7039 2.53462 37.9293C3.41293 39.0563 4.43591 40.0501 5.65521 40.8082C8.16615 42.3655 10.8218 43.5745 13.7564 44.1072C15.885 44.4863 17.9309 44.1584 19.9252 43.4105C23.1078 42.2118 25.8461 40.3882 28.0264 37.7757C28.078 37.7142 28.14 37.6425 28.1917 37.581C28.2847 37.4785 28.3673 37.3249 28.512 37.3863C28.698 37.4683 28.605 37.663 28.574 37.7961C28.3467 38.708 27.8404 39.4764 27.3754 40.2755C26.4971 41.7918 25.4121 43.1544 24.2444 44.4556C24.1308 44.599 24.0171 44.7219 23.8931 44.8551Z" fill="#267CDF"/>
	<path d="M27.8399 21.7408C28.6872 23.2981 29.2039 24.9578 29.5242 26.6893C29.8032 28.2056 29.9272 29.7219 29.8652 31.2587C29.8342 32.0988 29.6482 32.9082 29.3382 33.6868C29.2659 33.8712 29.2039 34.1376 28.9455 34.0761C28.6769 34.0044 28.7182 33.7278 28.7596 33.5126C29.0695 31.8529 29.2039 30.1727 29.1419 28.4822C29.0592 26.2795 28.4909 24.1894 27.7469 22.1301C27.7159 22.0379 27.6952 21.9355 27.6642 21.8433C27.6849 21.7511 27.6952 21.6384 27.8399 21.7408Z" fill="#267CDF"/>
	<path d="M10.4194 3.62777C10.7914 4.9494 10.9154 6.30178 11.0704 7.65415C11.2977 9.60075 10.8224 11.4039 9.86144 13.0944C9.78911 13.2276 9.67544 13.3403 9.58245 13.453C9.45845 13.5247 9.36545 13.5247 9.37578 13.3505C10.6468 10.4204 10.6881 7.37753 10.2438 4.29371C10.2128 4.07856 10.2231 3.85316 10.2024 3.63801C10.2748 3.55605 10.3471 3.55605 10.4194 3.62777Z" fill="#267CDF"/>
	<path d="M10.4167 3.62787C10.3444 3.62787 10.2721 3.63812 10.2101 3.63812C10.0344 3.4537 10.1171 3.23855 10.1171 2.98242C10.3961 3.15659 10.3857 3.39223 10.4167 3.62787Z" fill="#267CDF"/>
	<path d="M9.37693 13.3408C9.41826 13.433 9.50093 13.4535 9.58359 13.4433C9.51126 13.5867 9.40793 13.7199 9.22193 13.7916C9.1496 13.597 9.26327 13.474 9.37693 13.3408Z" fill="#267CDF"/>
	<path d="M27.8396 21.7414C27.7776 21.7721 27.7259 21.8131 27.6639 21.8438C27.5399 21.7106 27.4883 21.5569 27.4883 21.3418C27.7363 21.4033 27.7569 21.5979 27.8396 21.7414Z" fill="#267CDF"/>
	<path d="M28.0291 27.7755C27.8741 25.2757 27.2024 22.95 26.0865 20.7268C25.9728 20.5116 25.9315 20.2965 25.9108 20.0506C25.8281 19.0773 25.7145 18.1143 25.2082 17.2537C24.2782 15.6759 22.2322 14.8358 20.4446 15.2968C20.1139 15.3788 19.8246 15.3685 19.5043 15.2353C18.9876 15.0202 18.4916 14.7333 17.913 14.6514C17.6237 14.6104 17.5203 14.6514 17.603 14.9587C17.696 15.2968 17.975 15.7271 17.789 15.9628C17.5927 16.2086 17.1173 16.2394 16.766 16.3623C16.673 16.3931 16.5594 16.4135 16.4767 16.4545C15.5261 16.9668 14.5961 16.8541 13.6454 16.4033C13.3458 16.2599 13.3044 16.1472 13.3768 15.8398C14.0794 12.9302 13.7074 10.123 12.4261 7.42845C12.3745 7.31575 12.3435 7.16207 12.0851 7.12109C12.2298 7.89973 12.1265 8.64764 12.0851 9.40579C11.9508 11.5266 11.1862 13.3707 9.59486 14.8563C9.19187 15.2353 8.74755 15.43 8.18956 15.512C6.25727 15.8091 4.99664 16.8951 4.42832 18.77C4.33532 19.0773 4.31465 19.3949 4.12866 19.6818C2.65103 21.987 2.05171 24.5585 1.96904 27.253C1.90705 29.1791 2.20671 31.0643 2.66136 32.9187C4.33532 39.8649 11.4858 44.086 18.4813 42.2931C18.6673 42.2418 18.843 42.1496 19.029 42.2521C19.3803 42.4365 19.6903 42.3136 19.9796 42.1087C20.5376 41.7091 21.0956 41.3198 21.6846 40.9714C24.5675 39.3014 26.5205 36.8733 27.5538 33.728C28.1841 31.7814 28.1531 29.8041 28.0291 27.7755ZM24.4435 20.5731C23.9785 22.5607 23.1002 24.3741 22.1702 26.167C21.9636 26.5666 21.8912 26.8944 22.0772 27.3555C22.3872 28.1034 22.4906 28.923 22.5216 29.7426C22.5732 31.3614 22.6249 32.9699 22.4182 34.5784C22.1186 36.8938 21.3333 39.0146 19.773 40.8075C19.7006 40.8895 19.6386 41.0329 19.494 40.9714C19.3596 40.91 19.401 40.7665 19.3906 40.6538C19.339 39.8649 19.5146 39.0965 19.525 38.3077C19.5456 36.023 19.2253 33.8407 17.8097 31.9351C17.386 31.3614 16.9314 30.7876 16.2907 30.4291C15.991 30.2651 16.022 30.1524 16.2287 29.968C16.363 29.8553 16.456 29.7324 16.4767 29.5172C15.5674 29.6607 14.8234 30.0295 14.2861 30.7979C13.1081 32.4679 12.3848 34.271 12.3745 36.3406C12.3641 37.5495 12.4675 38.7585 12.4571 39.9571C12.4571 40.2133 12.4468 40.4694 12.3538 40.7665C11.4962 39.8957 10.8348 38.9224 10.2045 37.9286C8.83021 35.7976 7.91057 33.4719 7.38358 31.0233C7.11492 29.7938 7.16659 28.4927 7.63158 27.2838C7.86924 26.669 7.86924 26.0851 7.81757 25.4499C7.57991 22.4992 8.70622 20.1121 10.9382 18.1962C11.8888 17.3868 12.8705 17.1512 14.1208 17.5713C15.4537 18.022 16.859 18.2372 18.285 18.1552C18.6156 18.1347 18.6156 18.145 19.029 17.9196C18.2333 17.7864 17.51 17.7864 16.766 17.4483C17.6857 17.2229 18.5226 17.018 19.3493 16.8131C19.68 16.7311 20.0313 16.6902 20.3516 16.5877C22.5112 15.9525 25.0325 18.104 24.4435 20.5731Z" fill="#267CDF"/>
	<path d="M10.6445 8.61703C10.6445 7.98183 10.6445 7.33638 10.6445 6.70117C10.6652 6.70117 10.6755 6.70117 10.6962 6.70117C10.6962 7.33638 10.6962 7.97158 10.6962 8.60679C10.6859 8.60679 10.6652 8.61703 10.6445 8.61703Z" fill="#267CDF"/>
	</g>
	<defs>
	<clipPath id="clip0_2232_147">
	<rect width="30.5859" height="85.8553" fill="white" transform="translate(0.414062)"/>
	</clipPath>
	</defs>
	</svg>

</svg>