<svg width="56" height="154" viewBox="0 0 56 154" fill="none" xmlns="http://www.w3.org/2000/svg">
<g clip-path="url(#clip0_2069_3816)">
<path d="M54.9765 46.1081C54.439 43.2597 53.6791 40.742 52.6597 38.4816L52.6782 38.4632L52.3631 37.8568C52.1593 37.4525 51.9554 37.0482 51.7515 36.6623V36.6439C51.3437 35.6516 50.658 35.0267 49.6942 34.7695L48.5265 34.4754C48.5265 34.457 48.5265 34.4387 48.5265 34.4203C48.3782 32.5642 48.1187 30.4325 46.9696 28.4661C44.7825 24.7539 40.1488 22.8611 35.9415 23.927C35.7932 23.9637 35.7561 23.9637 35.6449 23.9086C35.441 23.8167 35.2186 23.7248 34.9777 23.6146C34.1992 23.2654 33.3281 22.8611 32.2345 22.7325C31.1595 22.5854 30.3255 22.8611 29.7324 23.5227C29.3431 23.9637 28.9539 24.7172 29.2134 25.8749C29.1949 25.8749 29.1949 25.8749 29.1763 25.8933L29.1207 25.9117C28.9354 25.9668 28.6388 26.0403 28.3052 26.2241C27.7862 26.4998 27.1746 26.7019 26.2108 26.4446C27.2117 21.2439 26.5073 16.08 24.1164 11.0263V11.0079C23.5789 9.73986 22.578 9.33556 21.8366 9.2253L21.5771 9.18854C21.3918 7.71838 21.1323 6.22983 20.7245 4.74129C20.6689 4.20835 20.5021 2.95871 19.1862 2.11337L15.8129 0L15.7573 3.95107C15.7573 4.00621 15.7573 4.06134 15.7387 4.09809C15.7016 4.42888 15.646 5.07208 15.9241 5.75203C15.9241 6.02768 15.9426 6.32172 15.9982 6.63413C16.8508 12.5699 16.443 17.2928 14.7008 21.4277C14.0891 22.273 13.9409 23.1551 14.2559 24.0924L14.3116 24.2578C14.2559 24.2761 14.2189 24.2761 14.1633 24.2761C9.82617 24.9377 6.87917 27.4921 5.61881 31.6637C5.54467 31.9026 5.48907 32.1231 5.452 32.3069C5.41493 32.4723 5.35933 32.6928 5.34079 32.748C2.69034 36.9012 1.30024 41.716 1.1149 47.4496C1.00369 50.684 1.42999 54.1021 2.41232 58.2002C2.87569 60.1115 3.54293 61.9124 4.39553 63.6215C4.30285 63.5847 4.21018 63.548 4.09897 63.5296C3.43173 63.3642 2.70887 63.4561 2.09723 63.8236C1.1149 64.4117 0.614462 65.4592 0.799808 66.5986C0.892481 67.1315 1.1149 67.5725 1.28171 67.885C1.31878 67.9401 1.33731 67.9952 1.37438 68.0504C2.69034 71.5604 4.82182 74.7948 8.08392 78.2313C8.38047 78.5437 8.69556 78.8745 8.99211 79.2052C8.73263 79.4625 8.49168 79.7749 8.30633 80.0873C7.36107 81.6126 7.21279 83.4871 7.91711 85.0124C8.12099 85.4535 8.73263 86.7582 10.2154 86.9604C11.1792 87.089 12.0874 86.7031 12.8844 85.7842C12.94 85.7842 12.9956 85.7659 13.0883 85.7659C13.6814 87.4382 14.1633 89.3126 14.5896 91.4811C16.0723 99.1811 17.1659 106.33 17.9443 113.313C18.6857 120.076 19.2603 126.14 19.7051 131.874C19.9461 135.09 20.2056 138.379 20.4465 141.54C20.6689 144.426 20.8913 147.292 21.1138 150.178C21.3547 153.412 23.5047 153.982 24.9875 153.982C25.1172 153.982 25.2284 153.982 25.3582 153.963C27.4711 153.835 29.7324 153.724 31.9936 153.798C33.8841 153.853 36.1824 153.21 36.3122 149.737L36.3492 148.781C36.4048 147.182 36.4604 145.51 36.5531 143.893L36.7199 140.419C36.9979 134.704 37.2945 128.805 37.6281 122.998C37.8691 118.771 38.11 115.243 38.4066 111.898C38.9441 105.742 39.5928 100.229 40.3898 95.0095C40.4824 94.4031 40.5751 93.815 40.6493 93.2086C41.057 90.3418 41.4648 87.6587 42.3359 85.0675C42.3544 85.0124 42.373 84.994 42.3915 84.994C42.4471 84.9757 42.5027 85.0124 42.5583 85.0675C43.448 85.9496 44.4118 86.2988 45.3756 86.0783C46.8584 85.7475 47.3588 84.3508 47.5256 83.9098C48.0446 82.458 47.9334 80.9511 47.192 79.6463C46.9325 79.1869 46.5989 78.7642 46.1911 78.3967C48.1558 76.0811 49.62 74.0413 50.8433 71.9463C50.9545 71.7441 51.0657 71.5604 51.1955 71.3582C51.9554 70.0902 52.808 68.6384 53.2343 66.9477L53.2528 66.911C53.7532 65.2019 52.8265 64.0809 51.8998 63.6582C51.6774 63.548 50.7321 63.1988 49.7312 63.7134C50.0649 63.0518 50.3799 62.3535 50.6765 61.6551C50.936 61.7838 51.1584 61.8573 51.214 61.8573C51.3252 61.894 51.5847 61.9308 51.8998 61.9308C52.6782 61.9308 53.8644 61.6184 54.5132 59.9093C54.5317 59.8909 54.5317 59.8542 54.5502 59.8358C55.2175 58.2002 55.5882 56.4912 55.6623 54.7453C55.7365 51.952 55.514 49.0301 54.9765 46.1081Z" fill="white"/>
<path d="M42.8917 80.455C45.1715 80.8961 46.3392 82.6786 45.6534 84.5531C45.3198 85.472 45.0047 85.5638 44.3374 84.9023C43.0585 83.6342 41.0012 84.0937 40.4266 85.7476C39.2775 89.0922 38.9068 92.6023 38.3693 96.0572C37.4982 101.717 36.868 107.396 36.3675 113.093C36.0525 116.805 35.793 120.535 35.5891 124.266C35.1999 131.231 34.8662 138.196 34.5141 145.161C34.4214 147.109 34.3473 149.075 34.2731 151.041C34.2175 152.567 33.7912 153.026 32.2529 152.971C29.9731 152.897 27.6933 153.008 25.4136 153.136C24.042 153.228 23.6343 152.75 23.523 151.372C23.0597 145.271 22.5592 139.17 22.1144 133.069C21.6511 126.839 21.0394 120.627 20.3536 114.434C19.5381 107.065 18.389 99.7326 16.9803 92.4369C16.5726 90.3419 16.0721 88.2653 15.3493 86.2438C15.1083 85.5822 14.8303 85.0125 14.0148 84.9574C13.0695 84.8839 12.1428 84.8839 11.457 85.6741C10.8639 86.3724 10.5488 86.2989 10.1596 85.4536C9.4182 83.8732 10.4561 81.3004 12.8656 81.2269C11.8462 80.1426 10.901 79.1135 9.93717 78.0844C7.28671 75.291 5.04402 72.2588 3.69099 68.6385C3.50565 68.124 2.91254 67.4257 3.46858 67.0765C4.00608 66.7641 4.2841 67.6278 4.58066 68.0321C6.1561 70.0536 7.99103 71.8362 10.1781 73.1961C14.682 75.9894 19.4454 78.1579 24.7093 79.1135C28.5274 79.7934 32.1973 79.2054 35.7744 77.8638C41.4831 75.7137 46.3948 72.4426 50.3056 67.7564C50.3983 67.6462 50.5095 67.5175 50.6021 67.4073C50.769 67.2235 50.9172 66.9479 51.1767 67.0581C51.5103 67.2051 51.3435 67.5543 51.2879 67.7932C50.8802 69.4288 49.972 70.807 49.1379 72.2405C47.5625 74.9603 45.6163 77.4044 43.5219 79.7383C43.318 79.9956 43.1142 80.2161 42.8917 80.455Z" fill="#267CDF"/>
<path d="M49.9713 38.9957C51.4912 41.789 52.4179 44.7661 52.9925 47.8719C53.4929 50.5917 53.7153 53.3115 53.6041 56.068C53.5485 57.575 53.2149 59.0268 52.6589 60.4234C52.5291 60.7542 52.4179 61.232 51.9545 61.1217C51.4726 60.9931 51.5468 60.4969 51.6209 60.111C52.177 57.1339 52.4179 54.1201 52.3067 51.0879C52.1584 47.1368 51.139 43.3879 49.8045 39.6941C49.7489 39.5287 49.7119 39.3449 49.6562 39.1795C49.6933 39.0141 49.7119 38.812 49.9713 38.9957Z" fill="#267CDF"/>
<path d="M18.723 6.50543C19.3903 8.87607 19.6127 11.3018 19.8907 13.7276C20.2985 17.2193 19.4459 20.4536 17.7221 23.4859C17.5924 23.7248 17.3885 23.9269 17.2217 24.1291C16.9993 24.2577 16.8325 24.2577 16.851 23.9453C19.1308 18.6894 19.2049 13.2314 18.4079 7.69994C18.3523 7.31402 18.3709 6.90973 18.3338 6.52381C18.4635 6.37679 18.5933 6.37679 18.723 6.50543Z" fill="#267CDF"/>
<path d="M18.7228 6.50541C18.593 6.50541 18.4633 6.52379 18.3521 6.52379C18.037 6.193 18.1852 5.80708 18.1852 5.34766C18.6857 5.66007 18.6671 6.08274 18.7228 6.50541Z" fill="#267CDF"/>
<path d="M16.85 23.9268C16.9242 24.0922 17.0724 24.1289 17.2207 24.1105C17.091 24.3678 16.9056 24.6067 16.572 24.7354C16.4423 24.3862 16.6461 24.1657 16.85 23.9268Z" fill="#267CDF"/>
<path d="M49.972 38.996C49.8608 39.0511 49.7681 39.1246 49.6569 39.1798C49.4345 38.9409 49.3418 38.6652 49.3418 38.2793C49.7866 38.3896 49.8237 38.7387 49.972 38.996Z" fill="#267CDF"/>
<path d="M50.3058 49.8207C50.0277 45.3367 48.823 41.1651 46.8212 37.1772C46.6174 36.7913 46.5432 36.4054 46.5061 35.9643C46.3579 34.2185 46.154 32.4911 45.2458 30.9474C43.5777 28.1173 39.9078 26.6104 36.7013 27.4374C36.1082 27.5844 35.5893 27.566 35.0147 27.3271C34.0879 26.9412 33.1983 26.4266 32.1603 26.2796C31.6414 26.2061 31.456 26.2796 31.6043 26.8309C31.7711 27.4374 32.2716 28.2092 31.9379 28.6319C31.5858 29.0729 30.7332 29.1281 30.103 29.3486C29.9362 29.4037 29.7323 29.4405 29.584 29.514C27.8788 30.4328 26.2107 30.2307 24.5055 29.4221C23.968 29.1648 23.8939 28.9627 24.0236 28.4114C25.284 23.1923 24.6168 18.1569 22.3185 13.3238C22.2258 13.1216 22.1702 12.846 21.7068 12.7725C21.9663 14.1691 21.781 15.5106 21.7068 16.8706C21.4659 20.6746 20.0943 23.9825 17.24 26.6472C16.5171 27.3271 15.7201 27.6763 14.7193 27.8233C11.2533 28.3562 8.99206 30.3042 7.97266 33.6672C7.80585 34.2185 7.76878 34.7882 7.43515 35.3028C4.7847 39.4376 3.70969 44.0503 3.56142 48.8834C3.45021 52.3383 3.98771 55.7197 4.80324 59.046C7.80585 71.5056 20.6318 79.077 33.1798 75.861C33.5134 75.7691 33.8285 75.6037 34.1621 75.7875C34.7923 76.1183 35.3483 75.8978 35.8673 75.5302C36.8681 74.8135 37.869 74.1152 38.9255 73.4904C44.0966 70.4949 47.5997 66.1395 49.4532 60.4978C50.5838 57.0061 50.5282 53.4593 50.3058 49.8207ZM43.8742 36.9016C43.0402 40.4667 41.4647 43.7195 39.7966 46.9355C39.4259 47.6522 39.2962 48.2402 39.6298 49.0672C40.1858 50.4087 40.3712 51.8789 40.4268 53.3491C40.5195 56.2527 40.6121 59.1379 40.2414 62.0231C39.7039 66.1763 38.2953 69.9803 35.4966 73.1963C35.3668 73.3433 35.2556 73.6006 34.9961 73.4904C34.7552 73.3801 34.8293 73.1228 34.8108 72.9207C34.7181 71.5056 35.0332 70.1274 35.0517 68.7123C35.0888 64.6142 34.5142 60.6999 31.975 57.2818C31.2151 56.2527 30.3996 55.2235 29.2504 54.5803C28.7129 54.2863 28.7685 54.0842 29.1392 53.7534C29.3802 53.5512 29.547 53.3307 29.584 52.9448C27.953 53.2021 26.6185 53.8636 25.6547 55.2419C23.5417 58.2374 22.2443 61.4717 22.2258 65.1839C22.2073 67.3524 22.3926 69.5209 22.3741 71.671C22.3741 72.1305 22.3555 72.5899 22.1887 73.1228C20.6503 71.5608 19.4641 69.8149 18.3335 68.0324C15.8684 64.2099 14.2188 60.0383 13.2736 55.6462C12.7917 53.441 12.8843 51.1071 13.7184 48.9386C14.1447 47.8359 14.1447 46.7885 14.052 45.6491C13.6257 40.3565 15.646 36.0746 19.6495 32.6381C21.3547 31.1863 23.1154 30.7636 25.3581 31.5171C27.7491 32.3257 30.2698 32.7116 32.8276 32.5646C33.4207 32.5278 33.4207 32.5462 34.1621 32.1419C32.7349 31.903 31.4375 31.903 30.103 31.2966C31.7526 30.8923 33.2539 30.5247 34.7367 30.1572C35.3298 30.0102 35.9599 29.9367 36.5345 29.7529C40.4083 28.6135 44.9307 32.4727 43.8742 36.9016Z" fill="#267CDF"/>
<path d="M19.1309 15.4551C19.1309 14.3157 19.1309 13.1579 19.1309 12.0186C19.1679 12.0186 19.1865 12.0186 19.2235 12.0186C19.2235 13.1579 19.2235 14.2973 19.2235 15.4367C19.205 15.4367 19.1679 15.4551 19.1309 15.4551Z" fill="#267CDF"/>
</g>
<defs>
<clipPath id="clip0_2069_3816">
<rect width="54.8625" height="154" fill="white" transform="translate(0.78125)"/>
</clipPath>
</defs>
</svg>