<svg width="24" height="24" viewBox="0 0 24 24" fill="none" xmlns="http://www.w3.org/2000/svg">
<g clip-path="url(#clip0_2229_18027)">
<path d="M22.125 2.8125H21.75V2.0625C21.75 1.44216 21.2453 0.9375 20.625 0.9375C20.0047 0.9375 19.5 1.44216 19.5 2.0625V2.8125H4.5V2.0625C4.5 1.44216 3.99534 0.9375 3.375 0.9375C2.75466 0.9375 2.25 1.44216 2.25 2.0625V2.8125H1.875C0.841125 2.8125 0 3.65363 0 4.6875V21.1875C0 22.2214 0.841125 23.0625 1.875 23.0625H22.125C23.1589 23.0625 24 22.2214 24 21.1875V4.6875C24 3.65363 23.1589 2.8125 22.125 2.8125ZM20.25 2.0625C20.25 1.85573 20.4182 1.6875 20.625 1.6875C20.8318 1.6875 21 1.85573 21 2.0625V3.18661C21 3.18694 21 3.18722 21 3.1875C21 3.18778 21 3.18811 21 3.18839V4.3125C21 4.51927 20.8318 4.6875 20.625 4.6875C20.4182 4.6875 20.25 4.51927 20.25 4.3125V2.0625ZM3.375 1.6875C3.58177 1.6875 3.75 1.85573 3.75 2.0625V4.3125C3.75 4.51927 3.58177 4.6875 3.375 4.6875C3.16823 4.6875 3 4.51927 3 4.3125V3.18797C3 3.18783 3 3.18764 3 3.1875C3 3.18736 3 3.18722 3 3.18703V2.0625C3 1.85573 3.16823 1.6875 3.375 1.6875ZM22.125 22.3125H1.875C1.25466 22.3125 0.75 21.8078 0.75 21.1875V6.9375H18.75C18.9571 6.9375 19.125 6.76959 19.125 6.5625C19.125 6.35541 18.9571 6.1875 18.75 6.1875H0.75V4.6875C0.75 4.06716 1.25466 3.5625 1.875 3.5625H2.25V4.3125C2.25 4.93284 2.75466 5.4375 3.375 5.4375C3.99534 5.4375 4.5 4.93284 4.5 4.3125V3.5625H19.5V4.3125C19.5 4.93284 20.0047 5.4375 20.625 5.4375C21.2453 5.4375 21.75 4.93284 21.75 4.3125V3.5625H22.125C22.7453 3.5625 23.25 4.06716 23.25 4.6875V6.1875H22.5C22.2929 6.1875 22.125 6.35541 22.125 6.5625C22.125 6.76959 22.2929 6.9375 22.5 6.9375H23.25V21.1875C23.25 21.8078 22.7453 22.3125 22.125 22.3125Z" fill="#2C356D"/>
<path d="M21 6.1875H20.25C20.0429 6.1875 19.875 6.35541 19.875 6.5625C19.875 6.76959 20.0429 6.9375 20.25 6.9375H21C21.2071 6.9375 21.375 6.76959 21.375 6.5625C21.375 6.35541 21.2071 6.1875 21 6.1875Z" fill="#2C356D"/>
<path d="M12.375 9.5625H11.625C11.4179 9.5625 11.25 9.73041 11.25 9.9375C11.25 10.1446 11.4179 10.3125 11.625 10.3125H12.375C12.5821 10.3125 12.75 10.1446 12.75 9.9375C12.75 9.73041 12.5821 9.5625 12.375 9.5625Z" fill="#2C356D"/>
<path d="M12.375 11.4375H11.625C11.4179 11.4375 11.25 11.6054 11.25 11.8125C11.25 12.0196 11.4179 12.1875 11.625 12.1875H12.375C12.5821 12.1875 12.75 12.0196 12.75 11.8125C12.75 11.6054 12.5821 11.4375 12.375 11.4375Z" fill="#2C356D"/>
<path d="M12.375 13.3125H11.625C11.4179 13.3125 11.25 13.4804 11.25 13.6875C11.25 13.8946 11.4179 14.0625 11.625 14.0625H12.375C12.5821 14.0625 12.75 13.8946 12.75 13.6875C12.75 13.4804 12.5821 13.3125 12.375 13.3125Z" fill="#2C356D"/>
<path d="M12.375 15.1875H11.625C11.4179 15.1875 11.25 15.3554 11.25 15.5625C11.25 15.7696 11.4179 15.9375 11.625 15.9375H12.375C12.5821 15.9375 12.75 15.7696 12.75 15.5625C12.75 15.3554 12.5821 15.1875 12.375 15.1875Z" fill="#2C356D"/>
<path d="M12.375 17.0625H11.625C11.4179 17.0625 11.25 17.2304 11.25 17.4375C11.25 17.6446 11.4179 17.8125 11.625 17.8125H12.375C12.5821 17.8125 12.75 17.6446 12.75 17.4375C12.75 17.2304 12.5821 17.0625 12.375 17.0625Z" fill="#2C356D"/>
<path d="M12.375 18.9375H11.625C11.4179 18.9375 11.25 19.1054 11.25 19.3125C11.25 19.5196 11.4179 19.6875 11.625 19.6875H12.375C12.5821 19.6875 12.75 19.5196 12.75 19.3125C12.75 19.1054 12.5821 18.9375 12.375 18.9375Z" fill="#2C356D"/>
<path d="M15 9.5625H14.25C14.0429 9.5625 13.875 9.73041 13.875 9.9375C13.875 10.1446 14.0429 10.3125 14.25 10.3125H15C15.2071 10.3125 15.375 10.1446 15.375 9.9375C15.375 9.73041 15.2071 9.5625 15 9.5625Z" fill="#2C356D"/>
<path d="M15 11.4375H14.25C14.0429 11.4375 13.875 11.6054 13.875 11.8125C13.875 12.0196 14.0429 12.1875 14.25 12.1875H15C15.2071 12.1875 15.375 12.0196 15.375 11.8125C15.375 11.6054 15.2071 11.4375 15 11.4375Z" fill="#2C356D"/>
<path d="M15 13.3125H14.25C14.0429 13.3125 13.875 13.4804 13.875 13.6875C13.875 13.8946 14.0429 14.0625 14.25 14.0625H15C15.2071 14.0625 15.375 13.8946 15.375 13.6875C15.375 13.4804 15.2071 13.3125 15 13.3125Z" fill="#2C356D"/>
<path d="M15 15.1875H14.25C14.0429 15.1875 13.875 15.3554 13.875 15.5625C13.875 15.7696 14.0429 15.9375 14.25 15.9375H15C15.2071 15.9375 15.375 15.7696 15.375 15.5625C15.375 15.3554 15.2071 15.1875 15 15.1875Z" fill="#2C356D"/>
<path d="M15 17.0625H14.25C14.0429 17.0625 13.875 17.2304 13.875 17.4375C13.875 17.6446 14.0429 17.8125 14.25 17.8125H15C15.2071 17.8125 15.375 17.6446 15.375 17.4375C15.375 17.2304 15.2071 17.0625 15 17.0625Z" fill="#2C356D"/>
<path d="M15 18.9375H14.25C14.0429 18.9375 13.875 19.1054 13.875 19.3125C13.875 19.5196 14.0429 19.6875 14.25 19.6875H15C15.2071 19.6875 15.375 19.5196 15.375 19.3125C15.375 19.1054 15.2071 18.9375 15 18.9375Z" fill="#2C356D"/>
<path d="M9.75 9.5625H9C8.79291 9.5625 8.625 9.73041 8.625 9.9375C8.625 10.1446 8.79291 10.3125 9 10.3125H9.75C9.95709 10.3125 10.125 10.1446 10.125 9.9375C10.125 9.73041 9.95709 9.5625 9.75 9.5625Z" fill="#2C356D"/>
<path d="M9.75 11.4375H9C8.79291 11.4375 8.625 11.6054 8.625 11.8125C8.625 12.0196 8.79291 12.1875 9 12.1875H9.75C9.95709 12.1875 10.125 12.0196 10.125 11.8125C10.125 11.6054 9.95709 11.4375 9.75 11.4375Z" fill="#2C356D"/>
<path d="M9.75 13.3125H9C8.79291 13.3125 8.625 13.4804 8.625 13.6875C8.625 13.8946 8.79291 14.0625 9 14.0625H9.75C9.95709 14.0625 10.125 13.8946 10.125 13.6875C10.125 13.4804 9.95709 13.3125 9.75 13.3125Z" fill="#2C356D"/>
<path d="M9.75 15.1875H9C8.79291 15.1875 8.625 15.3554 8.625 15.5625C8.625 15.7696 8.79291 15.9375 9 15.9375H9.75C9.95709 15.9375 10.125 15.7696 10.125 15.5625C10.125 15.3554 9.95709 15.1875 9.75 15.1875Z" fill="#2C356D"/>
<path d="M9.75 17.0625H9C8.79291 17.0625 8.625 17.2304 8.625 17.4375C8.625 17.6446 8.79291 17.8125 9 17.8125H9.75C9.95709 17.8125 10.125 17.6446 10.125 17.4375C10.125 17.2304 9.95709 17.0625 9.75 17.0625Z" fill="#2C356D"/>
<path d="M9.75 18.9375H9C8.79291 18.9375 8.625 19.1054 8.625 19.3125C8.625 19.5196 8.79291 19.6875 9 19.6875H9.75C9.95709 19.6875 10.125 19.5196 10.125 19.3125C10.125 19.1054 9.95709 18.9375 9.75 18.9375Z" fill="#2C356D"/>
<path d="M7.125 9.5625H6.375C6.16791 9.5625 6 9.73041 6 9.9375C6 10.1446 6.16791 10.3125 6.375 10.3125H7.125C7.33209 10.3125 7.5 10.1446 7.5 9.9375C7.5 9.73041 7.33209 9.5625 7.125 9.5625Z" fill="#2C356D"/>
<path d="M7.125 11.4375H6.375C6.16791 11.4375 6 11.6054 6 11.8125C6 12.0196 6.16791 12.1875 6.375 12.1875H7.125C7.33209 12.1875 7.5 12.0196 7.5 11.8125C7.5 11.6054 7.33209 11.4375 7.125 11.4375Z" fill="#2C356D"/>
<path d="M7.125 13.3125H6.375C6.16791 13.3125 6 13.4804 6 13.6875C6 13.8946 6.16791 14.0625 6.375 14.0625H7.125C7.33209 14.0625 7.5 13.8946 7.5 13.6875C7.5 13.4804 7.33209 13.3125 7.125 13.3125Z" fill="#2C356D"/>
<path d="M7.125 15.1875H6.375C6.16791 15.1875 6 15.3554 6 15.5625C6 15.7696 6.16791 15.9375 6.375 15.9375H7.125C7.33209 15.9375 7.5 15.7696 7.5 15.5625C7.5 15.3554 7.33209 15.1875 7.125 15.1875Z" fill="#2C356D"/>
<path d="M7.125 17.0625H6.375C6.16791 17.0625 6 17.2304 6 17.4375C6 17.6446 6.16791 17.8125 6.375 17.8125H7.125C7.33209 17.8125 7.5 17.6446 7.5 17.4375C7.5 17.2304 7.33209 17.0625 7.125 17.0625Z" fill="#2C356D"/>
<path d="M7.125 18.9375H6.375C6.16791 18.9375 6 19.1054 6 19.3125C6 19.5196 6.16791 19.6875 6.375 19.6875H7.125C7.33209 19.6875 7.5 19.5196 7.5 19.3125C7.5 19.1054 7.33209 18.9375 7.125 18.9375Z" fill="#2C356D"/>
<path d="M17.625 9.5625H16.875C16.6679 9.5625 16.5 9.73041 16.5 9.9375C16.5 10.1446 16.6679 10.3125 16.875 10.3125H17.625C17.8321 10.3125 18 10.1446 18 9.9375C18 9.73041 17.8321 9.5625 17.625 9.5625Z" fill="#2C356D"/>
<path d="M17.625 11.4375H16.875C16.6679 11.4375 16.5 11.6054 16.5 11.8125C16.5 12.0196 16.6679 12.1875 16.875 12.1875H17.625C17.8321 12.1875 18 12.0196 18 11.8125C18 11.6054 17.8321 11.4375 17.625 11.4375Z" fill="#2C356D"/>
<path d="M17.625 13.3125H16.875C16.6679 13.3125 16.5 13.4804 16.5 13.6875C16.5 13.8946 16.6679 14.0625 16.875 14.0625H17.625C17.8321 14.0625 18 13.8946 18 13.6875C18 13.4804 17.8321 13.3125 17.625 13.3125Z" fill="#2C356D"/>
<path d="M17.625 15.1875H16.875C16.6679 15.1875 16.5 15.3554 16.5 15.5625C16.5 15.7696 16.6679 15.9375 16.875 15.9375H17.625C17.8321 15.9375 18 15.7696 18 15.5625C18 15.3554 17.8321 15.1875 17.625 15.1875Z" fill="#2C356D"/>
<path d="M17.625 17.0625H16.875C16.6679 17.0625 16.5 17.2304 16.5 17.4375C16.5 17.6446 16.6679 17.8125 16.875 17.8125H17.625C17.8321 17.8125 18 17.6446 18 17.4375C18 17.2304 17.8321 17.0625 17.625 17.0625Z" fill="#2C356D"/>
<path d="M17.625 18.9375H16.875C16.6679 18.9375 16.5 19.1054 16.5 19.3125C16.5 19.5196 16.6679 19.6875 16.875 19.6875H17.625C17.8321 19.6875 18 19.5196 18 19.3125C18 19.1054 17.8321 18.9375 17.625 18.9375Z" fill="#2C356D"/>
<path d="M20.25 9.5625H19.5C19.2929 9.5625 19.125 9.73041 19.125 9.9375C19.125 10.1446 19.2929 10.3125 19.5 10.3125H20.25C20.4571 10.3125 20.625 10.1446 20.625 9.9375C20.625 9.73041 20.4571 9.5625 20.25 9.5625Z" fill="#2C356D"/>
<path d="M20.25 11.4375H19.5C19.2929 11.4375 19.125 11.6054 19.125 11.8125C19.125 12.0196 19.2929 12.1875 19.5 12.1875H20.25C20.4571 12.1875 20.625 12.0196 20.625 11.8125C20.625 11.6054 20.4571 11.4375 20.25 11.4375Z" fill="#2C356D"/>
<path d="M20.25 13.3125H19.5C19.2929 13.3125 19.125 13.4804 19.125 13.6875C19.125 13.8946 19.2929 14.0625 19.5 14.0625H20.25C20.4571 14.0625 20.625 13.8946 20.625 13.6875C20.625 13.4804 20.4571 13.3125 20.25 13.3125Z" fill="#2C356D"/>
<path d="M20.25 15.1875H19.5C19.2929 15.1875 19.125 15.3554 19.125 15.5625C19.125 15.7696 19.2929 15.9375 19.5 15.9375H20.25C20.4571 15.9375 20.625 15.7696 20.625 15.5625C20.625 15.3554 20.4571 15.1875 20.25 15.1875Z" fill="#2C356D"/>
<path d="M20.25 17.0625H19.5C19.2929 17.0625 19.125 17.2304 19.125 17.4375C19.125 17.6446 19.2929 17.8125 19.5 17.8125H20.25C20.4571 17.8125 20.625 17.6446 20.625 17.4375C20.625 17.2304 20.4571 17.0625 20.25 17.0625Z" fill="#2C356D"/>
<path d="M20.25 18.9375H19.5C19.2929 18.9375 19.125 19.1054 19.125 19.3125C19.125 19.5196 19.2929 19.6875 19.5 19.6875H20.25C20.4571 19.6875 20.625 19.5196 20.625 19.3125C20.625 19.1054 20.4571 18.9375 20.25 18.9375Z" fill="#2C356D"/>
<path d="M4.5 9.5625H3.75C3.54291 9.5625 3.375 9.73041 3.375 9.9375C3.375 10.1446 3.54291 10.3125 3.75 10.3125H4.5C4.70709 10.3125 4.875 10.1446 4.875 9.9375C4.875 9.73041 4.70709 9.5625 4.5 9.5625Z" fill="#2C356D"/>
<path d="M4.5 11.4375H3.75C3.54291 11.4375 3.375 11.6054 3.375 11.8125C3.375 12.0196 3.54291 12.1875 3.75 12.1875H4.5C4.70709 12.1875 4.875 12.0196 4.875 11.8125C4.875 11.6054 4.70709 11.4375 4.5 11.4375Z" fill="#2C356D"/>
<path d="M4.5 13.3125H3.75C3.54291 13.3125 3.375 13.4804 3.375 13.6875C3.375 13.8946 3.54291 14.0625 3.75 14.0625H4.5C4.70709 14.0625 4.875 13.8946 4.875 13.6875C4.875 13.4804 4.70709 13.3125 4.5 13.3125Z" fill="#2C356D"/>
<path d="M4.5 15.1875H3.75C3.54291 15.1875 3.375 15.3554 3.375 15.5625C3.375 15.7696 3.54291 15.9375 3.75 15.9375H4.5C4.70709 15.9375 4.875 15.7696 4.875 15.5625C4.875 15.3554 4.70709 15.1875 4.5 15.1875Z" fill="#2C356D"/>
<path d="M4.5 17.0625H3.75C3.54291 17.0625 3.375 17.2304 3.375 17.4375C3.375 17.6446 3.54291 17.8125 3.75 17.8125H4.5C4.70709 17.8125 4.875 17.6446 4.875 17.4375C4.875 17.2304 4.70709 17.0625 4.5 17.0625Z" fill="#2C356D"/>
<path d="M4.5 18.9375H3.75C3.54291 18.9375 3.375 19.1054 3.375 19.3125C3.375 19.5196 3.54291 19.6875 3.75 19.6875H4.5C4.70709 19.6875 4.875 19.5196 4.875 19.3125C4.875 19.1054 4.70709 18.9375 4.5 18.9375Z" fill="#2C356D"/>
</g>
<defs>
<clipPath id="clip0_2229_18027">
<rect width="24" height="24" fill="white"/>
</clipPath>
</defs>
</svg>
