<svg width="53" height="75" viewBox="0 0 53 75" fill="none" xmlns="http://www.w3.org/2000/svg">
<path d="M39.2353 14.9366C35.8599 11.5491 31.2804 9.64843 26.5075 9.64843C21.7309 9.65209 17.1548 11.5565 13.7797 14.9439C10.4043 18.3315 8.50686 22.9275 8.50686 27.7176C8.50686 32.5078 10.4043 37.1041 13.7797 40.4913C17.155 43.8789 21.7309 45.7868 26.5075 45.7868C31.2804 45.7868 35.8602 43.8862 39.2353 40.4987C42.6106 37.1075 44.5044 32.5115 44.5044 27.7174C44.5044 22.9236 42.6106 18.3276 39.2353 14.9366ZM15.2285 39.0299C12.24 36.0306 10.5614 31.9619 10.5614 27.7216C10.5614 23.4771 12.24 19.4084 15.2285 16.4094C18.2171 13.4101 22.2712 11.7255 26.4963 11.7255C30.7254 11.7255 34.7759 13.4101 37.764 16.4094C40.7525 19.4088 42.4347 23.4775 42.4347 27.7216C42.4347 31.9623 40.7525 36.0311 37.764 39.0299C34.7755 42.0219 30.7213 43.7029 26.4991 43.7029C22.2735 43.7029 18.2194 42.0219 15.2313 39.0263L15.2285 39.0299ZM46.5842 42.4102L51.3863 38.3598V38.3561C52.7219 37.2465 53.2692 35.441 52.7693 33.7748L51.3754 28.9553C51.255 28.5635 51.2477 28.1497 51.3535 27.7542L52.8642 21.6457C53.2948 19.9574 52.6818 18.174 51.3024 17.1192L47.3505 14.043C47.0257 13.7977 46.7739 13.4681 46.628 13.0872L44.2744 7.25334V7.24968C43.6358 5.63095 42.0923 4.55065 40.359 4.51034L35.3598 4.35286C34.9511 4.3492 34.557 4.22835 34.214 4.00496L28.89 0.672353V0.676015C27.4268 -0.257839 25.5439 -0.22122 24.1171 0.76757L19.9791 3.5911H19.9827C19.6507 3.82548 19.2602 3.96098 18.8516 3.98295L12.5935 4.42608C10.8638 4.53595 9.36416 5.67486 8.7876 7.31918L7.0981 12.0434C6.96674 12.4316 6.7332 12.7722 6.41573 13.0286L1.61363 17.079V17.0826C0.278078 18.1923 -0.26924 19.9977 0.230624 21.664L1.62456 26.4834V26.4871C1.74498 26.8753 1.75228 27.2928 1.64646 27.6846L0.135747 33.7931C-0.29484 35.4814 0.318197 37.2648 1.7012 38.3195L5.65312 41.3957C5.97789 41.6411 6.22602 41.9743 6.37198 42.3552L7.21126 44.45L7.21491 44.4463C7.16017 44.5379 7.11638 44.6331 7.09084 44.7356L0.402137 69.7777C0.296316 70.1842 0.442276 70.62 0.774339 70.8764C1.1064 71.1328 1.56253 71.162 1.92381 70.9496L10.2363 66.1302L15.0384 74.4727L15.042 74.4763C15.2245 74.8023 15.5711 75 15.9433 75C15.9907 75 16.0345 74.9963 16.0783 74.9927C16.4943 74.9377 16.8373 74.6338 16.9468 74.2273L22.424 53.7078L24.1062 54.7625C25.5731 55.6963 27.4523 55.6597 28.8792 54.6673L30.5321 53.543L36.0568 74.2303H36.0532C36.1626 74.6368 36.5056 74.9371 36.9216 74.9921C36.9654 74.9994 37.0092 74.9994 37.0566 74.9994C37.4252 74.9994 37.7682 74.8016 37.9543 74.4793L42.7564 66.1369L51.0688 70.9563V70.9527C51.4337 71.1651 51.8862 71.1358 52.222 70.8794C52.554 70.6194 52.7 70.1873 52.5905 69.7807L45.7011 43.9511L45.9018 43.3871V43.3908C46.0332 43.0063 46.2704 42.6665 46.5842 42.4102ZM20.556 52.661L15.5897 71.2577L11.521 64.186V64.1896C11.3823 63.9479 11.1561 63.7758 10.8897 63.7025C10.6233 63.633 10.3424 63.6696 10.1015 63.8087L3.05522 67.8921L8.48133 47.5779L8.72582 48.1859C9.36439 49.8046 10.9079 50.8849 12.6412 50.9252L17.6404 51.0827C18.0491 51.0863 18.4432 51.2072 18.7862 51.4306L20.5889 52.5549C20.5743 52.5951 20.5633 52.6244 20.556 52.661ZM27.7154 52.943C26.9674 53.4704 25.9748 53.4887 25.2049 52.9906L19.881 49.658V49.6617C19.2315 49.2442 18.4761 49.0135 17.7062 48.9988L12.707 48.845C11.7947 48.8304 10.981 48.2591 10.6526 47.4057L8.29901 41.5718V41.5682C8.01439 40.8467 7.54002 40.2168 6.92329 39.7481L2.97136 36.6719C2.24156 36.1225 1.9168 35.1814 2.15033 34.2951L3.66104 28.1866H3.66469C3.85809 27.4358 3.84349 26.6448 3.61725 25.9013L2.22331 21.0819C1.95328 20.2067 2.24156 19.2545 2.94946 18.6759L7.75156 14.6255V14.6218C8.34999 14.1311 8.79883 13.4829 9.05423 12.7468L10.7474 8.02621C11.043 7.15827 11.8348 6.55767 12.747 6.50639L19.0051 6.06326C19.775 6.01566 20.5194 5.75564 21.1544 5.31252L25.2851 2.49264C26.0331 1.96529 27.0257 1.94331 27.792 2.44137L33.1159 5.77398H33.1195C33.7691 6.19146 34.5208 6.42219 35.2943 6.43683L40.2935 6.59431C41.2058 6.60896 42.0196 7.17659 42.3479 8.03359L44.7015 13.8675H44.7052C44.9861 14.5889 45.4605 15.2188 46.0772 15.6876L50.0292 18.7638C50.759 19.3168 51.0837 20.258 50.8502 21.1442L49.3395 27.2528C49.1461 28.0035 49.1607 28.7945 49.3833 29.5343L50.7772 34.3537H50.7809C51.0509 35.2326 50.7626 36.1848 50.0511 36.7634L45.249 40.8138C44.6542 41.3082 44.2017 41.9564 43.9499 42.6888L42.2568 47.4094V47.4131C41.9612 48.281 41.1693 48.8816 40.2572 48.9329L33.9991 49.376C33.2255 49.4237 32.4811 49.6837 31.8498 50.1268L27.7154 52.943ZM49.9491 67.888L42.9028 63.8046V63.8083C42.6656 63.6691 42.381 63.6325 42.1147 63.7021C41.8483 63.7754 41.622 63.9475 41.4834 64.1892L37.4147 71.2609L32.3498 52.2977L33.0176 51.8436C33.3496 51.6092 33.7401 51.4737 34.1451 51.4517L40.4032 51.0086L40.4068 51.0049C42.1365 50.8987 43.6362 49.7598 44.2127 48.1155L44.4718 47.3867L49.9491 67.888ZM38.0938 19.2541C36.6306 17.7893 34.2623 17.7893 32.7991 19.2541L23.8808 28.2082L20.2026 24.5167C18.7394 23.0519 16.3711 23.0519 14.9078 24.5167C13.4482 25.9853 13.4482 28.3621 14.9078 29.8306L21.2316 36.1771V36.1808C22.6948 37.642 25.0631 37.642 26.5263 36.1808L38.0939 24.5715C39.5535 23.103 39.5534 20.7227 38.0938 19.2541ZM36.6269 23.0995L25.0594 34.705C24.4062 35.3569 23.3516 35.3569 22.6985 34.705L16.3747 28.3585C15.7362 27.703 15.7435 26.6519 16.3893 26.0037C17.0352 25.3555 18.0825 25.3519 18.7356 25.9891L23.1474 30.4167H23.1437C23.5524 30.8232 24.2092 30.8232 24.6143 30.4167L34.2659 20.7303C34.9227 20.1003 35.959 20.1113 36.5976 20.7559C37.2399 21.4004 37.2544 22.4405 36.6268 23.096L36.6269 23.0995Z" fill="#585A60"/>
</svg>
