<svg width="74" height="65" viewBox="0 0 74 65" fill="none" xmlns="http://www.w3.org/2000/svg">
<path d="M4.28205 12.2225C4.54283 11.8365 5.04555 11.7553 5.40372 12.0363C5.7619 12.3174 5.83731 12.8591 5.57652 13.2451L5.51997 13.3297C5.25918 13.7157 4.75646 13.797 4.3983 13.516C4.04011 13.2349 3.9647 12.6932 4.22549 12.3072L4.28205 12.2225ZM53.9637 14.3591C59.7607 15.9911 64.7726 19.2688 68.3287 23.5889C71.8886 27.9128 74 33.2798 74 39.1004C74 42.4796 73.2836 45.7166 71.986 48.683C70.7292 51.5544 68.9194 54.1751 66.6791 56.4369C67.3326 57.7541 68.1684 58.9561 69.1456 59.9956C70.261 61.1807 71.5712 62.1627 73.0134 62.8838C73.4156 63.0836 73.5915 63.5983 73.4061 64.0317C73.2993 64.2788 73.0982 64.4481 72.8689 64.5091C70.4904 65.1423 68.0427 65.149 65.7239 64.587C63.5591 64.0621 61.5011 63.0395 59.707 61.5667C57.6615 62.6366 55.4527 63.4831 53.1276 64.0655C50.7051 64.675 48.1569 65 45.5303 65C40.8172 65 36.3622 63.9538 32.441 62.105C28.3627 60.1817 24.8593 57.3816 22.2297 53.9888C21.947 53.6231 21.9941 53.078 22.3334 52.7733C22.6728 52.4686 23.1787 52.5193 23.4614 52.885C25.9279 56.0746 29.2301 58.7055 33.079 60.5204C36.796 62.2743 41.0314 63.2665 45.528 63.2665C48.0385 63.2665 50.4641 62.9583 52.7609 62.3828C55.1394 61.7868 57.3828 60.9031 59.4408 59.7789C59.7142 59.63 60.0535 59.6604 60.308 59.8805C62.0047 61.3738 63.9841 62.3997 66.0736 62.9042C67.4435 63.236 68.8669 63.3444 70.287 63.2191C69.4701 62.6333 68.7129 61.9697 68.0185 61.2315C66.7711 59.9076 65.7343 58.3501 64.9645 56.6198C64.8168 56.2846 64.8828 55.8648 65.153 55.604C67.4404 53.3997 69.2816 50.806 70.5321 47.9517C71.7292 45.2193 72.389 42.2328 72.389 39.1076C72.389 33.7273 70.4316 28.7536 67.1293 24.7446C64.0784 21.0404 59.8776 18.1453 54.998 16.4896C56.2517 19.4083 56.9367 22.5809 56.9367 25.9023C56.9367 33.0805 53.7287 39.5745 48.5441 44.2648C43.4006 48.9206 36.2994 51.7986 28.4666 51.7986C25.8431 51.7986 23.2917 51.4736 20.8693 50.8641C18.5473 50.2817 16.3385 49.4353 14.293 48.3619C12.4989 49.8382 10.4409 50.8574 8.27606 51.3856C5.95414 51.9477 3.50963 51.9409 1.13115 51.3077C0.901785 51.2468 0.700696 51.0775 0.59387 50.8303C0.408491 50.3969 0.584444 49.8822 0.98662 49.6825C2.43196 48.9612 3.73904 47.9794 4.85443 46.7942C5.83156 45.7548 6.66736 44.5561 7.3209 43.2355C5.08062 40.9737 3.27082 38.353 2.01402 35.4817C0.71322 32.5155 0 29.282 0 25.8991C0 24.1113 0.204233 22.354 0.587556 20.6542L0.596982 20.6135C0.996014 18.863 1.58988 17.1733 2.35337 15.5752C2.55446 15.1519 3.04147 14.986 3.43426 15.2027C3.82701 15.4194 3.98097 15.9443 3.77988 16.3676C3.06979 17.8506 2.51994 19.4115 2.15235 21.0267L2.14293 21.0639C1.79417 22.6181 1.60879 24.2366 1.60879 25.8991C1.60879 29.0244 2.26861 32.0108 3.46572 34.7431C4.71624 37.6009 6.55427 40.1946 8.84483 42.3954C9.11504 42.6562 9.18417 43.0726 9.03335 43.4113C8.26356 45.1381 7.2267 46.6991 5.98244 48.023C5.28806 48.7611 4.52769 49.4281 3.71392 50.0106C5.13409 50.1358 6.55747 50.0275 7.92737 49.6957C10.0168 49.1878 11.9963 48.1652 13.693 46.672C13.9443 46.4519 14.2868 46.4248 14.5601 46.5704C16.6182 47.6945 18.8647 48.5783 21.2401 49.1742C23.5369 49.7498 25.9625 50.0579 28.473 50.0579C35.9195 50.0579 42.6529 47.3322 47.52 42.9304C52.3462 38.5624 55.3342 32.539 55.3342 25.8958C55.3342 19.2525 52.3493 13.2291 47.52 8.86123C42.6531 4.45948 35.9197 1.7337 28.473 1.7337C24.3757 1.7337 20.4922 2.55989 17.0206 4.03275C13.4229 5.55981 10.2622 7.78777 7.75443 10.5169C7.44337 10.8555 6.93439 10.8555 6.62013 10.5203C6.30587 10.1851 6.30594 9.6366 6.61699 9.29794C9.27827 6.39949 12.6277 4.03613 16.4357 2.421C20.093 0.866811 24.1745 0 28.4729 0C36.3059 0 43.4065 2.88145 48.5503 7.5338C50.7403 9.51464 52.5784 11.8204 53.9703 14.3599L53.9637 14.3591ZM45.3008 21.6491C46.388 21.6491 47.3745 22.1232 48.0878 22.8918C48.801 23.6604 49.2409 24.7202 49.2409 25.8917C49.2409 27.0633 48.801 28.1231 48.0878 28.8917C47.3745 29.6603 46.3879 30.1343 45.3008 30.1343C44.2137 30.1343 43.2303 29.6603 42.5171 28.8917C41.8038 28.123 41.3639 27.0598 41.3639 25.8917C41.3639 24.7201 41.8038 23.6604 42.5171 22.8918C43.2303 22.1232 44.2169 21.6491 45.3008 21.6491ZM46.9473 24.1175C46.5262 23.6638 45.9418 23.3828 45.3008 23.3828C44.6599 23.3828 44.0755 23.6638 43.6544 24.1175C43.2334 24.5713 42.9726 25.201 42.9726 25.8918C42.9726 26.5826 43.2334 27.2123 43.6544 27.6661C44.0754 28.1198 44.6599 28.4008 45.3008 28.4008C45.945 28.4008 46.5262 28.1198 46.9473 27.6661C47.3683 27.2124 47.6291 26.5826 47.6291 25.8918C47.6291 25.201 47.3683 24.5713 46.9473 24.1175ZM28.4632 21.6491C29.5504 21.6491 30.5338 22.1232 31.247 22.8918C31.9603 23.6604 32.4001 24.7202 32.4001 25.8917C32.4001 27.0633 31.9603 28.1231 31.247 28.8917C30.5338 29.6603 29.5472 30.1343 28.4632 30.1343C27.3761 30.1343 26.3927 29.6603 25.6795 28.8917C24.9662 28.123 24.5263 27.0598 24.5263 25.8917C24.5263 24.7201 24.9662 23.6604 25.6795 22.8918C26.3927 22.1232 27.3762 21.6491 28.4632 21.6491ZM30.1097 24.1175C29.6886 23.6638 29.1042 23.3828 28.4632 23.3828C27.8222 23.3828 27.2379 23.6638 26.8168 24.1175C26.3958 24.5713 26.135 25.201 26.135 25.8918C26.135 26.5826 26.3958 27.2123 26.8168 27.6661C27.2378 28.1198 27.8222 28.4008 28.4632 28.4008C29.1042 28.4008 29.6886 28.1198 30.1097 27.6661C30.5307 27.2124 30.7915 26.5826 30.7915 25.8918C30.7915 25.201 30.5307 24.5713 30.1097 24.1175ZM11.628 21.6491C12.7152 21.6491 13.6986 22.1232 14.4118 22.8918C15.125 23.6604 15.565 24.7202 15.565 25.8917C15.565 27.0633 15.1251 28.1231 14.4118 28.8917C13.6986 29.6603 12.712 30.1343 11.628 30.1343C10.5409 30.1343 9.55434 29.6603 8.84112 28.8917C8.12788 28.123 7.688 27.0632 7.688 25.8917C7.688 24.7201 8.12788 23.6604 8.84112 22.8918C9.55436 22.1232 10.541 21.6491 11.628 21.6491ZM13.2745 24.1175C12.8534 23.6638 12.269 23.3828 11.628 23.3828C10.9839 23.3828 10.4027 23.6638 9.98161 24.1175C9.56058 24.5713 9.2998 25.201 9.2998 25.8918C9.2998 26.5826 9.56058 27.2123 9.98161 27.6661C10.4026 28.1198 10.9871 28.4008 11.628 28.4008C12.269 28.4008 12.8534 28.1198 13.2745 27.6661C13.6955 27.2124 13.9563 26.5826 13.9563 25.8918C13.9563 25.201 13.6955 24.5713 13.2745 24.1175Z" fill="#585A60"/>
</svg>
