<svg width="67" height="76" viewBox="0 0 67 76" fill="none" xmlns="http://www.w3.org/2000/svg">
<path d="M24.0335 23.0849C26.2894 23.0854 28.4948 22.4089 30.3708 21.1409C32.2468 19.873 33.7092 18.0706 34.5729 15.9617C35.4366 13.8527 35.6629 11.532 35.2232 9.29287C34.7836 7.05376 33.6976 4.99688 32.1027 3.38232C30.5079 1.76776 28.4757 0.668039 26.2632 0.222232C24.0506 -0.223576 21.7572 0.00454948 19.6728 0.877759C17.5884 1.75097 15.8067 3.23004 14.553 5.12794C13.2993 7.02585 12.6299 9.25733 12.6294 11.5402C12.6321 14.6005 13.8343 17.5347 15.9723 19.699C18.1102 21.8634 21.0093 23.0811 24.0335 23.0849ZM24.0335 2.23257C25.8533 2.23235 27.6324 2.77824 29.1457 3.80122C30.6589 4.82419 31.8385 6.2783 32.535 7.97965C33.2316 9.68099 33.414 11.5532 33.0591 13.3594C32.7042 15.1656 31.828 16.8248 30.5412 18.1271C29.2544 19.4294 27.6149 20.3163 25.8301 20.6757C24.0452 21.035 22.1951 20.8507 20.5137 20.146C18.8324 19.4413 17.3953 18.2479 16.3842 16.7167C15.3731 15.1854 14.8334 13.3852 14.8334 11.5436C14.8358 9.07478 15.8057 6.7077 17.5304 4.96155C19.2551 3.21541 21.5938 2.23277 24.0335 2.22918V2.23257ZM66.1672 42.0189C66.8483 41.0315 67.1272 39.8166 66.9461 38.6265C66.765 37.4365 66.1378 36.3628 65.1948 35.6285L63.079 33.9766C62.8088 33.7755 62.5852 33.5171 62.4238 33.2195C62.2624 32.9219 62.167 32.5923 62.1444 32.2536L61.9692 30.2877C61.8685 29.0868 61.3124 27.9719 60.4174 27.1768C59.5224 26.3817 58.3579 25.968 57.1682 26.0225L54.5019 26.1355C54.1667 26.1553 53.8313 26.1018 53.5184 25.9785C53.2055 25.8553 52.9225 25.6653 52.6887 25.4215L51.3054 24.0318C50.4638 23.1809 49.3303 22.6912 48.1409 22.6647C46.9515 22.6382 45.7979 23.0768 44.92 23.8894L42.9438 25.7107C42.6997 25.9434 42.4092 26.1203 42.0918 26.2297C41.7744 26.339 41.4375 26.3782 41.1038 26.3445L39.1588 26.1762C38.0024 26.0793 36.8522 26.4256 35.9363 27.1466C35.0204 27.8675 34.4056 28.9104 34.2138 30.0685C30.728 28.4307 26.9064 27.6583 23.0664 27.8154C19.2263 27.9724 15.4787 29.0544 12.1349 30.9715C8.79113 32.8886 5.94764 35.5854 3.84069 38.838C1.73373 42.0905 0.424133 45.8048 0.0206774 49.6724C-0.035004 50.2125 0.0220768 50.7584 0.188222 51.2748C0.354367 51.7912 0.625868 52.2664 0.985132 52.6698C1.3444 53.0732 1.78341 53.3957 2.27371 53.6165C2.76402 53.8372 3.29469 53.9512 3.83133 53.9511H34.2518V69.326C34.2518 69.5338 34.3092 69.7374 34.4175 69.9139C34.5258 70.0905 34.6807 70.2329 34.8647 70.3251C35.0487 70.4173 35.2545 70.4557 35.4589 70.4358C35.6633 70.416 35.8581 70.3388 36.0214 70.2129L40.1972 66.994L44.5795 70.2265C44.7684 70.3655 44.9958 70.4406 45.2293 70.4412C45.4029 70.4416 45.5741 70.3998 45.7284 70.3192C45.9097 70.2261 46.062 70.084 46.1684 69.9087C46.2749 69.7335 46.3312 69.5317 46.3313 69.326V59.5789L47.526 59.0817C47.8335 58.9451 48.1667 58.878 48.5025 58.8853C48.8382 58.8925 49.1684 58.9738 49.4698 59.1235L49.9097 59.3303V74.8837C49.91 75.1005 49.9724 75.3126 50.0896 75.4941C50.2067 75.6757 50.3735 75.8188 50.5696 75.9062C50.7105 75.9682 50.8625 76.0002 51.0162 76C51.2932 76.0005 51.5601 75.8947 51.7631 75.704L55.8641 71.8795L60.1671 75.7209C60.3262 75.863 60.5225 75.9555 60.7323 75.9875C60.9421 76.0194 61.1566 75.9894 61.3499 75.901C61.5433 75.8125 61.7073 75.6695 61.8223 75.4891C61.9373 75.3086 61.9984 75.0984 61.9982 74.8837V53.7037C63.13 53.3778 64.0961 52.627 64.6994 51.6046C65.3026 50.5822 65.4974 49.3653 65.2439 48.2025L64.6722 45.5688C64.5932 45.2384 64.5861 44.8946 64.6515 44.5612C64.7169 44.2278 64.8531 43.9128 65.0507 43.6379L66.1672 42.0189ZM31.6994 46.2863L31.1981 48.1923C30.8844 49.3838 31.0498 50.6525 31.6581 51.7208H3.83133C3.60344 51.7206 3.37813 51.672 3.16998 51.5782C2.96183 51.4843 2.77547 51.3472 2.62297 51.1759C2.47047 51.0045 2.35522 50.8027 2.28469 50.5834C2.21415 50.3641 2.1899 50.1323 2.2135 49.9029C2.58332 46.3303 3.80475 42.9019 5.77284 39.9124C7.74092 36.9229 10.3968 34.4616 13.5123 32.74C16.6279 31.0184 20.1099 30.088 23.6591 30.0286C27.2084 29.9693 30.7189 30.7828 33.8889 32.3994L33.823 32.8999C33.7862 33.2374 33.6772 33.5628 33.5037 33.8535C33.3302 34.1442 33.0963 34.3933 32.8182 34.5834L31.2227 35.7132C30.2493 36.4057 29.577 37.451 29.3454 38.632C29.1138 39.813 29.3406 41.0389 29.9789 42.055L31.4069 44.3373C31.5926 44.6212 31.7149 44.9426 31.7654 45.2792C31.816 45.6157 31.7934 45.9594 31.6994 46.2863ZM44.1307 67.1319L40.837 64.7016C40.6453 64.5602 40.4137 64.4851 40.1766 64.4876C39.9394 64.49 39.7094 64.5698 39.5206 64.7151L36.4558 67.0742V54.5646L36.8153 54.6776C37.1377 54.7733 37.4356 54.9391 37.6882 55.1633C37.9409 55.3875 38.1421 55.6648 38.2779 55.9758L39.1053 57.7621C39.5339 58.7031 40.2615 59.4719 41.172 59.946C42.0826 60.42 43.1237 60.572 44.1295 60.3777L44.1307 67.1319ZM59.7942 72.4128L56.5775 69.5418C56.3733 69.3587 56.1091 69.2589 55.8363 69.2621C55.5634 69.2652 55.3015 69.371 55.1015 69.5588L52.1193 72.3393V60.2568C53.1209 60.4993 54.1738 60.3965 55.1111 59.9646C56.0484 59.5327 56.8164 58.7965 57.2932 57.8728L58.5325 55.4775C58.7957 54.9522 59.2469 54.5481 59.7942 54.3477V72.4128ZM64.3585 40.7421L63.242 42.3612C62.8714 42.8887 62.6154 43.4897 62.4907 44.1245C62.366 44.7593 62.3755 45.4136 62.5185 46.0445L63.0912 48.6838C63.2255 49.3 63.1199 49.9448 62.7963 50.4841C62.4727 51.0235 61.9561 51.4159 61.354 51.5796L59.4715 52.0948C58.8523 52.2568 58.2742 52.5501 57.7755 52.9552C57.2768 53.3604 56.8688 53.8681 56.5786 54.4449L55.3393 56.8401C55.0512 57.3994 54.5609 57.8247 53.9707 58.0274C53.3804 58.2301 52.7357 58.1945 52.1707 57.9282L50.401 57.0932C49.8236 56.8149 49.1945 56.6637 48.5551 56.6497C47.9157 56.6357 47.2807 56.7591 46.6919 57.0119L44.2211 58.0389C43.645 58.2797 42.9993 58.2866 42.4183 58.0581C41.8373 57.8295 41.3657 57.3832 41.1016 56.8119L40.2731 55.0267C40.0076 54.4374 39.6215 53.9118 39.1403 53.4847C38.6591 53.0575 38.0939 52.7386 37.4818 52.549L34.9384 51.7321C34.3439 51.5418 33.8448 51.1268 33.5449 50.5736C33.245 50.0203 33.1675 49.3714 33.3284 48.7618L33.8286 46.8535C33.9989 46.2299 34.0366 45.5769 33.9392 44.9375C33.8419 44.2981 33.6116 43.6869 33.2637 43.1442L31.8357 40.8596C31.5042 40.3276 31.3877 39.6869 31.5101 39.0703C31.6325 38.4536 31.9845 37.9082 32.4933 37.5469L34.0865 36.4114C34.614 36.0446 35.0585 35.5688 35.3907 35.0152C35.7229 34.4617 35.9352 33.8432 36.0136 33.2004L36.3676 30.5238C36.4454 29.9345 36.7318 29.3938 37.1736 29.002C37.6155 28.6101 38.1828 28.3937 38.7703 28.393C38.8384 28.393 38.9087 28.393 38.978 28.402L40.924 28.5692C41.5602 28.6304 42.2019 28.5545 42.807 28.3465C43.412 28.1386 43.9667 27.8032 44.4344 27.3625L46.4095 25.5424C46.8691 25.1146 47.4745 24.8834 48.0988 24.8971C48.7232 24.9107 49.3181 25.1683 49.759 25.6158L51.1424 27.0078C51.5898 27.4713 52.1303 27.8322 52.7274 28.0661C53.3245 28.3 53.9643 28.4015 54.6035 28.3636L57.2709 28.2506C57.8922 28.2295 58.4981 28.4488 58.9654 28.8637C59.4327 29.2787 59.7263 29.8581 59.7864 30.4843L59.9606 32.4502C60.0118 33.0952 60.1975 33.7219 60.5054 34.289C60.8133 34.8561 61.2365 35.3507 61.747 35.7403L63.8683 37.3921C64.3599 37.7797 64.6851 38.344 64.7764 38.9678C64.8676 39.5916 64.718 40.227 64.3585 40.7421ZM48.1244 28.3511C45.5424 28.3525 43.0187 29.1285 40.8725 30.5811C38.7262 32.0337 37.0538 34.0977 36.0666 36.5121C35.0794 38.9264 34.8218 41.5828 35.3263 44.1453C35.8309 46.7078 37.0749 49.0614 38.9012 50.9085C40.7274 52.7556 43.0539 54.0133 45.5864 54.5225C48.1189 55.0318 50.7438 54.7697 53.1292 53.7695C55.5145 52.7693 57.5533 51.0758 58.9877 48.9032C60.422 46.7306 61.1876 44.1764 61.1876 41.5635C61.1838 38.0594 59.806 34.7 57.3568 32.2229C54.9076 29.7457 51.5872 28.3532 48.1244 28.3511ZM48.1244 52.5445C45.9782 52.5445 43.8802 51.9004 42.0957 50.6938C40.3112 49.4872 38.9204 47.7723 38.0991 45.7658C37.2778 43.7592 37.0629 41.5513 37.4816 39.4213C37.9003 37.2912 38.9338 35.3345 40.4514 33.7988C41.9689 32.2631 43.9025 31.2173 46.0074 30.7936C48.1124 30.3699 50.2942 30.5873 52.2771 31.4185C54.2599 32.2496 55.9546 33.657 57.147 35.4628C58.3394 37.2687 58.9758 39.3917 58.9758 41.5635C58.9728 44.4749 57.8286 47.2662 55.7942 49.3249C53.7598 51.3836 51.0015 52.5415 48.1244 52.5445ZM51.1691 38.3536L49.1058 34.2704C49.0065 34.0882 48.8611 33.9359 48.6846 33.8291C48.508 33.7223 48.3066 33.6648 48.101 33.6625C47.8943 33.6671 47.693 33.7302 47.5199 33.8446C47.3469 33.959 47.2089 34.1202 47.1218 34.3099L45.3745 38.1333L40.9017 38.8587C40.6973 38.8915 40.5062 38.9818 40.3502 39.1195C40.1942 39.2571 40.0796 39.4363 40.0196 39.6368C39.9596 39.8372 39.9566 40.0507 40.0109 40.2527C40.0652 40.4548 40.1747 40.6373 40.3267 40.7794L43.3837 43.6481L42.6814 48.1776C42.6494 48.3843 42.6755 48.596 42.7566 48.7884C42.8377 48.9809 42.9707 49.1464 43.1403 49.2661C43.3099 49.3857 43.5093 49.4548 43.7158 49.4653C43.9223 49.4758 44.1276 49.4274 44.3082 49.3255L47.9413 47.2636L51.9842 49.338C52.1685 49.4327 52.3754 49.473 52.5813 49.4544C52.7872 49.4357 52.9838 49.3588 53.1486 49.2325C53.3133 49.1062 53.4397 48.9355 53.5131 48.74C53.5866 48.5445 53.6043 48.332 53.5641 48.1268L52.7557 43.9949L55.9534 40.7455C56.0993 40.5974 56.2012 40.4108 56.2473 40.2069C56.2934 40.003 56.2819 39.7901 56.2142 39.5925C56.1464 39.3949 56.0251 39.2205 55.8641 39.0894C55.703 38.9582 55.5088 38.8755 55.3036 38.8508L51.1691 38.3536ZM50.7795 42.8448C50.6516 42.9741 50.5572 43.1332 50.5047 43.3082C50.4521 43.4832 50.4429 43.6686 50.478 43.8481L50.9604 46.3156L48.4136 45.0039C48.2525 44.9217 48.0739 44.8807 47.8935 44.8844C47.713 44.8882 47.5363 44.9366 47.3786 45.0254L45.2092 46.2512L45.6558 43.3984C45.6843 43.2179 45.6687 43.0332 45.6103 42.8602C45.5519 42.6873 45.4525 42.5315 45.3209 42.4064L43.4965 40.6969L46.3146 40.2394C46.493 40.2106 46.6617 40.1379 46.8058 40.0275C46.9499 39.9172 47.065 39.7726 47.1408 39.6066L48.1847 37.3232L49.4843 39.8947C49.5664 40.0577 49.6868 40.1977 49.835 40.3023C49.9832 40.407 50.1546 40.473 50.334 40.4947L52.8037 40.793L50.7795 42.8448Z" fill="#585A60"/>
</svg>
