<svg width="72" height="66" viewBox="0 0 72 66" fill="none" xmlns="http://www.w3.org/2000/svg">
<path d="M42.4812 0.857862C39.3884 0.857862 37.2709 1.90188 35.2237 2.9111C33.4011 3.81008 31.6796 4.65881 29.3338 4.65956C26.9874 4.65882 25.266 3.81014 23.4434 2.9111C21.6068 2.00546 19.709 1.07972 17.1066 0.896932C16.7633 0.852275 16.4574 0.838535 16.1942 0.858654H16.186C7.26115 0.858654 0 8.44898 0 17.7792C0 21.9281 1.3756 25.2226 2.70628 28.4097C3.96721 31.4306 5.15889 34.2835 5.30627 37.8826C5.33716 38.6402 5.36478 39.435 5.39309 40.2547C5.75069 50.5548 6.24071 64.6614 15.3352 65.6695C15.4448 65.6811 15.551 65.687 15.6563 65.687H15.657C18.7946 65.6862 20.104 60.881 21.62 55.3178C23.2834 49.2114 25.1697 42.2904 29.2897 42.1541L29.3089 42.1526L29.384 42.1541C33.4996 42.2902 35.3847 49.2111 37.0484 55.3178C38.5632 60.8816 39.8719 65.687 43.0102 65.687H43.0106C43.1155 65.687 43.2229 65.6811 43.3306 65.6688C52.4262 64.6603 52.9156 50.5528 53.2733 40.2528C53.3016 39.4327 53.329 38.639 53.3601 37.8818C53.5075 34.2826 54.699 31.4297 55.9601 28.4096C57.2908 25.2233 58.6671 21.9279 58.6671 17.7791C58.6671 8.44825 51.4066 0.857918 42.4817 0.857918L42.4812 0.857862ZM54.0655 27.5446C52.7837 30.6136 51.4594 33.7872 51.2947 37.7888C51.2635 38.5509 51.2362 39.3493 51.2071 40.1742C50.8769 49.6841 50.425 62.7091 43.1126 63.5193C43.0782 63.523 43.0438 63.525 43.0106 63.525C41.434 63.525 40.1604 58.8496 39.0366 54.7255C37.1794 47.9072 35.0741 40.1799 29.4288 39.9927L29.3087 39.9912L29.2191 39.9934C23.5938 40.1792 21.4888 47.9073 19.631 54.7244C18.5063 58.8502 17.233 63.5251 15.6561 63.5257C15.6231 63.5257 15.5887 63.5235 15.5548 63.5201C8.24328 62.7097 7.79096 49.6855 7.46145 40.1762C7.43243 39.3508 7.40481 38.5517 7.37393 37.7896C7.20987 33.7885 5.88461 30.6145 4.60283 27.5454C3.29977 24.4246 2.06903 21.4774 2.06903 17.7792C2.06903 9.64118 8.40277 3.02006 16.1869 3.02006C16.5438 3.02006 16.8836 3.03969 17.2129 3.0706C20.6056 3.66635 29.301 7.97517 34.5126 10.8563C34.6671 10.9412 34.8319 10.9817 34.995 10.9817C35.3659 10.9817 35.7249 10.7719 35.9102 10.406C36.177 9.87777 35.9839 9.2244 35.4796 8.94488C34.995 8.67768 33.3502 7.77499 31.1939 6.66546C33.0863 6.35066 34.6175 5.60153 36.1066 4.86668C38.0326 3.91713 39.8526 3.0201 42.4823 3.0201C50.2664 3.0201 56.6002 9.6406 56.6002 17.7793C56.5995 21.4764 55.3687 24.4243 54.0654 27.5442L54.0655 27.5446Z" fill="#585A60"/>
<path d="M71.1634 49.9218L61.8952 32.4541C64.7653 30.4081 66.8463 27.409 67.814 23.8714C68.9115 19.8582 68.4482 15.6359 66.5088 11.9827C64.5702 8.32757 61.3883 5.67944 57.5492 4.52556C53.7096 3.37112 49.6722 3.84862 46.1806 5.87139C38.9752 10.0428 36.3679 19.5734 40.3693 27.1192C42.3087 30.7726 45.4912 33.4218 49.3307 34.5757C52.7144 35.593 56.2516 35.3388 59.434 33.8794L68.7022 51.347L71.1634 49.9218ZM42.8305 25.6942C39.5827 19.5704 41.6988 11.8339 47.5475 8.44761C50.3809 6.80687 53.6578 6.41818 56.7755 7.35548C59.8914 8.29202 62.474 10.4424 64.0481 13.4083C65.6212 16.3728 65.9982 19.8008 65.107 23.0583C64.2161 26.316 62.1642 29.0133 59.3313 30.6555C56.4982 32.2953 53.2211 32.684 50.1045 31.7469C46.9878 30.8099 44.4048 28.6605 42.8302 25.6946L42.8305 25.6942Z" fill="#585A60"/>
</svg>
