<svg width="71" height="76" viewBox="0 0 71 76" fill="none" xmlns="http://www.w3.org/2000/svg">
<path fill-rule="evenodd" clip-rule="evenodd" d="M46.6616 14.983C47.1219 15.0995 47.5558 15.2853 47.9507 15.5285L49.2895 14.3556L50.7235 15.8671L49.5453 17.1566C49.7838 17.5602 49.9659 18.0027 50.0794 18.4714L51.8388 18.6073L51.8048 20.71L50.0777 20.7725C49.9635 21.242 49.7813 21.6836 49.5429 22.0864L50.6929 23.4519L49.2108 24.9145L47.9466 23.7128C47.5508 23.956 47.1178 24.1418 46.6575 24.2575L46.5242 26.052L44.4626 26.0173L44.4013 24.2567C43.9409 24.1401 43.5079 23.9544 43.113 23.7112L41.7742 24.8841L40.3402 23.3725L41.5184 22.0831C41.2799 21.6794 41.0978 21.2378 40.9843 20.7683L39.2249 20.6323L39.2589 18.5296L40.9852 18.4672C41.0994 17.9976 41.2816 17.5552 41.52 17.1524L40.37 15.7869L41.852 14.3243L43.1163 15.526C43.5121 15.2828 43.9451 15.097 44.4054 14.9813L44.5387 13.1868L46.6003 13.2215L46.6616 14.983ZM33.7406 51.8835V44.9228C32.3157 44.4549 31.2849 43.092 31.2849 41.4833C31.2849 39.4879 32.8713 37.87 34.8277 37.87C36.7841 37.87 38.3705 39.4879 38.3705 41.4833C38.3705 43.092 37.3397 44.4549 35.9148 44.9228V51.8835H33.7406ZM38.8002 51.8835C38.8284 50.8693 38.9252 49.8923 39.1985 48.9263C39.5851 47.5608 40.3079 46.2739 41.6434 45.041C41.8943 44.8096 42.1451 44.5512 42.3968 44.2675C42.6402 43.993 42.8646 43.7118 43.0699 43.4256C43.4243 42.9332 44.1024 42.826 44.5859 43.1874C45.0686 43.5488 45.1738 44.2404 44.8194 44.7336C44.5644 45.0891 44.2945 45.4286 44.0105 45.7486C43.7373 46.0577 43.4318 46.3676 43.0964 46.6784C42.0971 47.6005 41.5614 48.5471 41.2799 49.5419C41.0729 50.2723 40.9934 51.0543 40.9678 51.8835H38.8002ZM40.9338 54.1002C40.9396 54.8762 40.9612 55.6784 40.9612 56.5102C40.9612 58.6999 37.8944 59.6161 34.8269 59.5274C31.7602 59.6161 28.6926 58.6999 28.6926 56.5102C28.6926 55.6784 28.7141 54.8762 28.7199 54.1002H40.9338ZM23.7133 32.0272C25.2102 32.0272 26.4232 33.2644 26.4232 34.7911C26.4232 35.9776 25.6905 36.9892 24.6605 37.381C24.6406 38.7946 24.9238 40.1719 25.4644 41.4411C26.0398 42.7922 26.9075 44.0217 28.0112 45.041C29.3475 46.2739 30.0695 47.5608 30.4561 48.9263C30.7294 49.8923 30.8262 50.8685 30.8544 51.8835H28.6876C28.662 51.0543 28.5825 50.2715 28.3755 49.5419C28.094 48.5471 27.5583 47.6005 26.559 46.6784C25.226 45.4472 24.1761 43.9576 23.4773 42.3168C22.805 40.7377 22.4581 39.0209 22.4954 37.262C21.6103 36.8068 21.0026 35.872 21.0026 34.792C21.0034 33.2652 22.2164 32.0272 23.7133 32.0272ZM46.8454 34.629C46.2178 31.7401 44.7101 29.2668 42.5947 27.5204C40.5041 25.7952 37.8282 24.7828 34.8277 24.7828C33.3647 24.7828 31.9696 25.0285 30.6747 25.4845C29.3351 25.9565 28.1163 26.6515 27.0533 27.5306C26.5888 27.9156 26.5184 28.6115 26.8959 29.0852C27.2735 29.5589 27.9557 29.6307 28.4202 29.2456C29.292 28.5253 30.2881 27.9562 31.3793 27.572C32.4349 27.2004 33.5924 26.9994 34.8277 26.9994C37.3099 26.9994 39.5147 27.8295 41.2278 29.244C42.8936 30.6187 44.1016 32.5466 44.6563 34.8021C43.8085 35.2691 43.2322 36.1836 43.2322 37.2358C43.2322 38.7625 44.4452 39.9996 45.9421 39.9996C47.439 39.9996 48.652 38.7625 48.652 37.2358C48.652 36.0316 47.8977 35.0081 46.8454 34.629ZM54.5114 57.5244C53.1817 57.9964 52.2279 59.2859 52.2279 60.8034C52.2279 62.7211 53.7522 64.2749 55.6316 64.2749C57.5119 64.2749 59.0353 62.7211 59.0353 60.8034C59.0353 59.2859 58.0815 57.9964 56.7518 57.5244V46.1345C56.7518 45.5037 56.2501 44.992 55.6316 44.992H49.6836C49.0651 44.992 48.5634 45.5037 48.5634 46.1345C48.5634 46.7653 49.0651 47.2771 49.6836 47.2771H54.5122L54.5114 57.5244ZM12.9036 57.5244C11.5739 57.9964 10.6201 59.2859 10.6201 60.8034C10.6201 62.7211 12.1444 64.2749 14.0238 64.2749C15.9041 64.2749 17.4275 62.7211 17.4275 60.8034C17.4275 59.2859 16.4737 57.9964 15.144 57.5244V47.2762H19.9726C20.5911 47.2762 21.0928 46.7645 21.0928 46.1337C21.0928 45.5029 20.5911 44.9912 19.9726 44.9912H14.0246C13.4062 44.9912 12.9044 45.5029 12.9044 46.1337L12.9036 57.5244ZM33.7075 69.2495C32.3778 69.7215 31.424 71.011 31.424 72.5285C31.424 74.4454 32.9483 76 34.8277 76C36.708 76 38.2314 74.4462 38.2314 72.5285C38.2314 71.011 37.2776 69.7215 35.9479 69.2495V62.6595C35.9479 62.0287 35.4462 61.5169 34.8277 61.5169C34.2092 61.5169 33.7075 62.0287 33.7075 62.6595V69.2495ZM58.012 39.4871H50.3725C49.8873 40.4784 49.0908 41.284 48.1146 41.7721H58.0111C61.5846 41.7721 64.8318 40.2817 67.1856 37.8818C69.5395 35.481 71 32.1691 71 28.5245C71 24.8799 69.5387 21.568 67.1856 19.1672C64.8318 16.7664 61.5846 15.2768 58.0111 15.2768H57.1732C56.034 12.844 54.2663 10.7751 52.0838 9.28889C49.7598 7.7064 46.9712 6.78342 43.9774 6.78342C43.1544 6.78342 42.338 6.8552 41.5358 6.99369C41.0084 7.08404 40.4884 7.2048 39.9784 7.35258C38.4243 5.19756 36.4107 3.40818 34.0867 2.1356C31.6004 0.772667 28.7613 0 25.7492 0C20.8734 0 16.4588 2.01569 13.2638 5.27524C10.0687 8.53396 8.09155 13.0365 8.09155 18.0095C8.09155 18.6724 8.12881 19.3395 8.20167 20.0074C8.22899 20.2624 8.26294 20.5175 8.30102 20.7708C6.12766 21.231 4.19771 22.3862 2.74797 23.9966C1.04404 25.889 0 28.4071 0 31.1608C0 34.0801 1.16989 36.7333 3.05513 38.6553C4.94038 40.5781 7.54097 41.7713 10.4032 41.7713H20.8917C20.6631 41.0248 20.4951 40.2606 20.3883 39.4862H10.4032C8.15945 39.4862 6.11855 38.5489 4.639 37.0399C3.15863 35.53 2.24043 33.4493 2.24043 31.1608C2.24043 28.9982 3.05845 27.0231 4.3931 25.5411C5.74183 24.0439 7.61548 23.0466 9.70771 22.865V22.8625C9.75822 22.8583 9.80955 22.8507 9.86088 22.8388C10.4628 22.7012 10.8403 22.0915 10.7054 21.4776C10.5829 20.9236 10.4885 20.3494 10.4247 19.7575C10.3634 19.1959 10.332 18.6132 10.332 18.0095C10.332 13.6673 12.0574 9.7356 14.8476 6.88982C17.6378 4.04404 21.4919 2.28422 25.7492 2.28422C28.3863 2.28422 30.8643 2.9564 33.0286 4.14116C35.2798 5.3732 37.1948 7.15836 38.6015 9.3176L38.6023 9.31676C38.8772 9.74151 39.4087 9.93827 39.9014 9.76347C40.543 9.53547 41.212 9.35898 41.9042 9.23991C42.5699 9.12507 43.2629 9.06596 43.9782 9.06596C46.5217 9.06596 48.8822 9.84453 50.8419 11.1788C52.8489 12.5459 54.4427 14.4957 55.3915 16.7918C55.5438 17.2385 55.9603 17.5594 56.4496 17.5594H58.012C60.9669 17.5594 63.6536 18.7931 65.6026 20.7809C67.5516 22.7688 68.7612 25.509 68.7612 28.5228C68.7612 31.5366 67.5516 34.2768 65.6026 36.2647C63.6536 38.2533 60.9669 39.4871 58.012 39.4871ZM45.5687 17.29C44.3069 17.2689 43.2678 18.2949 43.2471 19.5818C43.2264 20.8688 44.2324 21.9285 45.4942 21.9496C46.756 21.9708 47.7951 20.9448 47.8166 19.6578C47.8365 18.3717 46.8305 17.3111 45.5687 17.29Z" fill="#585A60"/>
</svg>
