<svg width="73" height="76" viewBox="0 0 73 76" fill="none" xmlns="http://www.w3.org/2000/svg">
<path d="M32.3518 67.4801H5.33594C4.48515 67.4378 3.68581 67.06 3.11298 66.4295C2.54014 65.799 2.24052 64.9672 2.27971 64.1163V13.506C2.24313 12.6566 2.54393 11.8273 3.11649 11.199C3.68905 10.5706 4.48689 10.1941 5.33594 10.1518H14.6199V11.257C14.6199 12.1568 14.9774 13.0197 15.6136 13.656C16.2499 14.2922 17.1128 14.6496 18.0126 14.6496H36.0904C36.9902 14.6496 37.8531 14.2922 38.4894 13.656C39.1256 13.0197 39.483 12.1568 39.483 11.257V10.1518H48.7767C49.6274 10.1941 50.4268 10.5719 50.9996 11.2024C51.5724 11.8328 51.8721 12.6646 51.8329 13.5156V26.4132C51.8329 26.7153 51.9529 27.005 52.1665 27.2185C52.38 27.4321 52.6697 27.5521 52.9718 27.5521C53.2738 27.5521 53.5635 27.4321 53.7771 27.2185C53.9907 27.005 54.1106 26.7153 54.1106 26.4132V13.506C54.1494 12.0511 53.6097 10.6402 52.6098 9.58261C51.6099 8.52506 50.2314 7.90717 48.7767 7.86443H39.4446V6.75919C39.4446 5.86604 39.0925 5.00889 38.4646 4.37375C37.8366 3.73861 36.9835 3.37671 36.0904 3.36659H31.4292C31.1751 2.40183 30.6088 1.54833 29.8186 0.93931C29.0284 0.330286 28.0588 0 27.0611 0C26.0634 0 25.0938 0.330286 24.3036 0.93931C23.5134 1.54833 22.9471 2.40183 22.693 3.36659H18.0606C17.1608 3.36659 16.2979 3.72402 15.6617 4.36026C15.0254 4.9965 14.668 5.85942 14.668 6.75919V7.87404H5.33594C3.88116 7.91678 2.50269 8.53467 1.50279 9.59222C0.502887 10.6498 -0.0368384 12.0607 0.00195555 13.5156V64.1163C-0.0368384 65.5712 0.502887 66.9821 1.50279 68.0397C2.50269 69.0972 3.88116 69.7151 5.33594 69.7578H32.3518C32.5102 69.7724 32.6698 69.7538 32.8206 69.7032C32.9713 69.6526 33.1099 69.5711 33.2274 69.4639C33.3448 69.3567 33.4387 69.2262 33.5029 69.0807C33.5671 68.9352 33.6003 68.778 33.6003 68.619C33.6003 68.4599 33.5671 68.3027 33.5029 68.1572C33.4387 68.0117 33.3448 67.8812 33.2274 67.774C33.1099 67.6669 32.9713 67.5854 32.8206 67.5348C32.6698 67.4841 32.5102 67.4655 32.3518 67.4801ZM16.9746 6.7688C16.9746 6.6224 17.0034 6.47743 17.0595 6.34217C17.1155 6.20691 17.1976 6.08401 17.3011 5.98049C17.4046 5.87696 17.5275 5.79484 17.6628 5.73882C17.7981 5.68279 17.943 5.65395 18.0894 5.65395H23.7117C23.8615 5.65396 24.0097 5.62431 24.148 5.56672C24.2862 5.50913 24.4116 5.42473 24.5171 5.3184C24.6225 5.21207 24.7058 5.08592 24.7623 4.94721C24.8187 4.80851 24.8471 4.66001 24.8458 4.51027C24.883 3.94297 25.1346 3.41107 25.5496 3.02245C25.9646 2.63382 26.5118 2.41758 27.0803 2.41758C27.6488 2.41758 28.1961 2.63382 28.611 3.02245C29.026 3.41107 29.2776 3.94297 29.3148 4.51027C29.3148 4.81359 29.4353 5.10449 29.6498 5.31898C29.8643 5.53346 30.1552 5.65395 30.4585 5.65395H36.0904C36.2368 5.65395 36.3818 5.68279 36.5171 5.73882C36.6523 5.79484 36.7752 5.87696 36.8787 5.98049C36.9823 6.08401 37.0644 6.20691 37.1204 6.34217C37.1764 6.47743 37.2053 6.6224 37.2053 6.7688V11.257C37.2053 11.5527 37.0878 11.8363 36.8787 12.0454C36.6697 12.2544 36.3861 12.3719 36.0904 12.3719H18.0606C17.9142 12.3719 17.7692 12.3431 17.634 12.287C17.4987 12.231 17.3758 12.1489 17.2723 12.0454C17.1688 11.9418 17.0866 11.8189 17.0306 11.6837C16.9746 11.5484 16.9458 11.4034 16.9458 11.257L16.9746 6.7688Z" fill="#585A60"/>
<path d="M69.7293 34.2848C63.9629 26.5962 58.1387 29.3737 52.9777 31.8533C52.3434 32.1609 51.6995 32.4684 51.0556 32.7567C50.4117 32.4684 49.7774 32.1609 49.1334 31.8533C43.9724 29.3737 38.1099 26.5578 32.3722 34.2848C26.6346 42.0119 32.6702 52.4204 34.6596 55.4285C34.8066 55.6505 34.8988 55.9041 34.9287 56.1686C36.3895 68.7875 38.773 75.1883 41.8581 75.1883C44.6644 75.1883 49.2199 71.344 49.4986 61.0893C49.4874 60.6245 49.6113 60.1665 49.8553 59.7707C50.0992 59.3749 50.4527 59.0584 50.873 58.8596C50.9273 58.8293 50.9885 58.8134 51.0508 58.8134C51.113 58.8134 51.1742 58.8293 51.2286 58.8596C51.6481 59.0594 52.0009 59.3761 52.2447 59.7717C52.4885 60.1672 52.6129 60.6248 52.6029 61.0893V61.1374C52.8816 71.4017 57.4083 75.2364 60.2435 75.2364C63.3862 75.2364 65.712 68.8356 67.1825 56.2262C67.2087 55.9624 67.2977 55.7087 67.442 55.4862C69.4218 52.43 75.4958 42.0215 69.7293 34.2848ZM65.5294 54.1695C65.1889 54.6895 64.975 55.282 64.9047 55.8995C63.5592 67.4997 61.3199 72.9009 60.2339 72.9009C58.8884 72.9009 55.1113 70.085 54.8711 61.0124C54.8745 60.1433 54.6363 59.2904 54.1832 58.5488C53.7301 57.8072 53.0798 57.2061 52.305 56.8125C51.916 56.5997 51.4798 56.4881 51.0364 56.4881C50.593 56.4881 50.1567 56.5997 49.7677 56.8125C48.9932 57.2081 48.344 57.8113 47.8925 58.5547C47.4411 59.2981 47.2052 60.1523 47.2113 61.022C46.971 70.085 43.2036 72.9009 41.8581 72.9009C40.7721 72.9009 38.5327 67.4997 37.1872 55.8995C37.117 55.282 36.903 54.6895 36.5625 54.1695C35.2843 52.257 29.2103 42.3963 34.1694 35.6688C36.4472 32.603 38.6 31.5265 40.8201 31.5265C43.0402 31.5265 45.4525 32.651 48.0762 33.9196C47.0753 34.2403 46.0325 34.4119 44.9816 34.429C44.6795 34.429 44.3898 34.549 44.1763 34.7626C43.9627 34.9762 43.8427 35.2658 43.8427 35.5679C43.8427 35.8699 43.9627 36.1596 44.1763 36.3732C44.3898 36.5868 44.6795 36.7068 44.9816 36.7068C48.1435 36.7068 51.0748 35.294 53.9196 33.9389C59.1286 31.44 63.2421 29.4602 67.8648 35.6688C72.8721 42.3963 66.8461 52.257 65.5294 54.1695Z" fill="#585A60"/>
<path d="M11.4559 18.6758C10.6747 18.6758 9.91095 18.9074 9.26137 19.3415C8.61179 19.7755 8.10551 20.3924 7.80654 21.1142C7.50757 21.836 7.42935 22.6302 7.58176 23.3964C7.73417 24.1627 8.11038 24.8665 8.6628 25.4189C9.21522 25.9713 9.91905 26.3475 10.6853 26.4999C11.4515 26.6524 12.2457 26.5741 12.9675 26.2752C13.6893 25.9762 14.3062 25.4699 14.7402 24.8203C15.1743 24.1708 15.4059 23.4071 15.4059 22.6258C15.4034 21.579 14.9864 20.5757 14.2462 19.8355C13.506 19.0953 12.5027 18.6783 11.4559 18.6758ZM11.4559 24.2981C11.1251 24.2981 10.8018 24.2 10.5268 24.0163C10.2518 23.8325 10.0375 23.5713 9.91091 23.2658C9.78434 22.9602 9.75122 22.624 9.81575 22.2996C9.88027 21.9752 10.0395 21.6772 10.2734 21.4433C10.5073 21.2095 10.8053 21.0502 11.1296 20.9857C11.454 20.9211 11.7903 20.9543 12.0958 21.0808C12.4014 21.2074 12.6626 21.4217 12.8463 21.6967C13.0301 21.9717 13.1282 22.2951 13.1282 22.6258C13.1282 23.0693 12.952 23.4947 12.6384 23.8083C12.3248 24.1219 11.8994 24.2981 11.4559 24.2981Z" fill="#585A60"/>
<path d="M11.4559 29.9014C10.6747 29.9014 9.91095 30.133 9.26137 30.5671C8.61179 31.0011 8.10551 31.618 7.80654 32.3398C7.50757 33.0616 7.42935 33.8558 7.58176 34.622C7.73417 35.3882 8.11038 36.0921 8.6628 36.6445C9.21522 37.1969 9.91905 37.5731 10.6853 37.7255C11.4515 37.8779 12.2457 37.7997 12.9675 37.5008C13.6893 37.2018 14.3062 36.6955 14.7402 36.0459C15.1743 35.3963 15.4059 34.6326 15.4059 33.8514C15.4034 32.8046 14.9864 31.8013 14.2462 31.0611C13.506 30.3209 12.5027 29.9039 11.4559 29.9014ZM11.4559 35.5237C11.1251 35.5237 10.8018 35.4256 10.5268 35.2418C10.2518 35.0581 10.0375 34.7969 9.91091 34.4913C9.78434 34.1858 9.75122 33.8495 9.81575 33.5252C9.88027 33.2008 10.0395 32.9028 10.2734 32.6689C10.5073 32.435 10.8053 32.2758 11.1296 32.2113C11.454 32.1467 11.7903 32.1798 12.0958 32.3064C12.4014 32.433 12.6626 32.6473 12.8463 32.9223C13.0301 33.1973 13.1282 33.5207 13.1282 33.8514C13.1307 34.0726 13.0893 34.2921 13.0064 34.4973C12.9235 34.7024 12.8008 34.889 12.6452 35.0463C12.4897 35.2036 12.3045 35.3285 12.1003 35.4138C11.8962 35.499 11.6771 35.5429 11.4559 35.5429V35.5237Z" fill="#585A60"/>
<path d="M11.4559 41.165C10.6747 41.165 9.91095 41.3967 9.26137 41.8307C8.61179 42.2648 8.10551 42.8817 7.80654 43.6035C7.50757 44.3252 7.42935 45.1194 7.58176 45.8857C7.73417 46.6519 8.11038 47.3557 8.6628 47.9082C9.21522 48.4606 9.91905 48.8368 10.6853 48.9892C11.4515 49.1416 12.2457 49.0634 12.9675 48.7644C13.6893 48.4654 14.3062 47.9592 14.7402 47.3096C15.1743 46.66 15.4059 45.8963 15.4059 45.1151C15.4034 44.0682 14.9864 43.065 14.2462 42.3248C13.506 41.5846 12.5027 41.1676 11.4559 41.165ZM11.4559 46.7873C11.1251 46.7873 10.8018 46.6893 10.5268 46.5055C10.2518 46.3218 10.0375 46.0606 9.91091 45.755C9.78434 45.4495 9.75122 45.1132 9.81575 44.7888C9.88027 44.4644 10.0395 44.1665 10.2734 43.9326C10.5073 43.6987 10.8053 43.5394 11.1296 43.4749C11.454 43.4104 11.7903 43.4435 12.0958 43.5701C12.4014 43.6967 12.6626 43.911 12.8463 44.186C13.0301 44.461 13.1282 44.7843 13.1282 45.1151C13.1294 45.3355 13.0871 45.554 13.0036 45.758C12.9202 45.962 12.7972 46.1475 12.6418 46.3038C12.4864 46.4601 12.3016 46.5841 12.0981 46.6687C11.8946 46.7534 11.6763 46.797 11.4559 46.797V46.7873Z" fill="#585A60"/>
<path d="M11.4559 52.4199C10.6747 52.4199 9.91095 52.6516 9.26137 53.0856C8.61179 53.5197 8.10551 54.1366 7.80654 54.8583C7.50757 55.5801 7.42935 56.3743 7.58176 57.1406C7.73417 57.9068 8.11038 58.6106 8.6628 59.163C9.21522 59.7155 9.91905 60.0917 10.6853 60.2441C11.4515 60.3965 12.2457 60.3183 12.9675 60.0193C13.6893 59.7203 14.3062 59.2141 14.7402 58.5645C15.1743 57.9149 15.4059 57.1512 15.4059 56.37C15.4059 55.3223 14.9898 54.3176 14.249 53.5769C13.5082 52.8361 12.5035 52.4199 11.4559 52.4199ZM11.4559 58.0422C11.1251 58.0422 10.8018 57.9441 10.5268 57.7604C10.2518 57.5766 10.0375 57.3155 9.91091 57.0099C9.78434 56.7043 9.75122 56.3681 9.81575 56.0437C9.88027 55.7193 10.0395 55.4213 10.2734 55.1875C10.5073 54.9536 10.8053 54.7943 11.1296 54.7298C11.454 54.6653 11.7903 54.6984 12.0958 54.825C12.4014 54.9515 12.6626 55.1659 12.8463 55.4409C13.0301 55.7159 13.1282 56.0392 13.1282 56.37C13.1282 56.8135 12.952 57.2388 12.6384 57.5524C12.3248 57.866 11.8994 58.0422 11.4559 58.0422Z" fill="#585A60"/>
<path d="M20.4042 23.7699H25.9592C26.2432 23.7438 26.5072 23.6125 26.6994 23.4019C26.8916 23.1912 26.9982 22.9163 26.9982 22.6311C26.9982 22.3459 26.8916 22.071 26.6994 21.8603C26.5072 21.6496 26.2432 21.5183 25.9592 21.4922H20.4042C20.1202 21.5183 19.8562 21.6496 19.664 21.8603C19.4718 22.071 19.3652 22.3459 19.3652 22.6311C19.3652 22.9163 19.4718 23.1912 19.664 23.4019C19.8562 23.6125 20.1202 23.7438 20.4042 23.7699Z" fill="#585A60"/>
<path d="M31.6976 21.4921C31.5393 21.4775 31.3796 21.4962 31.2289 21.5468C31.0781 21.5974 30.9396 21.6789 30.8221 21.7861C30.7046 21.8932 30.6108 22.0237 30.5466 22.1692C30.4824 22.3147 30.4492 22.472 30.4492 22.631C30.4492 22.79 30.4824 22.9473 30.5466 23.0928C30.6108 23.2382 30.7046 23.3687 30.8221 23.4759C30.9396 23.5831 31.0781 23.6646 31.2289 23.7152C31.3796 23.7658 31.5393 23.7844 31.6976 23.7699H45.4699C45.7539 23.7437 46.0179 23.6125 46.2101 23.4018C46.4023 23.1911 46.5088 22.9162 46.5088 22.631C46.5088 22.3458 46.4023 22.0709 46.2101 21.8602C46.0179 21.6495 45.7539 21.5182 45.4699 21.4921H31.6976Z" fill="#585A60"/>
<path d="M27.6123 32.7373H20.4042C20.1202 32.7634 19.8562 32.8947 19.664 33.1054C19.4718 33.3161 19.3652 33.591 19.3652 33.8762C19.3652 34.1614 19.4718 34.4363 19.664 34.647C19.8562 34.8577 20.1202 34.9889 20.4042 35.0151H27.6123C27.8963 34.9889 28.1603 34.8577 28.3525 34.647C28.5447 34.4363 28.6512 34.1614 28.6512 33.8762C28.6512 33.591 28.5447 33.3161 28.3525 33.1054C28.1603 32.8947 27.8963 32.7634 27.6123 32.7373Z" fill="#585A60"/>
<path d="M20.4042 46.2396H25.6228C25.7812 46.2542 25.9408 46.2355 26.0916 46.1849C26.2423 46.1343 26.3809 46.0528 26.4984 45.9456C26.6158 45.8385 26.7097 45.708 26.7739 45.5625C26.8381 45.417 26.8713 45.2597 26.8713 45.1007C26.8713 44.9417 26.8381 44.7844 26.7739 44.6389C26.7097 44.4935 26.6158 44.363 26.4984 44.2558C26.3809 44.1486 26.2423 44.0671 26.0916 44.0165C25.9408 43.9659 25.7812 43.9473 25.6228 43.9618H20.4042C20.1202 43.988 19.8562 44.1192 19.664 44.3299C19.4718 44.5406 19.3652 44.8155 19.3652 45.1007C19.3652 45.3859 19.4718 45.6608 19.664 45.8715C19.8562 46.0822 20.1202 46.2135 20.4042 46.2396Z" fill="#585A60"/>
<path d="M20.4042 57.5141H30.1783C30.4623 57.488 30.7263 57.3567 30.9185 57.146C31.1107 56.9353 31.2173 56.6604 31.2173 56.3752C31.2173 56.09 31.1107 55.8151 30.9185 55.6044C30.7263 55.3937 30.4623 55.2624 30.1783 55.2363H20.4042C20.1202 55.2624 19.8562 55.3937 19.664 55.6044C19.4718 55.8151 19.3652 56.09 19.3652 56.3752C19.3652 56.6604 19.4718 56.9353 19.664 57.146C19.8562 57.3567 20.1202 57.488 20.4042 57.5141Z" fill="#585A60"/>
</svg>
