<svg width="94" height="19" viewBox="0 0 94 19" fill="none" xmlns="http://www.w3.org/2000/svg">
<g clip-path="url(#clip0_4001_97)">
<path fill-rule="evenodd" clip-rule="evenodd" d="M18.6808 9.29756C18.6808 4.16238 14.4987 0 9.33965 0C4.18058 0 -0.00146484 4.16265 -0.00146484 9.29756C-0.00146484 14.4325 4.18072 18.5958 9.33965 18.5958C14.4986 18.5958 18.6808 14.4329 18.6808 9.29756Z" fill="#FC3F1D"/>
<path fill-rule="evenodd" clip-rule="evenodd" d="M10.5855 5.26871H9.72924C8.13356 5.26871 7.31607 6.08219 7.31607 7.24477C7.31607 8.56203 7.89987 9.18176 9.06768 9.9951L10.0407 10.654L7.23844 14.838H5.13672L7.66644 11.1186C6.22616 10.0728 5.40906 9.06534 5.40906 7.39945C5.40906 5.26871 6.88806 3.83517 9.72924 3.83517H12.5315V14.8769H10.5855V5.26871Z" fill="white"/>
<path fill-rule="evenodd" clip-rule="evenodd" d="M29.5191 0.0174561C25.377 0.0174561 22.0195 3.35948 22.0195 7.48258C22.0195 9.54319 22.8586 11.4092 24.2149 12.7602C25.5721 14.1117 28.7689 16.0674 28.9565 18.1205C28.9848 18.4285 29.2088 18.6805 29.5192 18.6805C29.8295 18.6805 30.0534 18.4285 30.0818 18.1205C30.2693 16.0674 33.4662 14.1117 34.8234 12.7602C36.1798 11.4092 37.0187 9.54319 37.0187 7.48258C37.0187 3.35948 33.6612 0.0174561 29.5191 0.0174561Z" fill="#FF4433"/>
<path fill-rule="evenodd" clip-rule="evenodd" d="M29.5193 10.0959C30.9691 10.0959 32.144 8.92589 32.144 7.48319C32.144 6.04002 30.9691 4.87003 29.5193 4.87003C28.0694 4.87003 26.8945 6.04002 26.8945 7.48319C26.8945 8.92589 28.0694 10.0959 29.5193 10.0959Z" fill="white"/>
<path fill-rule="evenodd" clip-rule="evenodd" d="M86.5207 14.1946H85.4045V10.951H86.5781C87.6109 10.951 88.2168 11.4145 88.2168 12.5824C88.2168 13.7504 87.547 14.1946 86.5207 14.1946ZM91.5903 5.96212V16.0863H94.0006V5.96212H91.5903ZM83.0004 5.96212V16.0863H86.6608C89.0267 16.0863 90.7037 14.8803 90.7037 12.4999C90.7037 10.2463 89.2053 9.05967 86.699 9.05967H85.4044V5.96179L83.0004 5.96212ZM81.5847 7.85363V5.96212H73.518V7.85363H76.3495V16.0868H78.7536V7.85363H81.5847ZM68.5504 14.392C67.2749 14.392 66.6248 13.3699 66.6248 11.0338C66.6248 8.67904 67.3133 7.65698 68.6716 7.65698C69.9852 7.65698 70.6294 8.67904 70.6294 11.0149C70.6294 13.3699 69.9407 14.392 68.5504 14.392ZM66.4462 5.96212H64.2206V19H66.6248V14.8993C67.237 15.8007 68.1231 16.2833 69.1564 16.2833C71.4968 16.2833 73.1163 14.417 73.1163 11.0147C73.1163 7.63118 71.5412 5.76527 69.2772 5.76527C68.1425 5.76527 67.2112 6.28563 66.5674 7.26948L66.4462 5.96212ZM59.8779 13.6684C59.5717 14.1126 59.0042 14.4745 58.1561 14.4745C57.1485 14.4745 56.6384 13.9096 56.6384 13.0462C56.6384 11.8974 57.4675 11.4784 59.5336 11.4784H59.8779V13.6684ZM62.2819 9.18053C62.2819 6.7304 61.0255 5.80347 58.4813 5.80347C56.887 5.80347 55.631 6.3051 54.9037 6.7304V8.7235C55.5479 8.23487 56.9636 7.71425 58.2006 7.71425C59.3486 7.71425 59.8779 8.11415 59.8779 9.20593V9.76448H59.4888C55.8092 9.76448 54.1768 10.9769 54.1768 13.0274C54.1768 15.0776 55.4266 16.2266 57.2889 16.2266C58.7043 16.2266 59.3102 15.7633 59.7756 15.2808H59.8779C59.8969 15.5408 59.9798 15.8836 60.0565 16.0868H62.403C62.3201 15.2616 62.2819 14.4365 62.2819 13.6113V9.18053ZM51.2245 16.0872H54.0751L49.0819 8.74263L53.6096 2.10291H51.1224L46.7735 8.53945V2.10291H44.3311V16.0866H46.7735V9.5231L51.2245 16.0872Z" fill="black"/>
</g>
<defs>
<clipPath id="clip0_4001_97">
<rect width="94" height="19" fill="white"/>
</clipPath>
</defs>
</svg>
