<svg width="93" height="24" viewBox="0 0 93 24" fill="none" xmlns="http://www.w3.org/2000/svg">
<g clip-path="url(#clip0_2229_17916)">
<path d="M0.816667 1.49489H20.1833C20.6344 1.49489 21 1.86053 21 2.31156V6.12C21 6.62729 20.7799 7.10761 20.3966 7.44L9.56667 16.5H20.1833C20.6344 16.5 21 16.859 21 17.31V21.6822C21 22.1332 20.6344 22.4989 20.1833 22.4989H0.816667C0.365634 22.4989 0 22.1332 0 21.6822V17.88C0 17.3727 0.220132 16.8924 0.603358 16.56L11.4333 7.5H0.816667C0.365634 7.5 0 7.12603 0 6.675V2.31156C0 1.86053 0.365634 1.49489 0.816667 1.49489ZM34.5 0.75C36.7393 0.75 38.7357 1.25357 40.4024 2.1738C42.0691 3.09403 43.406 4.43093 44.3262 6.0976C45.2464 7.76426 45.75 9.7607 45.75 12C45.75 14.2393 45.2464 16.2357 44.3262 17.9024C43.406 19.5691 42.0691 20.906 40.4024 21.8262C38.7357 22.7464 36.7393 23.25 34.5 23.25C32.2607 23.25 30.2643 22.7464 28.5976 21.8262C26.9309 20.906 25.594 19.5691 24.6738 17.9024C23.7536 16.2357 23.25 14.2393 23.25 12C23.25 9.7607 23.7536 7.76426 24.6738 6.0976C25.594 4.43093 26.9309 3.09403 28.5976 2.1738C30.2643 1.25357 32.2607 0.75 34.5 0.75ZM34.5 6.75C33.4288 6.75 32.4884 6.97627 31.7107 7.39699C30.9329 7.81771 30.3177 8.43287 29.897 9.21065C29.4763 9.98843 29.25 10.9288 29.25 12C29.25 13.0712 29.4763 14.0116 29.897 14.7893C30.3177 15.5671 30.9329 16.1823 31.7107 16.603C32.4884 17.0237 33.4288 17.25 34.5 17.25C35.5712 17.25 36.5116 17.0237 37.2894 16.603C38.0671 16.1823 38.6823 15.5671 39.103 14.7893C39.5237 14.0116 39.75 13.0712 39.75 12C39.75 10.9288 39.5237 9.98843 39.103 9.21065C38.6823 8.43287 38.0671 7.81771 37.2894 7.39699C36.5116 6.97627 35.5712 6.75 34.5 6.75ZM58.5 0.75C60.7393 0.75 62.7357 1.25357 64.4024 2.1738C66.0691 3.09403 67.406 4.43093 68.3262 6.0976C69.2464 7.76426 69.75 9.7607 69.75 12C69.75 14.2393 69.2464 16.2357 68.3262 17.9024C67.406 19.5691 66.0691 20.906 64.4024 21.8262C62.7357 22.7464 60.7393 23.25 58.5 23.25C56.2607 23.25 54.2643 22.7464 52.5976 21.8262C50.9309 20.906 49.594 19.5691 48.6738 17.9024C47.7536 16.2357 47.25 14.2393 47.25 12C47.25 9.7607 47.7536 7.76426 48.6738 6.0976C49.594 4.43093 50.9309 3.09403 52.5976 2.1738C54.2643 1.25357 56.2607 0.75 58.5 0.75ZM58.5 6.75C57.4288 6.75 56.4884 6.97627 55.7107 7.39699C54.9329 7.81771 54.3177 8.43287 53.897 9.21065C53.4763 9.98843 53.25 10.9288 53.25 12C53.25 13.0712 53.4763 14.0116 53.897 14.7893C54.3177 15.5671 54.9329 16.1823 55.7107 16.603C56.4884 17.0237 57.4288 17.25 58.5 17.25C59.5712 17.25 60.5116 17.0237 61.2894 16.603C62.0671 16.1823 62.6823 15.5671 63.103 14.7893C63.5237 14.0116 63.75 13.0712 63.75 12C63.75 10.9288 63.5237 9.98843 63.103 9.21065C62.6823 8.43287 62.0671 7.81771 61.2894 7.39699C60.5116 6.97627 59.5712 6.75 58.5 6.75ZM93.0026 2.31416V21.6819C93.0026 22.1329 92.6369 22.4986 92.1859 22.4986H88.38C87.8727 22.4986 87.3924 22.2785 87.06 21.8953L78 11.0666V21.6819C78 22.1329 77.6261 22.4986 77.175 22.4986H72.8142C72.3631 22.4986 71.9975 22.1329 71.9975 21.6819V2.31416C71.9975 1.8631 72.3631 1.49745 72.8142 1.49745H76.62C77.1274 1.49745 77.6076 1.71764 77.94 2.10095L87 12.9334V2.31416C87 1.8631 87.3589 1.49745 87.81 1.49745H92.1859C92.6369 1.49745 93.0026 1.8631 93.0026 2.31416Z" fill="#6339F5"/>
</g>
<defs>
<clipPath id="clip0_2229_17916">
<rect width="93" height="24" fill="white"/>
</clipPath>
</defs>
</svg>
