<svg width="130" height="18" viewBox="0 0 130 18" fill="none" xmlns="http://www.w3.org/2000/svg">
<g clip-path="url(#clip0_2229_17919)">
<mask id="mask0_2229_17919" style="mask-type:luminance" maskUnits="userSpaceOnUse" x="0" y="3" width="130" height="12">
<path d="M129.938 3.44519H0V14.9397H129.938V3.44519Z" fill="white"/>
</mask>
<g mask="url(#mask0_2229_17919)">
<path fill-rule="evenodd" clip-rule="evenodd" d="M25.6437 3.77447C23.9988 4.32225 23.5232 4.92301 23.4622 7.00811C23.4316 8.14787 23.3618 11.5317 23.5494 12.4815C24.1122 15.1939 29.0992 15.2866 31.6035 14.5356C33.2135 14.0497 33.5277 13.3606 33.5582 11.3506C33.5887 9.86629 33.5582 8.53658 33.5887 7.41897C33.5887 5.21018 33.0957 3.85398 30.7178 3.58451C29.2212 3.40338 26.9699 3.33712 25.6393 3.77446L25.6437 3.77447ZM31.6298 11.8146V6.8316C31.6691 5.43122 29.6097 5.61233 28.5757 5.61233C27.4412 5.61233 25.4603 5.49306 25.4603 6.8316V11.8146C25.4603 12.5126 26.333 12.7732 27.3234 12.8439C28.2317 12.8759 29.1411 12.8494 30.046 12.7644C30.971 12.6937 31.5731 12.4331 31.6124 11.8058L31.6298 11.8146Z" fill="#EC2327"/>
<path fill-rule="evenodd" clip-rule="evenodd" d="M13.2251 3.49043C15.6336 3.49043 18.3416 3.32385 19.8299 3.63C21.3182 3.93615 22.0976 4.88165 22.0976 6.78159C22.0976 9.93317 21.1112 10.8336 18.9229 11.0632C18.8599 11.0681 18.7965 11.0681 18.7335 11.0632C17.439 11.1758 15.7306 11.0632 13.5685 11.0632V13.8861C13.5685 14.1655 13.46 14.4335 13.2668 14.6311C13.0735 14.8287 12.8114 14.9397 12.5382 14.9397C12.2649 14.9397 12.0029 14.8287 11.8096 14.6311C11.6164 14.4335 11.5078 14.1655 11.5078 13.8861V12.0852C11.4682 10.7616 11.5078 9.19478 11.5078 7.88466C11.5078 6.81762 11.5475 5.67407 11.5078 4.60703C11.4898 4.48403 11.4956 4.35858 11.5249 4.23788C11.5543 4.11718 11.6068 4.0036 11.6792 3.90364C11.7515 3.80368 11.8425 3.71931 11.9468 3.65536C12.0512 3.59142 12.1669 3.54915 12.2872 3.53099C12.5963 3.48568 12.909 3.47211 13.2207 3.49047L13.2251 3.49043ZM18.7774 5.61551H13.5729V8.98319H18.1522C19.4731 8.98319 20.1512 8.89314 20.2084 7.35338C20.2657 5.81362 19.821 5.647 18.7774 5.61551Z" fill="#EC2327"/>
<path d="M10.1651 13.8814V7.48198C10.1738 5.23821 9.66052 3.86127 7.28126 3.58585C5.78938 3.40978 3.52756 3.32852 2.1922 3.77998C0.556739 4.33077 0.0782693 4.94022 0.0173985 7.0621C0.0173985 7.87926 -0.0217482 9.82957 0.0173985 11.2471V13.8701C0.0179685 14.0089 0.0448598 14.1462 0.0965355 14.2741C0.148211 14.402 0.223664 14.5182 0.318579 14.6158C0.413493 14.7135 0.526019 14.7908 0.649725 14.8434C0.773431 14.8959 0.905897 14.9226 1.03956 14.922C1.30915 14.9221 1.56785 14.8115 1.75926 14.6145C1.95071 14.4175 2.05941 14.15 2.06171 13.8701V6.88149C2.06171 5.52259 4.0495 5.64448 5.18911 5.64448C6.20257 5.64448 8.20776 5.4639 8.16857 6.88149V13.8881C8.16917 14.0269 8.19606 14.1641 8.24774 14.292C8.29941 14.42 8.37488 14.5361 8.46978 14.6338C8.56468 14.7315 8.67723 14.8088 8.80092 14.8613C8.92461 14.9139 9.0571 14.9406 9.19078 14.94C9.45955 14.94 9.71733 14.8292 9.90739 14.6319C10.0974 14.4347 10.1651 14.1604 10.1651 13.8814Z" fill="#EC2327"/>
<path fill-rule="evenodd" clip-rule="evenodd" d="M34.916 13.8847C34.9172 13.6028 35.0262 13.3329 35.2193 13.1337C35.4124 12.9344 35.6741 12.822 35.9472 12.8208H36.6317L41.0944 4.02C41.1909 3.83111 41.3396 3.67605 41.5216 3.57449C41.7037 3.47294 41.9109 3.42946 42.1169 3.44959C42.321 3.43042 42.5261 3.47445 42.7058 3.57605C42.8856 3.67765 43.0319 3.83221 43.1261 4.02001L47.5888 12.8208H48.0277C48.3008 12.822 48.5624 12.9344 48.7556 13.1337C48.9487 13.3329 49.0577 13.6029 49.0589 13.8847C49.0583 14.0238 49.0312 14.1614 48.979 14.2897C48.9269 14.418 48.8508 14.5345 48.755 14.6324C48.6593 14.7303 48.5457 14.8079 48.4209 14.8605C48.2961 14.9132 48.1625 14.9401 48.0277 14.9395H35.9475C35.8126 14.9401 35.6789 14.9132 35.5542 14.8605C35.4294 14.8079 35.3159 14.7303 35.2201 14.6324C35.1243 14.5345 35.0482 14.418 34.9961 14.2897C34.944 14.1614 34.9166 14.0237 34.916 13.8847ZM42.1171 6.59167L38.9533 12.8207H45.2677L42.1171 6.59167Z" fill="#117DC1"/>
<path fill-rule="evenodd" clip-rule="evenodd" d="M63.0164 3.48527C63.1648 3.48586 63.3122 3.51368 63.4492 3.56714C63.5866 3.62059 63.711 3.69864 63.8155 3.79682C63.9204 3.895 64.0034 4.01139 64.0599 4.13935C64.1158 4.26731 64.1448 4.40433 64.1438 4.54259V7.64705L70.2479 3.63827C70.4943 3.47821 70.7981 3.41402 71.095 3.45942C71.3913 3.50481 71.6572 3.65618 71.8356 3.88122C71.9216 3.99488 71.9831 4.12327 72.016 4.25902C72.049 4.39478 72.0525 4.53524 72.027 4.67234C72.0015 4.80944 71.9471 4.94049 71.8666 5.05797C71.7866 5.17546 71.6822 5.27706 71.5598 5.35697L65.751 9.19028L71.5598 13.0236C71.8061 13.1858 71.9736 13.432 72.025 13.7086C72.077 13.9851 72.0085 14.2694 71.8356 14.4994C71.6577 14.7249 71.3928 14.8773 71.0965 14.9243C70.8001 14.9713 70.4958 14.9093 70.2479 14.7513L64.1438 10.738V13.8875C64.1438 14.0249 64.1148 14.161 64.0579 14.288C64.0014 14.4149 63.9179 14.5302 63.8135 14.6272C63.7085 14.7241 63.5841 14.8009 63.4477 14.8531C63.3107 14.9053 63.1643 14.9319 63.0164 14.9313C62.717 14.9313 62.4296 14.8218 62.2167 14.6264C62.0038 14.431 61.8824 14.1655 61.8789 13.8875V4.54246C61.8814 4.26277 62.0018 3.99522 62.2147 3.79742C62.4276 3.59964 62.7155 3.48763 63.0164 3.48527Z" fill="#117DC1"/>
<path fill-rule="evenodd" clip-rule="evenodd" d="M79.5467 5.56306V13.8896C79.5442 14.1681 79.4283 14.4344 79.2239 14.6309C79.0195 14.8274 78.7431 14.9383 78.4542 14.9395C78.3113 14.9401 78.1689 14.9133 78.0364 14.8608C77.904 14.8083 77.7836 14.7311 77.6821 14.6336C77.5807 14.536 77.5002 14.4201 77.4452 14.2924C77.3903 14.1647 77.3618 14.0278 77.3618 13.8896V5.56306H74.4692C74.1783 5.56307 73.8994 5.45227 73.693 5.25479C73.4866 5.0573 73.3697 4.78912 73.3672 4.50864C73.3697 4.22733 73.4861 3.95821 73.6925 3.75925C73.8984 3.56032 74.1773 3.44752 74.4692 3.44516H82.4398C82.5838 3.44575 82.7262 3.47373 82.8591 3.5275C82.9921 3.58126 83.1125 3.65976 83.214 3.75851C83.3154 3.85727 83.3959 3.97434 83.4504 4.10304C83.5053 4.23174 83.5328 4.36956 83.5323 4.50862C83.5323 4.78827 83.4174 5.05646 83.2125 5.25422C83.0076 5.45196 82.7297 5.56305 82.4398 5.56305L79.5467 5.56306Z" fill="#117DC1"/>
<path fill-rule="evenodd" clip-rule="evenodd" d="M121.978 8.06099H126.14C127.61 8.06099 128.167 8.11068 128.167 6.85507C128.167 5.95176 127.831 5.56789 126.14 5.56789H121.978V8.06099ZM121.978 12.8259H127.226C127.984 12.6633 128.167 12.2839 128.167 11.62C128.167 10.3644 127.61 10.4186 126.14 10.4186H121.978V12.835V12.8259ZM127.324 14.9396H120.776C120.513 14.9408 120.26 14.8312 120.072 14.6349C119.884 14.4385 119.778 14.1713 119.775 13.8918V4.5063C119.776 4.22595 119.882 3.95737 120.068 3.75871C120.255 3.56005 120.508 3.44732 120.772 3.44495H126.374C128.193 3.44495 129.936 4.19019 129.936 6.43486C129.965 7.16766 129.871 7.90016 129.659 8.59827C129.614 8.71941 129.558 8.83586 129.492 8.94605C129.442 9.04676 129.419 9.1609 129.429 9.2747C129.438 9.38854 129.478 9.49709 129.544 9.5874C129.598 9.70324 129.647 9.82238 129.688 9.94418C129.877 10.6164 129.96 11.3166 129.936 12.0172C129.921 12.7609 129.645 13.4719 129.16 14.0102C128.677 14.5486 128.02 14.8753 127.32 14.9259L127.324 14.9396Z" fill="#117DC1"/>
<path fill-rule="evenodd" clip-rule="evenodd" d="M52.6065 3.77447C50.9618 4.32225 50.486 4.92301 50.425 7.00811C50.3945 8.14787 50.3246 11.5317 50.5125 12.4815C51.0752 15.1939 56.0668 15.2866 58.5711 14.5356C60.1768 14.0497 60.4907 13.3606 60.5212 11.3506C60.5522 9.86629 60.5212 8.53658 60.5522 7.41897C60.5522 5.21018 60.0589 3.85398 57.681 3.58451C56.1843 3.40338 53.9328 3.33712 52.6025 3.77446L52.6065 3.77447ZM58.5931 11.8146V6.8316C58.6321 5.43122 56.5726 5.61233 55.5386 5.61233C54.4041 5.61233 52.4236 5.49306 52.4236 6.8316V11.8146C52.4236 12.5126 53.2961 12.7732 54.2867 12.8439C55.1947 12.8757 56.1043 12.8492 57.0089 12.7644C57.9339 12.6937 58.5361 12.4331 58.5756 11.8058L58.5931 11.8146Z" fill="#117DC1"/>
<path fill-rule="evenodd" clip-rule="evenodd" d="M87.0789 3.77444C85.4392 4.32222 84.9539 4.92298 84.893 7.00808C84.8625 8.14784 84.7965 11.5317 84.9934 12.4815C85.5442 15.1939 90.5543 15.2866 93.0546 14.5356C94.6633 14.0497 94.9826 13.3605 95.0221 11.3505V7.41894C95.0436 5.21015 94.5278 3.85395 92.15 3.58448C90.6547 3.40335 88.4033 3.33709 87.0614 3.77443L87.0789 3.77444ZM93.0681 11.8146V6.83157C93.107 5.43119 91.0395 5.6123 90.0075 5.6123C88.8756 5.6123 86.8865 5.49303 86.8865 6.83157V11.8146C86.8865 12.5126 87.7606 12.7732 88.7661 12.8439C89.6717 12.8758 90.5787 12.8492 91.4808 12.7644C92.4124 12.6937 93.0111 12.4331 93.0546 11.8058L93.0681 11.8146Z" fill="#117DC1"/>
<path fill-rule="evenodd" clip-rule="evenodd" d="M110.498 3.77447C108.848 4.32225 108.377 4.92301 108.316 7.00811C108.29 8.14787 108.22 11.5317 108.408 12.4815C108.97 15.1939 113.959 15.2866 116.465 14.5356C118.076 14.0497 118.39 13.3606 118.42 11.3506C118.446 9.86629 118.42 8.53658 118.446 7.41897C118.446 5.21018 117.953 3.85398 115.579 3.58451C114.077 3.40338 111.83 3.33713 110.498 3.77447ZM116.504 11.8146V6.8316C116.543 5.43122 114.479 5.61233 113.449 5.61233C112.314 5.61233 110.328 5.49306 110.328 6.8316V11.8146C110.328 12.5126 111.201 12.7732 112.196 12.8439C113.103 12.8759 114.011 12.8494 114.916 12.7644C115.845 12.6937 116.447 12.4331 116.487 11.8058L116.504 11.8146Z" fill="#117DC1"/>
<path fill-rule="evenodd" clip-rule="evenodd" d="M98.2186 3.47905C100.633 3.47905 103.19 3.33489 104.676 3.64122C106.163 3.94756 106.955 4.89362 106.955 6.79471C106.955 9.94814 105.969 10.8492 103.783 11.0834C103.72 11.088 103.657 11.088 103.594 11.0834C102.275 11.196 100.581 11.1059 98.4345 11.1059V13.8855C98.4345 14.1651 98.326 14.4332 98.1331 14.6309C97.9402 14.8286 97.6784 14.9396 97.4055 14.9396C97.1326 14.9396 96.8707 14.8286 96.6778 14.6309C96.4844 14.4332 96.376 14.1651 96.376 13.8855V12.0835C96.328 10.7591 96.35 9.19131 96.376 7.87589C96.376 6.8082 96.407 5.66845 96.376 4.60081C96.3395 4.35172 96.401 4.09795 96.5469 3.8952C96.6928 3.69248 96.9117 3.55739 97.1546 3.5196C97.4605 3.4767 97.7698 3.46312 98.0782 3.47905H98.2186ZM103.603 5.62342H98.4305V8.9931H102.996C104.316 8.9931 105.002 8.903 105.063 7.36683C105.125 5.83067 104.672 5.65496 103.599 5.62342H103.603Z" fill="#117DC1"/>
</g>
</g>
<defs>
<clipPath id="clip0_2229_17919">
<rect width="129.94" height="18" fill="white"/>
</clipPath>
</defs>
</svg>
