<svg width="77" height="19" viewBox="0 0 77 19" fill="none" xmlns="http://www.w3.org/2000/svg">
<path fill-rule="evenodd" clip-rule="evenodd" d="M23.5 14C27.6543 14 31 10.8513 31 7C31 3.1227 27.6264 0 23.5 0C19.3736 0 16 3.12264 16 6.97392C16 10.8512 19.3457 14 23.5 14ZM23.5 10.7993C25.7584 10.7993 27.5707 9.0818 27.5707 7.00005C27.5707 4.89228 25.7305 3.20083 23.5 3.20083C21.2417 3.20083 19.4294 4.91831 19.4294 7.00005C19.4294 9.0818 21.2417 10.7993 23.5 10.7993Z" fill="#13A546"/>
<path fill-rule="evenodd" clip-rule="evenodd" d="M27 14.2487L30.1607 18.3664C30.7354 19.1257 31.7541 19.2133 32.4333 18.5709C33.1125 17.9284 33.1908 16.7894 32.6161 16.0301L29.5338 12C28.8546 12.9345 27.9926 13.6938 27 14.2487Z" fill="#13A546"/>
<path d="M44.879 12.0678C44.879 12.5522 44.7189 12.9559 44.4253 13.2519C44.105 13.5749 43.7314 13.7095 43.2777 13.7095C42.7706 13.7095 42.3435 13.521 42.0233 13.1443L38.3668 8.73066L36.7805 10.1749V12.0397C36.7805 12.4972 36.6587 12.8752 36.3384 13.1981C36.0181 13.521 35.6178 13.6825 35.1907 13.6825C34.7637 13.6825 34.3634 13.521 34.0431 13.1981C33.7228 12.8752 33.5894 12.4715 33.5894 12.0409V2.51374C33.5894 2.05623 33.7495 1.67948 34.0431 1.35653C34.3634 1.03359 34.7637 0.872112 35.2174 0.872112C35.6712 0.872112 36.0448 1.03359 36.3384 1.35653C36.6587 1.67948 36.7753 2.08318 36.7753 2.51374V6.55062L41.9699 1.27578C42.2635 0.979747 42.6104 0.845184 43.0375 0.845184C43.4645 0.845184 43.8382 1.00666 44.105 1.30269C44.3986 1.59873 44.5321 1.94859 44.5321 2.37921C44.5321 2.8098 44.3986 3.1866 44.105 3.45572L40.7422 6.79286L44.5588 11.0719C44.7723 11.2872 44.879 11.6372 44.879 12.0678Z" fill="#2C2B67"/>
<path d="M51.0842 12.1131V3.95876H48.869C48.4686 3.95876 48.1217 3.8242 47.8281 3.55508C47.5612 3.28596 47.4277 2.9361 47.4277 2.5324C47.4277 2.1287 47.5612 1.80576 47.8281 1.50973C48.1217 1.21369 48.4686 1.07913 48.869 1.07913H56.609C57.0096 1.07913 57.3298 1.21369 57.6234 1.50973C57.917 1.77885 58.0502 2.1287 58.0502 2.5324C58.0502 2.90917 57.917 3.25905 57.6234 3.55508C57.3565 3.8242 57.0096 3.95876 56.609 3.95876H54.3675V12.1401C54.3675 12.5976 54.2071 12.9743 53.8869 13.2973C53.5667 13.6202 53.166 13.7817 52.7392 13.7817C52.2854 13.7817 51.9118 13.6202 51.5915 13.2973C51.2713 12.9743 51.0842 12.5706 51.0842 12.1131Z" fill="#2C2B67"/>
<path d="M61.9115 15.717L62.0713 15.69C62.9254 15.6631 63.4859 15.3671 63.7795 14.775L64.2334 13.6985L59.963 3.0413C59.8831 2.90674 59.8564 2.69144 59.8564 2.44924C59.8564 1.99173 60.0163 1.61498 60.3099 1.31889C60.6301 0.995947 61.0041 0.834473 61.4309 0.834473C62.205 0.834473 62.7123 1.18433 62.9254 1.85715L65.9149 9.85021L68.8773 1.85715C69.1442 1.18434 69.6515 0.834473 70.3984 0.834473C70.8524 0.834473 71.2525 0.995947 71.5461 1.31889C71.8663 1.64184 72 2.01862 72 2.44924C72 2.63762 71.9468 2.85292 71.8663 3.06822L66.8223 15.5827C66.0481 17.5742 64.5536 18.5968 62.3116 18.6238C62.1251 18.6238 61.9914 18.6238 61.9647 18.5968C61.5374 18.5699 61.1906 18.4353 60.897 18.1662C60.6034 17.8971 60.4969 17.5473 60.4969 17.1166C60.4969 16.713 60.6301 16.39 60.897 16.1209C61.2172 15.8787 61.5374 15.7439 61.9115 15.717Z" fill="#2C2B67"/>
<path d="M14.2257 12.3796V15.3937C14.2257 15.7974 14.0923 16.1204 13.8253 16.4164C13.5584 16.7124 13.2115 16.8201 12.8111 16.8201C12.4108 16.8201 12.0638 16.6855 11.7703 16.4164C11.5034 16.1473 11.3699 15.7974 11.3699 15.3937V13.4895H2.85575V15.3937C2.85575 15.7974 2.7223 16.1204 2.45541 16.4164C2.18851 16.7124 1.84157 16.8201 1.44122 16.8201C1.04088 16.8201 0.693915 16.6855 0.400341 16.4164C0.133451 16.1473 0 15.7974 0 15.3937V12.864C0 11.626 0.400342 10.9263 1.17435 10.711C1.86827 9.41922 2.37539 7.1855 2.66896 4.00986L2.77572 2.79882C2.8291 2.23367 3.01593 1.80305 3.36287 1.50702C3.70983 1.18408 4.13804 1.07556 4.67185 1.07556L10.8907 1.07558C11.5045 1.07558 11.9836 1.18408 12.3039 1.53394C12.6508 1.85689 12.811 2.34134 12.811 2.96032V10.6842C13.7718 10.765 14.2257 11.33 14.2257 12.3796ZM9.60533 10.7862V3.77537H5.5748L5.49823 4.9787C5.33807 7.66995 4.87581 9.70969 4.20859 10.786L9.60533 10.7862Z" fill="#2C2B67"/>
</svg>
