<svg width="63" height="15" viewBox="0 0 63 15" fill="none" xmlns="http://www.w3.org/2000/svg">
<path d="M0.54443 0.496594H13.4552C13.7559 0.496594 13.9996 0.74035 13.9996 1.04104V3.58C13.9996 3.91819 13.8529 4.23841 13.5974 4.46L6.3776 10.5H13.4552C13.7559 10.5 13.9996 10.7393 13.9996 11.04V13.9548C13.9996 14.2555 13.7559 14.4992 13.4552 14.4992H0.54443C0.243749 14.4992 0 14.2555 0 13.9548V11.42C0 11.0818 0.146751 10.7616 0.402228 10.54L7.62201 4.5H0.54443C0.243749 4.5 0 4.25069 0 3.95V1.04104C0 0.74035 0.243749 0.496594 0.54443 0.496594ZM22.9994 0C24.4922 0 25.8231 0.33571 26.9342 0.949198C28.0453 1.56269 28.9365 2.45395 29.55 3.56506C30.1635 4.67617 30.4992 6.00713 30.4992 7.5C30.4992 8.99287 30.1635 10.3238 29.55 11.4349C28.9365 12.546 28.0453 13.4373 26.9342 14.0508C25.8231 14.6643 24.4922 15 22.9994 15C21.5065 15 20.1756 14.6643 19.0645 14.0508C17.9535 13.4373 17.0622 12.546 16.4487 11.4349C15.8353 10.3238 15.4996 8.99287 15.4996 7.5C15.4996 6.00713 15.8353 4.67617 16.4487 3.56506C17.0622 2.45395 17.9535 1.56269 19.0645 0.949198C20.1756 0.33571 21.5065 0 22.9994 0ZM22.9994 4C22.2853 4 21.6584 4.15085 21.1399 4.43133C20.6214 4.71181 20.2113 5.12192 19.9308 5.64043C19.6503 6.15895 19.4995 6.78588 19.4995 7.5C19.4995 8.21412 19.6503 8.84105 19.9308 9.35957C20.2113 9.87808 20.6214 10.2882 21.1399 10.5687C21.6584 10.8492 22.2853 11 22.9994 11C23.7135 11 24.3404 10.8492 24.8589 10.5687C25.3774 10.2882 25.7875 9.87808 26.068 9.35957C26.3484 8.84105 26.4993 8.21412 26.4993 7.5C26.4993 6.78588 26.3484 6.15895 26.068 5.64043C25.7875 5.12192 25.3774 4.71181 24.8589 4.43133C24.3404 4.15085 23.7135 4 22.9994 4ZM38.9989 0C40.4918 0 41.8227 0.33571 42.9338 0.949198C44.0448 1.56269 44.9361 2.45395 45.5496 3.56506C46.163 4.67617 46.4987 6.00713 46.4987 7.5C46.4987 8.99287 46.163 10.3238 45.5496 11.4349C44.9361 12.546 44.0448 13.4373 42.9338 14.0508C41.8227 14.6643 40.4918 15 38.9989 15C37.5061 15 36.1752 14.6643 35.0641 14.0508C33.953 13.4373 33.0618 12.546 32.4483 11.4349C31.8348 10.3238 31.4991 8.99287 31.4991 7.5C31.4991 6.00713 31.8348 4.67617 32.4483 3.56506C33.0618 2.45395 33.953 1.56269 35.0641 0.949198C36.1752 0.33571 37.5061 0 38.9989 0ZM38.9989 4C38.2848 4 37.6579 4.15085 37.1394 4.43133C36.6209 4.71181 36.2108 5.12192 35.9303 5.64043C35.6499 6.15895 35.499 6.78588 35.499 7.5C35.499 8.21412 35.6499 8.84105 35.9303 9.35957C36.2108 9.87808 36.6209 10.2882 37.1394 10.5687C37.6579 10.8492 38.2848 11 38.9989 11C39.713 11 40.3399 10.8492 40.8584 10.5687C41.3769 10.2882 41.787 9.87808 42.0675 9.35957C42.348 8.84105 42.4988 8.21412 42.4988 7.5C42.4988 6.78588 42.348 6.15895 42.0675 5.64043C41.787 5.12192 41.3769 4.71181 40.8584 4.43133C40.3399 4.15085 39.713 4 38.9989 4ZM62 1.04277V13.9546C62 14.2553 61.7562 14.4991 61.4555 14.4991H58.9184C58.5802 14.4991 58.26 14.3523 58.0384 14.0969L51.9986 6.87774V13.9546C51.9986 14.2553 51.7493 14.4991 51.4486 14.4991H48.5414C48.2407 14.4991 47.997 14.2553 47.997 13.9546V1.04277C47.997 0.742066 48.2407 0.498297 48.5414 0.498297H51.0786C51.4168 0.498297 51.737 0.64509 51.9586 0.900633L57.9984 8.12226V1.04277C57.9984 0.742066 58.2377 0.498297 58.5384 0.498297H61.4555C61.7562 0.498297 62 0.742066 62 1.04277Z" fill="#6339F5"/>
</svg>
