<svg width="112" height="29" viewBox="0 0 112 29" fill="none" xmlns="http://www.w3.org/2000/svg">
<g clip-path="url(#clip0_2229_17944)">
<path fill-rule="evenodd" clip-rule="evenodd" d="M36.3951 22.5237C42.5814 22.5237 47.5636 17.458 47.5636 11.2618C47.5636 5.0239 42.5399 0 36.3951 0C30.2504 0 25.2266 5.02381 25.2266 11.2199C25.2266 17.4578 30.2088 22.5237 36.3951 22.5237ZM36.3951 17.3742C39.7581 17.3742 42.4568 14.6111 42.4568 11.2619C42.4568 7.87086 39.7166 5.1496 36.3951 5.1496C33.0321 5.1496 30.3334 7.91274 30.3334 11.2619C30.3334 14.6111 33.0321 17.3742 36.3951 17.3742Z" fill="#13A546"/>
<path fill-rule="evenodd" clip-rule="evenodd" d="M41.793 22.1889L46.8167 28.0918C47.7301 29.1803 49.3493 29.3059 50.4288 28.3849C51.5083 27.4639 51.6329 25.8312 50.7194 24.7426L45.8203 18.9653C44.7408 20.305 43.3706 21.3935 41.793 22.1889Z" fill="#13A546"/>
<path d="M69.8143 18.7728C69.8143 19.5263 69.5652 20.1543 69.1085 20.6148C68.6103 21.1172 68.029 21.3266 67.3232 21.3266C66.5344 21.3266 65.8701 21.0335 65.3719 20.4473L59.6838 13.5815L57.2161 15.8282V18.7291C57.2161 19.4408 57.0266 20.0287 56.5284 20.5311C56.0302 21.0335 55.4074 21.2847 54.7431 21.2847C54.0788 21.2847 53.456 21.0335 52.9578 20.5311C52.4596 20.0287 52.252 19.4007 52.252 18.7309V3.91038C52.252 3.19868 52.5011 2.6126 52.9578 2.11022C53.456 1.60784 54.0788 1.35665 54.7846 1.35665C55.4904 1.35665 56.0717 1.60784 56.5284 2.11022C57.0266 2.6126 57.2081 3.2406 57.2081 3.91038V10.1902L65.2888 1.9846C65.7455 1.52409 66.2852 1.31476 66.9495 1.31476C67.6138 1.31476 68.1951 1.56596 68.6103 2.02647C69.0669 2.48698 69.2746 3.03123 69.2746 3.7011C69.2746 4.37094 69.0669 4.95709 68.6103 5.37573L63.3789 10.567L69.3161 17.2236C69.6482 17.5585 69.8143 18.1029 69.8143 18.7728Z" fill="#2C2B67"/>
<path d="M79.4673 18.8433V6.15833H76.0213C75.3985 6.15833 74.8588 5.949 74.4021 5.53035C73.9869 5.1117 73.7793 4.56746 73.7793 3.93947C73.7793 3.31147 73.9869 2.80909 74.4021 2.34858C74.8588 1.88807 75.3985 1.67874 76.0213 1.67874H88.0617C88.685 1.67874 89.1831 1.88807 89.6398 2.34858C90.0965 2.76723 90.3037 3.31147 90.3037 3.93947C90.3037 4.52557 90.0965 5.06984 89.6398 5.53035C89.2246 5.949 88.685 6.15833 88.0617 6.15833H84.5748V18.8853C84.5748 19.5969 84.3253 20.183 83.8272 20.6854C83.3291 21.1878 82.7058 21.439 82.0418 21.439C81.336 21.439 80.7547 21.1878 80.2565 20.6854C79.7583 20.183 79.4673 19.555 79.4673 18.8433Z" fill="#2C2B67"/>
<path d="M96.3101 24.4495L96.5587 24.4076C97.8873 24.3657 98.7593 23.9052 99.216 22.9842L99.9221 21.3096L93.279 4.73106C93.1547 4.52174 93.1133 4.18682 93.1133 3.81004C93.1133 3.09834 93.3619 2.51226 93.8186 2.05167C94.3167 1.54929 94.8986 1.2981 95.5625 1.2981C96.7668 1.2981 97.5558 1.84234 97.8873 2.88898L102.538 15.3231L107.146 2.88898C107.561 1.84235 108.351 1.2981 109.513 1.2981C110.219 1.2981 110.841 1.54929 111.298 2.05167C111.796 2.55405 112.004 3.14017 112.004 3.81004C112.004 4.1031 111.921 4.43802 111.796 4.77294L103.949 24.2405C102.745 27.3386 100.42 28.9294 96.9325 28.9713C96.6424 28.9713 96.4344 28.9713 96.393 28.9294C95.7282 28.8876 95.1887 28.6782 94.732 28.2596C94.2753 27.8409 94.1095 27.2967 94.1095 26.6268C94.1095 25.9989 94.3167 25.4965 94.732 25.0778C95.2301 24.701 95.7282 24.4913 96.3101 24.4495Z" fill="#2C2B67"/>
<path d="M22.1296 19.2578V23.9467C22.1296 24.5747 21.9221 25.077 21.5068 25.5375C21.0917 25.9981 20.5519 26.1655 19.9292 26.1655C19.3064 26.1655 18.7666 25.9562 18.3099 25.5375C17.8948 25.1189 17.6872 24.5747 17.6872 23.9467V20.9844H4.44244V23.9467C4.44244 24.5747 4.23484 25.077 3.81966 25.5375C3.40447 25.9981 2.86476 26.1655 2.24198 26.1655C1.6192 26.1655 1.07946 25.9562 0.622776 25.5375C0.207597 25.1189 0 24.5747 0 23.9467V20.0114C0 18.0856 0.622776 16.9971 1.82683 16.6622C2.9063 14.6526 3.69518 11.1778 4.15187 6.23778L4.31794 4.35387C4.40098 3.47472 4.69161 2.80485 5.23131 2.34434C5.77105 1.84196 6.43718 1.67316 7.26758 1.67316L16.9417 1.67318C17.8966 1.67318 18.6418 1.84196 19.14 2.38622C19.6798 2.8886 19.9289 3.64221 19.9289 4.6051V16.6205C21.4235 16.7461 22.1296 17.6251 22.1296 19.2578ZM14.9422 16.7791V5.87301H8.67221L8.55311 7.74492C8.30396 11.9315 7.58487 15.1045 6.54692 16.7789L14.9422 16.7791Z" fill="#2C2B67"/>
</g>
<defs>
<clipPath id="clip0_2229_17944">
<rect width="112" height="29" fill="white"/>
</clipPath>
</defs>
</svg>
