<svg width="116" height="11" viewBox="0 0 116 11" fill="none" xmlns="http://www.w3.org/2000/svg">
<mask id="mask0_4001_80" style="mask-type:luminance" maskUnits="userSpaceOnUse" x="0" y="0" width="116" height="11">
<path d="M116 0H0V10.2615H116V0Z" fill="white"/>
</mask>
<g mask="url(#mask0_4001_80)">
<path fill-rule="evenodd" clip-rule="evenodd" d="M22.8929 0.293956C21.4244 0.782986 20.9999 1.31931 20.9453 3.18075C20.918 4.19825 20.8558 7.21911 21.0232 8.06703C21.5257 10.4885 25.9778 10.5713 28.2135 9.90085C29.6507 9.46706 29.9312 8.85181 29.9585 7.05743C29.9857 5.73235 29.9585 4.54527 29.9857 3.54753C29.9857 1.57567 29.5456 0.364939 27.4227 0.124373C26.0867 -0.0373218 24.0768 -0.0964773 22.8889 0.293952L22.8929 0.293956ZM28.2369 7.47168V3.02317C28.272 1.773 26.4335 1.93469 25.5104 1.93469C24.4976 1.93469 22.7292 1.82821 22.7292 3.02317V7.47168C22.7292 8.09482 23.5082 8.32749 24.3924 8.39058C25.2033 8.41918 26.0151 8.39544 26.823 8.31959C27.6488 8.25651 28.1863 8.02384 28.2214 7.46383L28.2369 7.47168Z" fill="#EC2327"/>
<path fill-rule="evenodd" clip-rule="evenodd" d="M11.8066 0.0403878C13.9567 0.0403878 16.3743 -0.108329 17.7029 0.164985C19.0316 0.438299 19.7274 1.28238 19.7274 2.97852C19.7274 5.79206 18.8468 6.59589 16.8932 6.8009C16.837 6.80527 16.7804 6.80527 16.7242 6.8009C15.5685 6.90137 14.0434 6.8009 12.1132 6.8009V9.321C12.1132 9.57044 12.0163 9.80967 11.8438 9.98608C11.6712 10.1624 11.4373 10.2615 11.1934 10.2615C10.9494 10.2615 10.7155 10.1624 10.5429 9.98608C10.3704 9.80967 10.2735 9.57044 10.2735 9.321V7.71328C10.2382 6.5316 10.2735 5.13286 10.2735 3.96327C10.2735 3.01069 10.3089 1.9898 10.2735 1.03722C10.2574 0.927409 10.2626 0.815419 10.2888 0.707664C10.315 0.599909 10.3618 0.498512 10.4265 0.409272C10.4911 0.320037 10.5723 0.244713 10.6654 0.187627C10.7586 0.130542 10.8619 0.0928109 10.9693 0.0765976C11.2452 0.0361502 11.5244 0.0240318 11.8026 0.0404235L11.8066 0.0403878ZM16.7633 1.93752H12.1171V4.94397H16.2052C17.3844 4.94397 17.9898 4.86358 18.0409 3.48898C18.092 2.11438 17.6949 1.96563 16.7633 1.93752Z" fill="#EC2327"/>
<path d="M9.07473 9.31684V3.60384C9.08249 1.60074 8.62429 0.371499 6.50024 0.125624C5.16839 -0.0315608 3.14918 -0.104105 1.95706 0.298928C0.497021 0.790634 0.0698738 1.33472 0.0155323 3.229C0.0155323 3.9585 -0.0194154 5.69962 0.0155323 6.96514V9.30677C0.0160411 9.43063 0.040048 9.55318 0.0861808 9.6674C0.132313 9.78162 0.199673 9.8853 0.284407 9.97248C0.36914 10.0597 0.469596 10.1287 0.580033 10.1756C0.690469 10.2225 0.808727 10.2464 0.928051 10.2458C1.16873 10.2459 1.39968 10.1472 1.57056 9.97132C1.74146 9.7954 1.83851 9.55658 1.84056 9.30677V3.06776C1.84056 1.85462 3.61514 1.96344 4.6325 1.96344C5.53726 1.96344 7.32736 1.80223 7.29238 3.06776V9.32283C7.29292 9.44669 7.31692 9.5692 7.36305 9.68342C7.40918 9.79763 7.47655 9.90132 7.56128 9.9885C7.646 10.0757 7.74648 10.1447 7.8569 10.1916C7.96732 10.2386 8.0856 10.2624 8.20494 10.2619C8.44489 10.2619 8.67501 10.1629 8.84468 9.98685C9.01436 9.81075 9.07473 9.56593 9.07473 9.31684Z" fill="#EC2327"/>
<path fill-rule="evenodd" clip-rule="evenodd" d="M31.1709 9.31968C31.1719 9.0681 31.2692 8.82713 31.4417 8.64925C31.6141 8.47136 31.8476 8.37098 32.0915 8.36991H32.7026L36.6866 0.513141C36.7727 0.344513 36.9054 0.206085 37.068 0.115422C37.2305 0.0247592 37.4154 -0.0140518 37.5994 0.00391931C37.7816 -0.0131947 37.9647 0.0261079 38.1251 0.11681C38.2856 0.207513 38.4163 0.345495 38.5004 0.513146L42.4844 8.36991H42.8761C43.12 8.37099 43.3535 8.47137 43.526 8.64925C43.6984 8.82713 43.7957 9.0681 43.7967 9.31969C43.7962 9.44385 43.772 9.56672 43.7254 9.68125C43.6789 9.79582 43.611 9.89978 43.5255 9.98722C43.44 10.0746 43.3386 10.1439 43.2272 10.1909C43.1158 10.2379 42.9965 10.2619 42.8761 10.2613H32.0917C31.9713 10.2619 31.852 10.2379 31.7406 10.1909C31.6292 10.1439 31.5279 10.0746 31.4423 9.98722C31.3569 9.89978 31.2889 9.79582 31.2424 9.68125C31.1958 9.56672 31.1714 9.44385 31.1709 9.31968ZM37.5995 2.80896L34.7751 8.36982H40.4123L37.5995 2.80896Z" fill="#117DC1"/>
<path fill-rule="evenodd" clip-rule="evenodd" d="M56.2571 0.0357239C56.3896 0.0362502 56.5213 0.0610824 56.6435 0.108804C56.7662 0.156525 56.8773 0.2262 56.9705 0.313847C57.0642 0.401499 57.1383 0.505408 57.1887 0.619641C57.2387 0.733874 57.2646 0.856201 57.2637 0.979625V3.75109L62.713 0.172309C62.9329 0.0294197 63.2042 -0.0278843 63.4692 0.0126399C63.7338 0.053164 63.9711 0.1883 64.1304 0.389203C64.2072 0.490667 64.262 0.605284 64.2915 0.726477C64.3209 0.84767 64.324 0.973062 64.3013 1.09546C64.2785 1.21786 64.2299 1.33485 64.1581 1.43973C64.0867 1.54461 63.9934 1.63532 63.8841 1.70665L58.6985 5.12878L63.8841 8.55096C64.1041 8.69569 64.2536 8.91556 64.2995 9.16242C64.3459 9.40932 64.2848 9.66314 64.1304 9.86841C63.9716 10.0697 63.7351 10.2058 63.4706 10.2478C63.206 10.2898 62.9343 10.2343 62.713 10.0933L57.2637 6.51052V9.32214C57.2637 9.44483 57.2378 9.56636 57.1869 9.67969C57.1365 9.79297 57.062 9.89589 56.9688 9.98249C56.8751 10.069 56.764 10.1376 56.6422 10.1842C56.5199 10.2308 56.3892 10.2545 56.2571 10.254C55.9899 10.254 55.7334 10.1562 55.5433 9.98178C55.3532 9.80738 55.2448 9.57038 55.2417 9.32214V0.979509C55.2439 0.729823 55.3515 0.49097 55.5415 0.314383C55.7316 0.137822 55.9886 0.0378253 56.2571 0.0357239Z" fill="#117DC1"/>
<path fill-rule="evenodd" clip-rule="evenodd" d="M71.0143 1.89066V9.32403C71.012 9.57267 70.9085 9.81043 70.726 9.98586C70.5436 10.1613 70.2968 10.2602 70.039 10.2613C69.9114 10.2618 69.7842 10.238 69.666 10.1911C69.5477 10.1442 69.4402 10.0753 69.3497 9.98822C69.2591 9.90113 69.1873 9.79762 69.1382 9.68363C69.0891 9.56968 69.0637 9.44744 69.0637 9.32403V1.89066H66.4813C66.2217 1.89067 65.9727 1.79176 65.7885 1.61546C65.6042 1.43916 65.4998 1.19974 65.4976 0.94935C65.4998 0.69821 65.6037 0.457956 65.788 0.280342C65.9718 0.102751 66.2208 0.00204927 66.4813 -6.10352e-05H73.597C73.7255 0.000468371 73.8527 0.0254451 73.9714 0.0734428C74.09 0.12144 74.1976 0.191522 74.2881 0.279682C74.3787 0.367842 74.4505 0.472353 74.4992 0.587251C74.5482 0.702149 74.5728 0.825185 74.5723 0.949332C74.5723 1.19899 74.4697 1.43841 74.2868 1.61495C74.1039 1.79148 73.8558 1.89065 73.597 1.89065L71.0143 1.89066Z" fill="#117DC1"/>
<path fill-rule="evenodd" clip-rule="evenodd" d="M108.894 4.1207H112.61C113.922 4.1207 114.42 4.16505 114.42 3.04413C114.42 2.23771 114.119 1.89502 112.61 1.89502H108.894V4.1207ZM108.894 8.37451H113.579C114.256 8.22937 114.42 7.89065 114.42 7.29794C114.42 6.17707 113.922 6.22543 112.61 6.22543H108.894V8.38258V8.37451ZM113.667 10.2615H107.821C107.586 10.2626 107.36 10.1647 107.192 9.98945C107.025 9.81411 106.93 9.5756 106.928 9.32607V0.947297C106.929 0.697018 107.023 0.457241 107.189 0.279895C107.356 0.10254 107.582 0.00190561 107.818 -0.000213623H112.819C114.443 -0.000213623 115.998 0.665091 115.998 2.66899C116.024 3.32319 115.94 3.97711 115.751 4.60035C115.711 4.70849 115.661 4.81245 115.602 4.91082C115.557 5.00072 115.537 5.10263 115.546 5.20422C115.554 5.30585 115.589 5.40275 115.648 5.48337C115.697 5.58679 115.74 5.69316 115.777 5.80188C115.945 6.40196 116.02 7.02707 115.998 7.65257C115.985 8.31645 115.738 8.95119 115.306 9.43179C114.874 9.91239 114.288 10.204 113.663 10.2492L113.667 10.2615Z" fill="#117DC1"/>
<path fill-rule="evenodd" clip-rule="evenodd" d="M46.9636 0.293895C45.4953 0.782924 45.0706 1.31925 45.0161 3.18069C44.9889 4.19819 44.9265 7.21905 45.0942 8.06697C45.5966 10.4884 50.0528 10.5712 52.2884 9.90079C53.7219 9.467 54.0021 8.85175 54.0293 7.05736C54.057 5.73229 54.0293 4.54521 54.057 3.54747C54.057 1.57561 53.6166 0.364878 51.4938 0.124312C50.1576 -0.0373828 48.1477 -0.0965384 46.96 0.293891L46.9636 0.293895ZM52.3081 7.47162V3.02311C52.3429 1.77294 50.5043 1.93463 49.5812 1.93463C48.5684 1.93463 46.8003 1.82815 46.8003 3.02311V7.47162C46.8003 8.09476 47.5793 8.32743 48.4636 8.39052C49.2742 8.41894 50.0862 8.39525 50.8938 8.31953C51.7196 8.25645 52.2572 8.02378 52.2925 7.46377L52.3081 7.47162Z" fill="#117DC1"/>
<path fill-rule="evenodd" clip-rule="evenodd" d="M77.7386 0.293895C76.2748 0.782924 75.8415 1.31925 75.7871 3.18069C75.7599 4.19819 75.701 7.21905 75.8768 8.06697C76.3685 10.4884 80.8411 10.5712 83.0733 9.90079C84.5094 9.467 84.7945 8.85175 84.8298 7.05736V3.54747C84.8489 1.57561 84.3885 0.364878 82.2657 0.124312C80.9308 -0.0373828 78.9209 -0.0965384 77.723 0.293891L77.7386 0.293895ZM83.0853 7.47162V3.02311C83.1201 1.77294 81.2744 1.93463 80.3531 1.93463C79.3425 1.93463 77.5668 1.82815 77.5668 3.02311V7.47162C77.5668 8.09476 78.3471 8.32743 79.2448 8.39052C80.0532 8.41898 80.863 8.39529 81.6683 8.31953C82.4999 8.25645 83.0344 8.02378 83.0733 7.46377L83.0853 7.47162Z" fill="#117DC1"/>
<path fill-rule="evenodd" clip-rule="evenodd" d="M98.6456 0.293895C97.1729 0.782924 96.7517 1.31925 96.6973 3.18069C96.6741 4.19819 96.6116 7.21905 96.7794 8.06697C97.2817 10.4884 101.736 10.5712 103.972 9.90079C105.41 9.467 105.691 8.85175 105.718 7.05736C105.741 5.73229 105.718 4.54521 105.741 3.54747C105.741 1.57561 105.301 0.364878 103.181 0.124312C101.841 -0.0373828 99.8342 -0.0965339 98.6456 0.293895ZM104.007 7.47162V3.02311C104.042 1.77294 102.199 1.93463 101.28 1.93463C100.266 1.93463 98.4935 1.82815 98.4935 3.02311V7.47162C98.4935 8.09476 99.2729 8.32743 100.161 8.39052C100.971 8.41911 101.782 8.39542 102.589 8.31953C103.419 8.25645 103.957 8.02378 103.992 7.46377L104.007 7.47162Z" fill="#117DC1"/>
<path fill-rule="evenodd" clip-rule="evenodd" d="M87.6834 0.0301954C89.8388 0.0301954 92.1213 -0.0985066 93.4482 0.174972C94.7755 0.448447 95.4827 1.29303 95.4827 2.9902C95.4827 5.80539 94.6028 6.60976 92.6514 6.81887C92.5951 6.82302 92.5385 6.82302 92.4823 6.81887C91.3044 6.91944 89.7924 6.83899 87.8762 6.83899V9.32041C87.8762 9.56999 87.7794 9.80935 87.6071 9.98585C87.4349 10.1623 87.2011 10.2615 86.9575 10.2615C86.7139 10.2615 86.4802 10.1623 86.3079 9.98585C86.1353 9.80935 86.0385 9.56999 86.0385 9.32041V7.71172C85.9956 6.52932 86.0153 5.12973 86.0385 3.95541C86.0385 3.00225 86.0661 1.98475 86.0385 1.03163C86.0059 0.80926 86.0608 0.582712 86.1911 0.401708C86.3213 0.22073 86.5167 0.10013 86.7336 0.0663964C87.0066 0.0280941 87.2828 0.0159721 87.5581 0.0301954H87.6834ZM92.4903 1.94455H87.8726V4.95279H91.9482C93.1265 4.95279 93.7391 4.87235 93.794 3.50096C93.8488 2.12957 93.4446 1.9727 92.4863 1.94455H92.4903Z" fill="#117DC1"/>
</g>
</svg>
