<svg width="108" height="26" viewBox="0 0 108 26" fill="none" xmlns="http://www.w3.org/2000/svg">
<path fill-rule="evenodd" clip-rule="evenodd" d="M65.4556 15.3084L68.9707 13.8245C68.7754 13.3241 68.1981 12.979 67.5103 12.979C66.6315 12.9747 65.4131 13.7641 65.4556 15.3084ZM69.582 16.7449L70.9236 17.6509C70.4906 18.3022 69.4504 19.4238 67.6462 19.4238C65.4131 19.4238 63.7999 17.6681 63.7999 15.4292C63.7999 13.0523 65.4258 11.4346 67.4551 11.4346C69.3188 11.4993 70.4778 12.7201 71 14.4284L65.7357 16.6371C66.1391 17.4395 66.7631 17.8493 67.6419 17.8493C68.5165 17.8493 69.1278 17.4093 69.5736 16.7449M61.0404 19.1823H62.7682V7.44864H61.0404V19.1823ZM58.2215 15.4422C58.2215 14.0359 57.296 13.0049 56.12 13.0049C54.9313 13.0049 53.9294 14.0359 53.9294 15.4422C53.9294 16.8355 54.927 17.8493 56.12 17.8493C57.3002 17.8493 58.2215 16.8355 58.2215 15.4422ZM59.7413 11.6762V18.8372C59.7413 21.7878 58.0304 23 56.0054 23C54.0992 23 52.953 21.6972 52.5199 20.6403L54.0228 20.0062C54.2902 20.6576 54.9483 21.4298 56.0054 21.4298C57.937 21.2067 58.1068 19.9372 58.1068 18.5093H58.0431C57.6568 18.9924 56.9096 19.4195 55.9714 19.4195C54.0058 19.4195 52.2015 17.681 52.2015 15.4379C52.2015 13.1817 54.0016 11.426 55.9714 11.426C56.9096 11.426 57.6568 11.8487 58.0431 12.319H58.1026V11.6676C58.1026 11.6632 59.7413 11.6633 59.7413 11.6633V11.6762ZM40.8919 15.4292C40.8919 13.9927 39.8815 13.0092 38.714 13.0092C37.5423 13.0092 36.5361 13.9927 36.5361 15.4292C36.5361 16.8528 37.5465 17.8493 38.714 17.8493C39.8815 17.8493 40.8919 16.8485 40.8919 15.4292ZM42.59 15.4292C42.59 17.7285 40.8494 19.4238 38.714 19.4238C36.5786 19.4238 34.838 17.7285 34.838 15.4292C34.838 13.1127 36.5786 11.4346 38.714 11.4346C40.8494 11.4346 42.59 13.1127 42.59 15.4292ZM49.5949 15.4292C49.5949 13.9927 48.5845 13.0092 47.417 13.0092C46.2453 13.0092 45.2391 13.9927 45.2391 15.4292C45.2391 16.8528 46.2495 17.8493 47.417 17.8493C48.5845 17.8493 49.5949 16.8485 49.5949 15.4292ZM51.293 15.4292C51.293 17.7285 49.5524 19.4238 47.417 19.4238C45.2816 19.4238 43.541 17.7285 43.541 15.4292C43.541 13.1127 45.2816 11.4346 47.417 11.4346C49.5524 11.4346 51.293 13.1127 51.293 15.4292ZM28.1982 19.4238C24.8359 19.4238 22 16.6371 22 13.2119C22 9.79105 24.8317 7 28.1982 7C30.0619 7 31.3865 7.74198 32.3842 8.71259L31.2082 9.90752C30.495 9.22594 29.527 8.69533 28.1982 8.69533C25.7402 8.69533 23.8255 10.7099 23.8255 13.1817C23.8255 15.6794 25.7487 17.6681 28.1982 17.6681C29.7902 17.6681 30.6988 17.0167 31.2804 16.4257C31.7558 15.9426 32.07 15.2437 32.1889 14.2904H28.1982V12.595H33.8021C33.8616 12.897 33.8913 13.2594 33.8913 13.6519C33.8913 14.9245 33.5474 16.4991 32.4478 17.6163C31.378 18.7595 30.0068 19.3678 28.2025 19.3678" fill="#5F6368"/>
<path d="M74 18.7968V8H75.3794L79.0887 14.576H79.1447L82.854 8H84.2334V18.7968H82.8545L82.9104 10.5814H82.8545L79.5179 16.498H78.7164L75.3798 10.5814H75.3239C75.4257 13.314 75.3798 16.0646 75.3798 18.7968H74ZM88.5393 18.9852C87.7564 18.9852 87.1226 18.7591 86.6007 18.3069C86.0788 17.8546 85.8178 17.2517 85.8178 16.5164C85.8178 15.7061 86.1347 15.0843 86.7498 14.6321C87.365 14.1799 88.1292 13.9538 89.0239 13.9538C89.8254 13.9538 90.4965 14.1045 90.9998 14.406C90.9864 12.8388 89.9149 12.4087 89.0798 12.4087C88.2914 12.4466 87.6073 12.7799 87.3277 13.4827L86.0788 12.9363C86.2465 12.5029 86.5821 12.0879 87.0854 11.7115C87.5886 11.3351 88.241 11.1463 89.0612 11.1463C89.9932 11.1463 90.7761 11.4289 91.3912 11.9753C92.0063 12.5218 92.3232 13.3131 92.3232 14.3118V18.7775H91.0184V17.76C90.4089 18.5325 89.585 18.9678 88.5393 18.9847V18.9852ZM90.9998 15.5559C90.1964 14.9378 88.5206 14.8606 87.7378 15.4993C87.1226 16.1023 87.0574 16.9106 87.7005 17.3836C89.2551 18.3917 91.0557 16.8221 90.9998 15.5559ZM97.6729 18.9852C97.1137 18.9852 96.6104 18.8721 96.1817 18.6272C95.753 18.3822 95.4175 18.0808 95.1938 17.7227H95.1192L95.1752 18.7402V22H93.8144V11.354H95.1192V12.3715H95.1752C95.3988 12.0135 95.7157 11.712 96.1631 11.467C96.6104 11.2221 97.1137 11.109 97.6543 11.109C98.6049 11.109 99.4065 11.4859 100.096 12.2396C100.786 12.9933 101.121 13.9354 101.121 15.0471C101.121 16.1588 100.785 17.1009 100.096 17.8546C99.4251 18.6083 98.6049 18.9852 97.6729 18.9852ZM97.4493 17.7039C98.083 17.7039 98.6236 17.459 99.0896 16.969C99.5556 16.4791 99.7793 15.8385 99.7793 15.0283C99.7793 14.218 99.5556 13.5774 99.0896 13.0875C98.6236 12.5976 98.083 12.3526 97.4493 12.3526C96.7969 12.3526 96.2563 12.5976 95.8089 13.0686C95.3616 13.5585 95.1379 14.1992 95.1379 15.0094C95.1379 15.8197 95.3616 16.4791 95.8089 16.9502C96.2563 17.4778 96.7969 17.7039 97.4493 17.7039ZM105.129 18.9852C104.309 18.9852 103.638 18.7779 103.116 18.3822C102.575 17.9865 102.202 17.4778 101.942 16.8748L103.172 16.3661C103.563 17.2894 104.216 17.7604 105.148 17.7604C105.576 17.7604 105.931 17.6667 106.191 17.4778C106.471 17.2894 106.602 17.0444 106.602 16.7241C106.602 16.2342 106.266 15.9139 105.595 15.7443L104.122 15.3863C103.656 15.2732 103.209 15.0283 102.799 14.7079C102.389 14.3876 102.165 13.9166 102.165 13.3513C102.165 12.6918 102.445 12.1642 103.023 11.7685C103.6 11.354 104.272 11.1655 105.054 11.1655C105.707 11.1655 106.285 11.3163 106.788 11.6178C107.291 11.9192 107.664 12.3338 107.869 12.8991L106.676 13.389C106.415 12.7295 105.856 12.4092 104.998 12.4092C104.588 12.4092 104.253 12.5029 103.974 12.6729C103.695 12.843 103.564 13.0686 103.564 13.3701C103.564 13.7847 103.881 14.0861 104.533 14.2369L105.987 14.576C106.677 14.7456 107.18 15.0094 107.515 15.4051C107.851 15.8008 108 16.2342 108 16.7241C108 17.3836 107.739 17.9489 107.198 18.3822C106.677 18.7591 105.987 18.9852 105.129 18.9852H105.129Z" fill="#63666A"/>
<path d="M4.87402 18.818C5.65776 19.7982 6.45598 21.0306 6.8737 21.7751C7.3824 22.7429 7.59333 23.3963 7.97176 24.5668C8.19303 25.2078 8.40395 25.4022 8.84649 25.4022C9.33038 25.4022 9.55165 25.0755 9.72122 24.5668C10.0748 23.4687 10.3478 22.6333 10.78 21.8371C12.4467 18.6939 15.164 16.4605 16.6942 13.4C16.6942 13.4 17.7013 11.5306 17.7013 8.91265C17.7013 6.47252 16.7087 4.77682 16.7087 4.77682L4.88023 18.8386L4.87402 18.818Z" fill="#34A853"/>
<path d="M0.864085 13.0693C1.81739 15.2406 3.63509 17.1431 4.87584 18.8181L11.4518 11.0221C11.4518 11.0221 10.5233 12.238 8.84624 12.238C6.97684 12.238 5.45486 10.7491 5.45486 8.86731C5.45486 7.5728 6.22619 6.67532 6.22619 6.67532C1.38727 7.39496 1.6561 8.56747 0.849609 13.0652L0.864085 13.0693Z" fill="#FBBC04"/>
<path d="M11.5328 0.407562C13.7248 1.11272 15.5859 2.59955 16.7026 4.77086L11.4501 11.0366C11.4501 11.0366 12.2214 10.135 12.2214 8.84466C12.2214 6.92356 10.6001 5.47395 8.85069 5.47395C7.19015 5.47395 6.24512 6.67541 6.24512 6.67541C6.64836 5.75726 10.8152 0.719817 11.539 0.40963L11.5328 0.407562Z" fill="#4285F4"/>
<path d="M2.06152 3.16391C3.36845 1.60884 5.6597 0 8.82361 0C10.3518 0 11.5119 0.405311 11.5119 0.405311L6.23871 6.67109C5.88303 6.47816 2.41307 3.77601 2.06152 3.15564V3.16391Z" fill="#1A73E8"/>
<path d="M0.862321 13.0692C0.862321 13.0692 0 11.3569 0 8.89198C0 6.55524 0.914018 4.50801 2.06791 3.18454L6.2451 6.7L0.868524 13.0692H0.862321Z" fill="#EA4335"/>
</svg>
