<svg width="58" height="53" viewBox="0 0 58 53" fill="none" xmlns="http://www.w3.org/2000/svg">
<path fill-rule="evenodd" clip-rule="evenodd" d="M29.398 47.0466L31.776 46.0587C31.6439 45.7255 31.2533 45.4958 30.7881 45.4958C30.1936 45.4929 29.3693 46.0185 29.398 47.0466ZM32.1896 48.003L33.0972 48.6062C32.8042 49.0398 32.1006 49.7866 30.88 49.7866C29.3693 49.7866 28.2779 48.6176 28.2779 47.1271C28.2779 45.5446 29.3779 44.4676 30.7507 44.4676C32.0116 44.5107 32.7956 45.3234 33.1489 46.4608L29.5876 47.9312C29.8604 48.4654 30.2826 48.7383 30.8771 48.7383C31.4687 48.7383 31.8823 48.4453 32.1839 48.003M26.4111 49.6257H27.58V41.8138H26.4111V49.6257ZM24.5041 47.1357C24.5041 46.1994 23.878 45.513 23.0824 45.513C22.2783 45.513 21.6005 46.1994 21.6005 47.1357C21.6005 48.0633 22.2754 48.7383 23.0824 48.7383C23.8809 48.7383 24.5041 48.0633 24.5041 47.1357ZM25.5323 44.6284V49.396C25.5323 51.3604 24.3748 52.1675 23.0049 52.1675C21.7154 52.1675 20.9399 51.3001 20.647 50.5965L21.6637 50.1743C21.8446 50.608 22.2898 51.122 23.0049 51.122C24.3117 50.9736 24.4265 50.1283 24.4265 49.1777H24.3835C24.1221 49.4994 23.6166 49.7837 22.9819 49.7837C21.6522 49.7837 20.4316 48.6263 20.4316 47.1328C20.4316 45.6307 21.6493 44.4618 22.9819 44.4618C23.6166 44.4618 24.1221 44.7433 24.3835 45.0563H24.4237V44.6227C24.4237 44.6198 25.5323 44.6198 25.5323 44.6198V44.6284ZM12.7805 47.1271C12.7805 46.1707 12.097 45.5159 11.3071 45.5159C10.5145 45.5159 9.8338 46.1707 9.8338 47.1271C9.8338 48.0748 10.5173 48.7383 11.3071 48.7383C12.097 48.7383 12.7805 48.072 12.7805 47.1271ZM13.9293 47.1271C13.9293 48.6579 12.7518 49.7866 11.3071 49.7866C9.86252 49.7866 8.68499 48.6579 8.68499 47.1271C8.68499 45.5848 9.86252 44.4676 11.3071 44.4676C12.7518 44.4676 13.9293 45.5848 13.9293 47.1271ZM18.6681 47.1271C18.6681 46.1707 17.9846 45.5159 17.1948 45.5159C16.4021 45.5159 15.7214 46.1707 15.7214 47.1271C15.7214 48.0748 16.405 48.7383 17.1948 48.7383C17.9846 48.7383 18.6681 48.072 18.6681 47.1271ZM19.8169 47.1271C19.8169 48.6579 18.6394 49.7866 17.1948 49.7866C15.7502 49.7866 14.5726 48.6579 14.5726 47.1271C14.5726 45.5848 15.7502 44.4676 17.1948 44.4676C18.6394 44.4676 19.8169 45.5848 19.8169 47.1271ZM4.19315 49.7866C1.91851 49.7866 0 47.9312 0 45.6508C0 43.3733 1.91564 41.5151 4.19315 41.5151C5.45397 41.5151 6.35004 42.0091 7.02497 42.6553L6.22942 43.4509C5.74692 42.9971 5.09209 42.6438 4.19315 42.6438C2.53025 42.6438 1.23497 43.9851 1.23497 45.6307C1.23497 47.2936 2.536 48.6176 4.19315 48.6176C5.27016 48.6176 5.88477 48.184 6.27824 47.7905C6.59991 47.4688 6.81244 47.0036 6.89285 46.3689H4.19315V45.2401H7.98422C8.02443 45.4412 8.04453 45.6824 8.04453 45.9438C8.04453 46.791 7.8119 47.8393 7.06805 48.5832C6.3443 49.3443 5.41663 49.7492 4.19602 49.7492" fill="#5F6368"/>
<path d="M35.8926 49.5663V42.6216H36.7895L39.2013 46.8514H39.2377L41.6495 42.6216H42.5464V49.5663H41.6498L41.6862 44.282H41.6498L39.4804 48.0877H38.9592L36.7897 44.282H36.7534C36.8196 46.0397 36.7897 47.8089 36.7897 49.5663H35.8926ZM45.3461 49.6875C44.8371 49.6875 44.425 49.5421 44.0857 49.2512C43.7463 48.9603 43.5766 48.5725 43.5766 48.0995C43.5766 47.5783 43.7827 47.1784 44.1826 46.8875C44.5826 46.5966 45.0795 46.4512 45.6612 46.4512C46.1824 46.4512 46.6187 46.5482 46.946 46.7421C46.9373 45.734 46.2406 45.4574 45.6976 45.4574C45.1849 45.4817 44.7401 45.6961 44.5583 46.1482L43.7463 45.7967C43.8554 45.518 44.0735 45.251 44.4008 45.0089C44.728 44.7668 45.1522 44.6453 45.6855 44.6453C46.2915 44.6453 46.8005 44.8271 47.2005 45.1786C47.6004 45.5301 47.8065 46.0391 47.8065 46.6815V49.5539H46.9581V48.8994C46.5617 49.3963 46.026 49.6763 45.3461 49.6872V49.6875ZM46.946 47.4817C46.4236 47.0841 45.334 47.0344 44.825 47.4453C44.425 47.8332 44.3826 48.3531 44.8007 48.6573C45.8115 49.3057 46.9823 48.2961 46.946 47.4817ZM51.2849 49.6875C50.9213 49.6875 50.5941 49.6148 50.3153 49.4572C50.0365 49.2997 49.8184 49.1057 49.6729 48.8755H49.6245L49.6608 49.5299V51.6267H48.7761V44.7789H49.6245V45.4334H49.6608C49.8063 45.2031 50.0123 45.0092 50.3032 44.8517C50.5941 44.6941 50.9213 44.6214 51.2728 44.6214C51.8909 44.6214 52.412 44.8638 52.8605 45.3486C53.3089 45.8334 53.5268 46.4394 53.5268 47.1544C53.5268 47.8695 53.3086 48.4755 52.8605 48.9603C52.4242 49.4451 51.8909 49.6875 51.2849 49.6875ZM51.1394 48.8633C51.5515 48.8633 51.903 48.7058 52.206 48.3907C52.509 48.0756 52.6544 47.6635 52.6544 47.1423C52.6544 46.6212 52.509 46.2091 52.206 45.894C51.903 45.5788 51.5515 45.4213 51.1394 45.4213C50.7153 45.4213 50.3638 45.5788 50.0729 45.8818C49.782 46.197 49.6366 46.609 49.6366 47.1302C49.6366 47.6514 49.782 48.0756 50.0729 48.3786C50.3638 48.7179 50.7153 48.8633 51.1394 48.8633ZM56.1329 49.6875C55.5996 49.6875 55.1633 49.5542 54.8239 49.2997C54.4724 49.0451 54.23 48.7179 54.0604 48.3301L54.8603 48.0028C55.1148 48.5967 55.539 48.8997 56.145 48.8997C56.4237 48.8997 56.654 48.8394 56.8237 48.7179C57.0055 48.5967 57.0903 48.4391 57.0903 48.2331C57.0903 47.918 56.8722 47.712 56.4359 47.6029L55.4784 47.3726C55.1754 47.2999 54.8845 47.1423 54.6179 46.9363C54.3512 46.7302 54.2058 46.4272 54.2058 46.0636C54.2058 45.6394 54.3876 45.3001 54.7633 45.0456C55.139 44.7789 55.5753 44.6577 56.0844 44.6577C56.5086 44.6577 56.8843 44.7547 57.2115 44.9486C57.5388 45.1425 57.7812 45.4092 57.9145 45.7728L57.1388 46.0879C56.9691 45.6637 56.6055 45.4576 56.048 45.4576C55.7814 45.4576 55.5632 45.518 55.3817 45.6273C55.2002 45.7367 55.1151 45.8818 55.1151 46.0758C55.1151 46.3424 55.3211 46.5363 55.7453 46.6333L56.6907 46.8514C57.1391 46.9605 57.4663 47.1302 57.6845 47.3847C57.9027 47.6392 57.9996 47.918 57.9996 48.2331C57.9996 48.6573 57.8299 49.0209 57.4785 49.2997C57.1391 49.5421 56.6907 49.6875 56.1331 49.6875H56.1329Z" fill="#63666A"/>
<path d="M23.8828 26.1353C24.9713 27.4966 26.0799 29.2084 26.6601 30.2423C27.3666 31.5864 27.6595 32.494 28.1851 34.1195C28.4924 35.0099 28.7854 35.2798 29.4 35.2798C30.072 35.2798 30.3793 34.826 30.6148 34.1195C31.1059 32.5945 31.4851 31.4342 32.0853 30.3285C34.4002 25.963 38.174 22.8612 40.2993 18.6106C40.2993 18.6106 41.698 16.0143 41.698 12.3783C41.698 8.98934 40.3194 6.63428 40.3194 6.63428L23.8914 26.164L23.8828 26.1353Z" fill="#34A853"/>
<path d="M18.3131 18.1513C19.6371 21.1669 22.1616 23.8092 23.8848 26.1355L33.0178 15.308C33.0178 15.308 31.7283 16.9967 29.3991 16.9967C26.8028 16.9967 24.689 14.9289 24.689 12.3153C24.689 10.5175 25.7602 9.271 25.7602 9.271C19.0397 10.2705 19.4131 11.8989 18.293 18.1455L18.3131 18.1513Z" fill="#FBBC04"/>
<path d="M33.1309 0.566071C36.1752 1.54543 38.76 3.61041 40.3109 6.62604L33.016 15.3283C33.016 15.3283 34.0873 14.0761 34.0873 12.2839C34.0873 9.61581 31.8356 7.60252 29.4059 7.60252C27.0996 7.60252 25.7871 9.27117 25.7871 9.27117C26.3472 7.99599 32.1343 0.999746 33.1395 0.568943L33.1309 0.566071Z" fill="#4285F4"/>
<path d="M19.9766 4.39419C21.7917 2.23443 24.9739 0 29.3681 0C31.4905 0 33.1017 0.562916 33.1017 0.562916L25.778 9.26514C25.2841 8.99718 20.4648 5.24431 19.9766 4.38271V4.39419Z" fill="#1A73E8"/>
<path d="M18.3109 18.1511C18.3109 18.1511 17.1133 15.7731 17.1133 12.3496C17.1133 9.10425 18.3827 6.26095 19.9853 4.42285L25.7868 9.30529L18.3195 18.1511H18.3109Z" fill="#EA4335"/>
</svg>
