<svg width="139" height="29" viewBox="0 0 139 29" fill="none" xmlns="http://www.w3.org/2000/svg">
<g clip-path="url(#clip0_2229_17937)">
<path fill-rule="evenodd" clip-rule="evenodd" d="M27.602 13.801C27.602 6.1785 21.4228 0 13.8 0C6.17725 0 -0.00195312 6.1789 -0.00195312 13.801C-0.00195312 21.4232 6.17745 27.603 13.8 27.603C21.4226 27.603 27.602 21.4237 27.602 13.801Z" fill="#FC3F1D"/>
<path fill-rule="evenodd" clip-rule="evenodd" d="M15.6407 7.82071H14.3755C12.0178 7.82071 10.8099 9.02821 10.8099 10.7539C10.8099 12.7092 11.6725 13.6291 13.398 14.8364L14.8357 15.8144L10.6952 22.025H7.58984L11.3276 16.5041C9.19954 14.9517 7.99224 13.4563 7.99224 10.9835C7.99224 7.82071 10.1775 5.69281 14.3755 5.69281H18.516V22.0828H15.6407V7.82071Z" fill="white"/>
<path fill-rule="evenodd" clip-rule="evenodd" d="M43.6162 0.0259094C37.496 0.0259094 32.5352 4.98671 32.5352 11.1069C32.5352 14.1656 33.7749 16.9354 35.7789 18.9408C37.7843 20.9469 42.5078 23.85 42.7849 26.8975C42.8268 27.3547 43.1577 27.7288 43.6163 27.7288C44.0749 27.7288 44.4057 27.3547 44.4476 26.8975C44.7247 23.85 49.4482 20.9469 51.4536 18.9408C53.4577 16.9354 54.6973 14.1656 54.6973 11.1069C54.6973 4.98671 49.7364 0.0259094 43.6162 0.0259094Z" fill="#FF4433"/>
<path fill-rule="evenodd" clip-rule="evenodd" d="M43.6165 14.986C45.7587 14.986 47.4947 13.2493 47.4947 11.1078C47.4947 8.96558 45.7587 7.22888 43.6165 7.22888C41.4743 7.22888 39.7383 8.96558 39.7383 11.1078C39.7383 13.2493 41.4743 14.986 43.6165 14.986Z" fill="white"/>
<path fill-rule="evenodd" clip-rule="evenodd" d="M127.839 21.07H126.19V16.2553H127.924C129.45 16.2553 130.345 16.9433 130.345 18.677C130.345 20.4106 129.356 21.07 127.839 21.07ZM135.33 8.85002V23.878H138.891V8.85002H135.33ZM122.638 8.85002V23.878H128.046C131.542 23.878 134.02 22.0879 134.02 18.5545C134.02 15.2093 131.806 13.4479 128.103 13.4479H126.19V8.84952L122.638 8.85002ZM120.546 11.6577V8.85002H108.627V11.6577H112.811V23.8787H116.363V11.6577H120.546ZM101.287 21.363C99.4028 21.363 98.4422 19.8459 98.4422 16.3783C98.4422 12.8829 99.4595 11.3658 101.466 11.3658C103.407 11.3658 104.359 12.8829 104.359 16.3502C104.359 19.8459 103.342 21.363 101.287 21.363ZM98.1783 8.85002H94.8898V28.203H98.4422V22.1161C99.3467 23.4541 100.656 24.1704 102.183 24.1704C105.641 24.1704 108.034 21.4001 108.034 16.3499C108.034 11.3275 105.706 8.55782 102.361 8.55782C100.685 8.55782 99.3087 9.33022 98.3574 10.7906L98.1783 8.85002ZM88.4733 20.289C88.0209 20.9483 87.1824 21.4855 85.9292 21.4855C84.4404 21.4855 83.6867 20.647 83.6867 19.3654C83.6867 17.6601 84.9118 17.0382 87.9645 17.0382H88.4733V20.289ZM92.0254 13.6273C92.0254 9.99042 90.169 8.61452 86.4097 8.61452C84.0541 8.61452 82.1982 9.35912 81.1236 9.99042V12.9489C82.0755 12.2236 84.1671 11.4508 85.9949 11.4508C87.6911 11.4508 88.4733 12.0444 88.4733 13.665V14.4941H87.8984C82.4616 14.4941 80.0496 16.2938 80.0496 19.3374C80.0496 22.3807 81.8962 24.0863 84.6479 24.0863C86.7393 24.0863 87.6345 23.3986 88.3222 22.6823H88.4733C88.5013 23.0683 88.6238 23.5772 88.7372 23.8788H92.2042C92.0818 22.6539 92.0254 21.4291 92.0254 20.2042V13.6273ZM75.6874 23.8793H79.8994L72.5217 12.9773L79.2114 3.12152H75.5366L69.1107 12.6757V3.12152H65.502V23.8785H69.1107V14.1358L75.6874 23.8793Z" fill="black"/>
</g>
<defs>
<clipPath id="clip0_2229_17937">
<rect width="138.89" height="28.203" fill="white"/>
</clipPath>
</defs>
</svg>
