<svg width="522" height="522" viewBox="0 0 522 522" fill="none" xmlns="http://www.w3.org/2000/svg">
<rect width="522" height="522" rx="25" fill="white"/>
<path d="M200.149 178.992L229.708 234.825L241.203 244.678H278.972L287.182 243.035L300.319 229.898L318.383 126.444L313.456 105.096L300.319 93.6016H290.467L269.119 100.17L255.982 101.812L237.918 96.8858L214.929 110.023L200.149 178.992Z" fill="white"/>
<path d="M310.541 264.235C318.029 265.683 321.864 271.538 319.611 277.694C318.516 280.712 317.481 281.014 315.289 278.841C311.089 274.676 304.332 276.185 302.445 281.617C298.671 292.602 297.454 304.13 295.689 315.476C292.828 334.066 290.758 352.715 289.114 371.426C288.079 383.617 287.227 395.869 286.558 408.122C285.279 430.996 284.184 453.871 283.027 476.745C282.723 483.143 282.479 489.601 282.236 496.059C282.053 501.068 280.653 502.577 275.601 502.396C268.113 502.155 260.626 502.517 253.139 502.939C248.634 503.241 247.295 501.672 246.93 497.145C245.408 477.107 243.764 457.07 242.303 437.032C240.781 416.571 238.773 396.171 236.52 375.832C233.842 351.629 230.068 327.547 225.442 303.586C224.102 296.706 222.459 289.886 220.085 283.247C219.293 281.074 218.38 279.203 215.702 279.022C212.597 278.78 209.554 278.78 207.302 281.376C205.354 283.669 204.319 283.428 203.04 280.651C200.606 275.461 204.014 267.011 211.928 266.77C208.58 263.209 205.475 259.829 202.31 256.449C193.605 247.275 186.24 237.316 181.796 225.426C181.187 223.737 179.239 221.443 181.066 220.296C182.831 219.27 183.744 222.107 184.718 223.435C189.892 230.074 195.918 235.928 203.101 240.395C217.893 249.569 233.538 256.69 250.825 259.829C263.365 262.062 275.418 260.131 287.166 255.725C305.915 248.663 322.046 237.92 334.89 222.529C335.195 222.167 335.56 221.745 335.864 221.383C336.412 220.779 336.899 219.874 337.751 220.236C338.847 220.719 338.299 221.866 338.117 222.65C336.777 228.022 333.795 232.548 331.055 237.256C325.881 246.189 319.49 254.216 312.611 261.881C311.941 262.726 311.272 263.45 310.541 264.235Z" fill="#267CDF"/>
<path d="M333.799 128.072C338.791 137.246 341.835 147.023 343.722 157.223C345.365 166.156 346.096 175.089 345.73 184.142C345.548 189.091 344.452 193.859 342.626 198.446C342.2 199.532 341.835 201.102 340.313 200.739C338.73 200.317 338.974 198.687 339.217 197.42C341.043 187.642 341.835 177.744 341.469 167.786C340.982 154.809 337.634 142.497 333.252 130.365C333.069 129.822 332.947 129.219 332.765 128.675C332.886 128.132 332.947 127.468 333.799 128.072Z" fill="#267CDF"/>
<path d="M231.165 21.3654C233.357 29.1512 234.087 37.1181 235 45.0849C236.34 56.5524 233.539 67.1749 227.878 77.1335C227.452 77.9181 226.783 78.582 226.235 79.2459C225.504 79.6684 224.956 79.6684 225.017 78.6424C232.505 61.3808 232.748 43.4553 230.131 25.2884C229.948 24.021 230.009 22.6932 229.887 21.4257C230.313 20.9429 230.739 20.9429 231.165 21.3654Z" fill="#267CDF"/>
<path d="M231.164 21.3654C230.738 21.3654 230.312 21.4257 229.947 21.4257C228.912 20.3393 229.399 19.0719 229.399 17.563C231.042 18.589 230.981 19.9772 231.164 21.3654Z" fill="#267CDF"/>
<path d="M225.02 78.5815C225.263 79.1247 225.75 79.2454 226.237 79.1851C225.811 80.0301 225.202 80.8147 224.106 81.2372C223.68 80.0904 224.35 79.3662 225.02 78.5815Z" fill="#267CDF"/>
<path d="M333.794 128.073C333.429 128.254 333.125 128.496 332.759 128.677C332.029 127.892 331.725 126.987 331.725 125.719C333.186 126.081 333.307 127.228 333.794 128.073Z" fill="#267CDF"/>
<path d="M334.885 163.624C333.972 148.897 330.015 135.196 323.441 122.099C322.771 120.832 322.528 119.564 322.406 118.116C321.919 112.382 321.249 106.709 318.267 101.639C312.788 92.3443 300.735 87.3952 290.204 90.1112C288.256 90.594 286.552 90.5336 284.665 89.749C281.621 88.4816 278.699 86.7916 275.291 86.3088C273.586 86.0674 272.977 86.3088 273.464 88.1194C274.012 90.1112 275.656 92.6461 274.56 94.0343C273.403 95.4828 270.603 95.6638 268.534 96.3881C267.986 96.5692 267.316 96.6899 266.829 96.9313C261.229 99.9491 255.75 99.2852 250.15 96.6295C248.385 95.7846 248.141 95.1206 248.567 93.31C252.707 76.1691 250.515 59.6318 242.967 43.7584C242.663 43.0945 242.48 42.1892 240.958 41.9478C241.811 46.5347 241.202 50.9407 240.958 55.407C240.167 67.9005 235.662 78.7644 226.288 87.5159C223.914 89.749 221.297 90.8958 218.009 91.3786C206.626 93.1289 199.2 99.5266 195.852 110.572C195.304 112.382 195.182 114.253 194.087 115.943C185.382 129.523 181.851 144.672 181.364 160.546C180.999 171.892 182.764 182.998 185.443 193.922C195.304 234.843 237.428 259.709 278.638 249.147C279.734 248.845 280.769 248.302 281.865 248.906C283.934 249.992 285.761 249.268 287.465 248.061C290.752 245.707 294.039 243.413 297.509 241.361C314.492 231.523 325.997 217.219 332.085 198.69C335.798 187.223 335.615 175.574 334.885 163.624ZM313.762 121.194C311.023 132.903 305.849 143.586 300.37 154.148C299.153 156.502 298.726 158.433 299.822 161.149C301.648 165.555 302.257 170.384 302.44 175.212C302.744 184.748 303.048 194.224 301.831 203.7C300.066 217.34 295.439 229.833 286.248 240.395C285.821 240.878 285.456 241.723 284.604 241.361C283.813 240.999 284.056 240.154 283.995 239.49C283.691 234.843 284.726 230.316 284.787 225.669C284.908 212.21 283.021 199.354 274.682 188.128C272.186 184.748 269.508 181.368 265.734 179.256C263.968 178.29 264.151 177.626 265.368 176.54C266.16 175.876 266.707 175.152 266.829 173.884C261.472 174.729 257.09 176.902 253.924 181.429C246.985 191.266 242.724 201.889 242.663 214.081C242.602 221.203 243.211 228.324 243.15 235.386C243.15 236.895 243.089 238.404 242.541 240.154C237.489 235.024 233.593 229.29 229.88 223.436C221.784 210.882 216.366 197.181 213.261 182.756C211.679 175.514 211.983 167.849 214.722 160.727C216.122 157.105 216.122 153.665 215.818 149.923C214.418 132.541 221.053 118.478 234.202 107.192C239.802 102.424 245.585 101.035 252.95 103.51C260.803 106.166 269.081 107.433 277.482 106.95C279.43 106.83 279.43 106.89 281.865 105.562C277.178 104.777 272.916 104.777 268.534 102.786C273.951 101.458 278.882 100.251 283.752 99.0437C285.7 98.5609 287.769 98.3195 289.656 97.7159C302.379 93.9739 317.232 106.648 313.762 121.194Z" fill="#267CDF"/>
<path d="M232.505 50.7586C232.505 47.0166 232.505 43.2142 232.505 39.4722C232.627 39.4722 232.688 39.4722 232.809 39.4722C232.809 43.2142 232.809 46.9562 232.809 50.6982C232.748 50.6982 232.627 50.7586 232.505 50.7586Z" fill="#267CDF"/>
</svg>
