<svg width="506" height="506" viewBox="0 0 506 506" fill="none" xmlns="http://www.w3.org/2000/svg">
<path d="M190.916 178.992L220.474 234.825L231.969 244.678H269.738L277.949 243.035L291.086 229.898L309.149 126.444L304.223 105.096L291.086 93.6016H281.233L259.885 100.17L246.748 101.812L228.685 96.8858L205.695 110.023L190.916 178.992Z" fill="white"/>
<path d="M301.308 264.235C308.795 265.683 312.63 271.538 310.378 277.694C309.282 280.712 308.247 281.014 306.056 278.841C301.856 274.676 295.099 276.185 293.212 281.617C289.438 292.602 288.22 304.13 286.455 315.476C283.594 334.066 281.524 352.715 279.881 371.426C278.846 383.617 277.994 395.869 277.324 408.122C276.046 430.996 274.95 453.871 273.794 476.745C273.489 483.143 273.246 489.601 273.002 496.059C272.82 501.068 271.42 502.577 266.367 502.396C258.88 502.155 251.393 502.517 243.905 502.939C239.401 503.241 238.061 501.672 237.696 497.145C236.174 477.107 234.531 457.07 233.07 437.032C231.548 416.571 229.539 396.171 227.287 375.832C224.609 351.629 220.835 327.547 216.208 303.586C214.869 296.706 213.225 289.886 210.851 283.247C210.06 281.074 209.147 279.203 206.469 279.022C203.364 278.78 200.32 278.78 198.068 281.376C196.12 283.669 195.085 283.428 193.807 280.651C191.372 275.461 194.781 267.011 202.694 266.77C199.346 263.209 196.242 259.829 193.077 256.449C184.372 247.275 177.006 237.316 172.563 225.426C171.954 223.737 170.006 221.443 171.832 220.296C173.597 219.27 174.511 222.107 175.484 223.435C180.659 230.074 186.685 235.928 193.868 240.395C208.66 249.569 224.304 256.69 241.592 259.829C254.132 262.062 266.185 260.131 277.933 255.725C296.682 248.663 312.813 237.92 325.657 222.529C325.961 222.167 326.327 221.745 326.631 221.383C327.179 220.779 327.666 219.874 328.518 220.236C329.614 220.719 329.066 221.866 328.883 222.65C327.544 228.022 324.561 232.548 321.822 237.256C316.648 246.189 310.256 254.216 303.378 261.881C302.708 262.726 302.038 263.45 301.308 264.235Z" fill="#267CDF"/>
<path d="M324.566 128.072C329.558 137.246 332.601 147.023 334.488 157.223C336.132 166.156 336.862 175.089 336.497 184.142C336.314 189.091 335.219 193.859 333.393 198.446C332.966 199.532 332.601 201.102 331.079 200.739C329.497 200.317 329.74 198.687 329.984 197.42C331.81 187.642 332.601 177.744 332.236 167.786C331.749 154.809 328.401 142.497 324.018 130.365C323.836 129.822 323.714 129.219 323.531 128.675C323.653 128.132 323.714 127.468 324.566 128.072Z" fill="#267CDF"/>
<path d="M221.932 21.3654C224.123 29.1512 224.854 37.1181 225.767 45.0849C227.106 56.5524 224.306 67.1749 218.645 77.1335C218.219 77.9181 217.549 78.582 217.001 79.2459C216.271 79.6684 215.723 79.6684 215.784 78.6424C223.271 61.3808 223.515 43.4553 220.897 25.2884C220.715 24.021 220.775 22.6932 220.654 21.4257C221.08 20.9429 221.506 20.9429 221.932 21.3654Z" fill="#267CDF"/>
<path d="M221.931 21.3654C221.504 21.3654 221.078 21.4257 220.713 21.4257C219.678 20.3393 220.165 19.0719 220.165 17.563C221.809 18.589 221.748 19.9772 221.931 21.3654Z" fill="#267CDF"/>
<path d="M215.786 78.5815C216.03 79.1247 216.517 79.2454 217.004 79.1851C216.577 80.0301 215.969 80.8147 214.873 81.2372C214.447 80.0904 215.117 79.3662 215.786 78.5815Z" fill="#267CDF"/>
<path d="M324.561 128.073C324.196 128.254 323.891 128.496 323.526 128.677C322.796 127.892 322.491 126.987 322.491 125.719C323.952 126.081 324.074 127.228 324.561 128.073Z" fill="#267CDF"/>
<path d="M325.651 163.624C324.738 148.897 320.782 135.196 314.207 122.099C313.538 120.832 313.294 119.564 313.172 118.116C312.685 112.382 312.016 106.709 309.033 101.639C303.555 92.3443 291.502 87.3952 280.971 90.1112C279.023 90.594 277.319 90.5336 275.431 89.749C272.388 88.4816 269.466 86.7916 266.057 86.3088C264.353 86.0674 263.744 86.3088 264.231 88.1194C264.779 90.1112 266.422 92.6461 265.327 94.0343C264.17 95.4828 261.37 95.6638 259.3 96.3881C258.752 96.5692 258.083 96.6899 257.596 96.9313C251.996 99.9491 246.517 99.2852 240.917 96.6295C239.151 95.7846 238.908 95.1206 239.334 93.31C243.473 76.1691 241.282 59.6318 233.734 43.7584C233.429 43.0945 233.247 42.1892 231.725 41.9478C232.577 46.5347 231.968 50.9407 231.725 55.407C230.934 67.9005 226.429 78.7644 217.055 87.5159C214.681 89.749 212.063 90.8958 208.776 91.3786C197.393 93.1289 189.966 99.5266 186.618 110.572C186.071 112.382 185.949 114.253 184.853 115.943C176.148 129.523 172.618 144.672 172.131 160.546C171.766 171.892 173.531 182.998 176.209 193.922C186.071 234.843 228.194 259.709 269.405 249.147C270.501 248.845 271.536 248.302 272.631 248.906C274.701 249.992 276.527 249.268 278.232 248.061C281.519 245.707 284.806 243.413 288.276 241.361C305.259 231.523 316.764 217.219 322.851 198.69C326.564 187.223 326.382 175.574 325.651 163.624ZM304.529 121.194C301.789 132.903 296.615 143.586 291.137 154.148C289.919 156.502 289.493 158.433 290.589 161.149C292.415 165.555 293.024 170.384 293.206 175.212C293.511 184.748 293.815 194.224 292.598 203.7C290.832 217.34 286.206 229.833 277.014 240.395C276.588 240.878 276.223 241.723 275.371 241.361C274.579 240.999 274.823 240.154 274.762 239.49C274.458 234.843 275.492 230.316 275.553 225.669C275.675 212.21 273.788 199.354 265.448 188.128C262.953 184.748 260.274 181.368 256.5 179.256C254.735 178.29 254.917 177.626 256.135 176.54C256.926 175.876 257.474 175.152 257.596 173.884C252.239 174.729 247.856 176.902 244.691 181.429C237.751 191.266 233.49 201.889 233.429 214.081C233.369 221.203 233.977 228.324 233.916 235.386C233.916 236.895 233.856 238.404 233.308 240.154C228.255 235.024 224.359 229.29 220.646 223.436C212.55 210.882 207.132 197.181 204.028 182.756C202.445 175.514 202.75 167.849 205.489 160.727C206.889 157.105 206.889 153.665 206.585 149.923C205.185 132.541 211.82 118.478 224.968 107.192C230.568 102.424 236.351 101.035 243.717 103.51C251.569 106.166 259.848 107.433 268.249 106.95C270.196 106.83 270.196 106.89 272.631 105.562C267.944 104.777 263.683 104.777 259.3 102.786C264.718 101.458 269.649 100.251 274.518 99.0437C276.466 98.5609 278.536 98.3195 280.423 97.7159C293.145 93.9739 307.998 106.648 304.529 121.194Z" fill="#267CDF"/>
<path d="M223.271 50.7586C223.271 47.0166 223.271 43.2142 223.271 39.4722C223.393 39.4722 223.454 39.4722 223.576 39.4722C223.576 43.2142 223.576 46.9562 223.576 50.6982C223.515 50.6982 223.393 50.7586 223.271 50.7586Z" fill="#267CDF"/>
</svg>
